<svg width="21" height="20" viewBox="0 0 21 20" fill="none" xmlns="http://www.w3.org/2000/svg">
<path d="M12.9796 2.51826L13.7794 1.07527C13.7897 1.05676 13.7962 1.03641 13.7986 1.01538C13.801 0.994345 13.7992 0.973048 13.7934 0.952701C13.7875 0.932353 13.7778 0.913354 13.7646 0.896788C13.7514 0.880222 13.7351 0.866414 13.7166 0.856151C13.6792 0.835424 13.6351 0.830399 13.594 0.84218C13.5529 0.853961 13.5182 0.881584 13.4975 0.918972L12.6888 2.37795C11.9987 2.07546 11.2535 1.91929 10.5001 1.91929C9.7467 1.91929 9.00147 2.07546 8.31146 2.37795L7.50273 0.918972C7.482 0.881584 7.44727 0.853961 7.40618 0.84218C7.36508 0.830399 7.32099 0.835424 7.28361 0.856151C7.24622 0.876877 7.2186 0.911607 7.20681 0.952701C7.19503 0.993794 7.20006 1.03788 7.22079 1.07527L8.02066 2.51827C7.25927 2.89358 6.61595 3.47133 6.16125 4.18815C5.70656 4.90497 5.45807 5.73316 5.44303 6.5819H15.5572C15.5422 5.73316 15.2937 4.90496 14.839 4.18814C14.3843 3.47132 13.7409 2.89357 12.9796 2.51826ZM8.16602 4.73126C8.08249 4.73126 8.00084 4.70649 7.93138 4.66009C7.86193 4.61368 7.8078 4.54772 7.77583 4.47055C7.74387 4.39338 7.73551 4.30846 7.7518 4.22654C7.7681 4.14461 7.80832 4.06936 7.86738 4.01029C7.92645 3.95123 8.0017 3.91101 8.08363 3.89471C8.16555 3.87842 8.25047 3.88678 8.32764 3.91874C8.40481 3.95071 8.47077 4.00484 8.51718 4.07429C8.56358 4.14375 8.58835 4.2254 8.58835 4.30893C8.58823 4.4209 8.54369 4.52825 8.46452 4.60743C8.38534 4.6866 8.27799 4.73114 8.16602 4.73126ZM12.8342 4.73126C12.7506 4.73126 12.669 4.70649 12.5995 4.66009C12.5301 4.61368 12.4759 4.54772 12.444 4.47055C12.412 4.39338 12.4037 4.30846 12.42 4.22654C12.4362 4.14461 12.4765 4.06936 12.5355 4.01029C12.5946 3.95123 12.6699 3.91101 12.7518 3.89471C12.8337 3.87842 12.9186 3.88678 12.9958 3.91874C13.073 3.95071 13.1389 4.00484 13.1853 4.07429C13.2317 4.14375 13.2565 4.2254 13.2565 4.30893C13.2564 4.4209 13.2118 4.52825 13.1327 4.60743C13.0535 4.6866 12.9461 4.73114 12.8342 4.73126ZM5.44295 14.3121C5.44295 14.6363 5.57176 14.9473 5.80105 15.1766C6.03033 15.4059 6.3413 15.5347 6.66556 15.5347H7.47689V18.0355C7.47649 18.1846 7.50552 18.3324 7.56231 18.4703C7.6191 18.6082 7.70255 18.7335 7.80786 18.8391C7.91318 18.9447 8.03829 19.0285 8.17604 19.0857C8.31379 19.1429 8.46147 19.1723 8.61061 19.1723C8.75975 19.1723 8.90742 19.1429 9.04517 19.0857C9.18292 19.0285 9.30804 18.9447 9.41335 18.8391C9.51867 18.7335 9.60211 18.6082 9.6589 18.4703C9.7157 18.3324 9.74472 18.1846 9.74432 18.0355V15.5347H11.2559V18.0355C11.2555 18.1846 11.2845 18.3324 11.3413 18.4703C11.3981 18.6082 11.4815 18.7335 11.5868 18.8391C11.6922 18.9447 11.8173 19.0285 11.955 19.0857C12.0928 19.1429 12.2404 19.1723 12.3896 19.1723C12.5387 19.1723 12.6864 19.1429 12.8241 19.0857C12.9619 19.0285 13.087 18.9447 13.1923 18.8391C13.2976 18.7335 13.3811 18.6082 13.4379 18.4703C13.4947 18.3324 13.5237 18.1846 13.5233 18.0355V15.5347H14.3347C14.6589 15.5347 14.9699 15.4059 15.1992 15.1766C15.4285 14.9473 15.5573 14.6363 15.5573 14.3121V6.98198H5.44295V14.3121ZM3.88689 6.78747C3.58631 6.78781 3.29815 6.90737 3.08561 7.11991C2.87307 7.33245 2.75352 7.62061 2.75318 7.92119V12.6449C2.75277 12.794 2.7818 12.9418 2.83859 13.0797C2.89539 13.2176 2.97883 13.3429 3.08415 13.4485C3.18946 13.5541 3.31458 13.6379 3.45233 13.6951C3.59007 13.7523 3.73775 13.7817 3.88689 13.7817C4.03603 13.7817 4.18371 13.7523 4.32145 13.6951C4.4592 13.6379 4.58432 13.5541 4.68963 13.4485C4.79495 13.3429 4.87839 13.2176 4.93519 13.0797C4.99198 12.9418 5.02101 12.794 5.0206 12.6449V7.92119C5.02026 7.62061 4.90071 7.33244 4.68817 7.1199C4.47563 6.90736 4.18746 6.78781 3.88689 6.78747ZM17.1133 6.78747C16.8127 6.78781 16.5246 6.90736 16.312 7.1199C16.0995 7.33244 15.9799 7.62061 15.9796 7.92119V12.6449C15.9792 12.794 16.0082 12.9418 16.065 13.0797C16.1218 13.2176 16.2052 13.3429 16.3106 13.4485C16.4159 13.5541 16.541 13.6379 16.6787 13.6951C16.8165 13.7523 16.9642 13.7817 17.1133 13.7817C17.2624 13.7817 17.4101 13.7523 17.5479 13.6951C17.6856 13.6379 17.8107 13.5541 17.916 13.4485C18.0214 13.3429 18.1048 13.2176 18.1616 13.0797C18.2184 12.9418 18.2474 12.794 18.247 12.6449V7.92119C18.2467 7.62061 18.1271 7.33245 17.9146 7.11991C17.702 6.90737 17.4139 6.78781 17.1133 6.78747Z" fill="white"/>
</svg>
