<svg width="24" height="24" viewBox="0 0 24 24" fill="none" xmlns="http://www.w3.org/2000/svg">
<path d="M5.875 1.5H18.125C20.5413 1.5 22.5 3.45869 22.5 5.875V18.125C22.5 20.5413 20.5413 22.5 18.125 22.5H5.875C3.45869 22.5 1.5 20.5413 1.5 18.125V5.875C1.5 3.45869 3.45869 1.5 5.875 1.5Z" fill="url(#paint0_linear)"/>
<path d="M5.5895 17.3503C5.28325 17.8666 5.45388 18.5403 5.9745 18.8466C6.14513 18.9516 6.33763 18.9997 6.53013 18.9997C6.902 18.9997 7.26513 18.8072 7.47075 18.4616L8.44637 16.8122H5.90888L5.5895 17.3503Z" fill="white"/>
<path d="M10.5214 13.3117L11.3001 11.9992L12.0001 10.8179L13.2689 8.67857L14.472 6.64857C14.7782 6.13232 14.6076 5.45857 14.087 5.15232C13.5707 4.84607 12.897 5.0167 12.5907 5.53732L12.0001 6.53482L11.4095 5.53732C11.357 5.44545 11.287 5.36232 11.2126 5.28795C10.867 4.97295 10.3376 4.90295 9.91325 5.15232C9.39262 5.45857 9.222 6.13232 9.52825 6.64857L9.96575 7.38795L10.7314 8.67857L8.76262 11.9992L7.98387 13.3117H5.65637C5.05262 13.3117 4.56262 13.8017 4.56262 14.4054C4.56262 15.0092 5.05262 15.4992 5.65637 15.4992H6.68887H9.22637H13.247L11.9476 13.3117H10.5214Z" fill="white"/>
<path d="M18.3437 13.312H16.0162L14.0344 9.96509L12.7612 12.1088L13.4744 13.312L14.7737 15.4995L16.5281 18.4613C16.7337 18.807 17.0969 18.9995 17.4687 18.9995C17.6612 18.9995 17.8537 18.9513 18.0244 18.8463C18.545 18.5401 18.7156 17.8663 18.4094 17.3501L17.3112 15.4995H18.3437C18.4969 15.4995 18.6456 15.4688 18.7812 15.4076C19.1662 15.2413 19.4375 14.8563 19.4375 14.4057C19.4375 13.802 18.9475 13.312 18.3437 13.312Z" fill="white"/>
<defs>
<linearGradient id="paint0_linear" x1="12" y1="27.6944" x2="12" y2="-4.429" gradientUnits="userSpaceOnUse">
<stop stop-color="#005CE2"/>
<stop offset="0.278" stop-color="#0080E8"/>
<stop offset="0.569" stop-color="#009CED"/>
<stop offset="0.82" stop-color="#00B0F1"/>
<stop offset="1" stop-color="#00B5F2"/>
</linearGradient>
</defs>
</svg>
