<svg width="48" height="49" viewBox="0 0 48 49" fill="none" xmlns="http://www.w3.org/2000/svg">
<path d="M17.3682 27.184C17.7722 26.376 18.0002 25.464 18.0002 24.5C18.0002 23.536 17.7722 22.624 17.3682 21.816V27.184ZM17.3682 27.184C16.7636 28.3928 15.7686 29.362 14.5443 29.9347C13.3201 30.5074 11.9384 30.65 10.623 30.3394C9.30767 30.0288 8.1357 29.2832 7.29698 28.2233C6.45827 27.1635 6.00195 25.8515 6.00195 24.5C6.00195 23.1484 6.45827 21.8365 7.29698 20.7766C8.1357 19.7168 9.30767 18.9712 10.623 18.6606C11.9384 18.35 13.3201 18.4926 14.5443 19.0653C15.7686 19.638 16.7636 20.6072 17.3682 21.816V27.184ZM17.3682 27.184L30.6322 33.816L17.3682 27.184ZM17.3682 21.816L30.6322 15.184L17.3682 21.816ZM30.6322 15.184C30.9846 15.8888 31.4725 16.5173 32.0678 17.0335C32.6632 17.5498 33.3544 17.9438 34.102 18.1929C34.8496 18.442 35.6389 18.5415 36.425 18.4856C37.211 18.4296 37.9783 18.2195 38.6832 17.867C39.388 17.5145 40.0164 17.0267 40.5327 16.4313C41.049 15.836 41.4429 15.1448 41.6921 14.3972C41.9412 13.6495 42.0407 12.8602 41.9847 12.0742C41.9288 11.2881 41.7186 10.5208 41.3662 9.81598C40.6543 8.39257 39.4062 7.31023 37.8963 6.80707C36.3865 6.30391 34.7386 6.42114 33.3152 7.13298C31.8917 7.84483 30.8094 9.09296 30.3062 10.6028C29.8031 12.1127 29.9203 13.7606 30.6322 15.184V15.184ZM30.6322 33.816C29.9203 35.2397 29.8032 36.8878 30.3065 38.3979C30.8099 39.9079 31.8925 41.1561 33.3162 41.868C34.7398 42.5798 36.388 42.697 37.898 42.1936C39.4081 41.6903 40.6563 40.6077 41.3682 39.184C42.08 37.7603 42.1971 36.1122 41.6938 34.6021C41.1904 33.0921 40.1078 31.8438 38.6842 31.132C37.9792 30.7795 37.2118 30.5693 36.4256 30.5135C35.6394 30.4576 34.85 30.5571 34.1023 30.8064C32.5922 31.3097 31.344 32.3923 30.6322 33.816V33.816Z" stroke="#2C2F36" stroke-width="1.7" stroke-linecap="round" stroke-linejoin="round"/>
</svg>
