<svg width="48" height="48" viewBox="0 0 48 48" fill="none" xmlns="http://www.w3.org/2000/svg">
<path d="M14 42.5C11.8783 42.5 9.84344 41.6571 8.34315 40.1569C6.84285 38.6566 6 36.6217 6 34.5V10.5C6 9.43913 6.42143 8.42172 7.17157 7.67157C7.92172 6.92143 8.93913 6.5 10 6.5H18C19.0609 6.5 20.0783 6.92143 20.8284 7.67157C21.5786 8.42172 22 9.43913 22 10.5V34.5C22 36.6217 21.1571 38.6566 19.6569 40.1569C18.1566 41.6571 16.1217 42.5 14 42.5ZM14 42.5H38C39.0609 42.5 40.0783 42.0786 40.8284 41.3284C41.5786 40.5783 42 39.5609 42 38.5V30.5C42 29.4391 41.5786 28.4217 40.8284 27.6716C40.0783 26.9214 39.0609 26.5 38 26.5H33.314M22 15.186L25.314 11.872C26.0641 11.1221 27.0813 10.7009 28.142 10.7009C29.2027 10.7009 30.2199 11.1221 30.97 11.872L36.628 17.53C37.3779 18.2801 37.7991 19.2973 37.7991 20.358C37.7991 21.4187 37.3779 22.4359 36.628 23.186L19.656 40.156M14 34.5H14.02" stroke="#2C2F36" stroke-width="1.7" stroke-linecap="round" stroke-linejoin="round"/>
</svg>
