<svg width="512" height="512" viewBox="0 0 512 512" fill="none" xmlns="http://www.w3.org/2000/svg">
<rect width="512" height="512" fill="#191C2B"/>
<path d="M170.324 183.2C174.356 183.2 177.642 184.395 180.18 186.784C182.719 189.173 183.988 192.309 183.988 196.192C183.988 200.075 182.719 203.211 180.18 205.6C177.642 207.84 174.356 208.96 170.324 208.96H135.156V326.336C135.156 330.219 133.738 333.504 130.9 336.192C128.063 338.731 124.554 340 120.372 340C116.191 340 112.756 338.731 110.068 336.192C107.38 333.504 106.036 330.219 106.036 326.336V208.96H70.8684C66.8364 208.96 63.551 207.765 61.0124 205.376C58.4737 202.987 57.2044 199.851 57.2044 195.968C57.2044 192.235 58.4737 189.173 61.0124 186.784C63.7004 184.395 66.9857 183.2 70.8684 183.2H170.324ZM293.493 280.192C293.493 292.139 290.805 302.891 285.429 312.448C280.053 321.856 272.661 329.173 263.253 334.4C253.994 339.627 243.765 342.24 232.565 342.24C221.216 342.24 210.912 339.627 201.653 334.4C192.394 329.173 185.077 321.856 179.701 312.448C174.325 302.891 171.637 292.139 171.637 280.192C171.637 268.245 174.325 257.568 179.701 248.16C185.077 238.603 192.394 231.211 201.653 225.984C210.912 220.608 221.216 217.92 232.565 217.92C243.765 217.92 253.994 220.608 263.253 225.984C272.661 231.211 280.053 238.603 285.429 248.16C290.805 257.568 293.493 268.245 293.493 280.192ZM266.613 280.192C266.613 272.875 265.045 266.379 261.909 260.704C258.922 254.88 254.816 250.4 249.589 247.264C244.512 244.128 238.837 242.56 232.565 242.56C226.293 242.56 220.544 244.128 215.317 247.264C210.24 250.4 206.133 254.88 202.997 260.704C200.01 266.379 198.517 272.875 198.517 280.192C198.517 287.509 200.01 294.005 202.997 299.68C206.133 305.355 210.24 309.76 215.317 312.896C220.544 316.032 226.293 317.6 232.565 317.6C238.837 317.6 244.512 316.032 249.589 312.896C254.816 309.76 258.922 305.355 261.909 299.68C265.045 294.005 266.613 287.509 266.613 280.192ZM385.391 183.2C399.428 183.2 411.449 186.709 421.455 193.728C431.609 200.597 439.3 210.005 444.527 221.952C449.903 233.749 452.591 246.965 452.591 261.6C452.591 276.235 449.903 289.525 444.527 301.472C439.3 313.269 431.609 322.677 421.455 329.696C411.449 336.565 399.428 340 385.391 340H331.855C327.972 340 324.687 338.731 321.999 336.192C319.46 333.504 318.191 330.219 318.191 326.336V196.864C318.191 192.981 319.46 189.771 321.999 187.232C324.687 184.544 327.972 183.2 331.855 183.2H385.391ZM383.151 314.24C396.591 314.24 406.671 309.312 413.391 299.456C420.111 289.451 423.471 276.832 423.471 261.6C423.471 246.368 420.036 233.824 413.167 223.968C406.447 213.963 396.441 208.96 383.151 208.96H346.191V314.24H383.151Z" fill="url(#paint1_linear)"/>
<defs>
<linearGradient id="paint1_linear" x1="64.42" y1="116" x2="187.114" y2="483.249" gradientUnits="userSpaceOnUse">
<stop stop-color="#E8E261"/>
<stop offset="1" stop-color="#E89E4A"/>
</linearGradient>
</defs>
</svg>
