<svg width="48" height="48" viewBox="0 0 48 48" fill="none" xmlns="http://www.w3.org/2000/svg">
<path d="M24 22.0002C24 29.0342 21.982 35.5982 18.494 41.1422M11.614 37.0622L11.722 36.8822C14.527 32.4261 16.0105 27.2656 16 22.0002C16 19.8784 16.8429 17.8436 18.3431 16.3433C19.8434 14.843 21.8783 14.0002 24 14.0002C26.1217 14.0002 28.1566 14.843 29.6569 16.3433C31.1571 17.8436 32 19.8784 32 22.0002C32 24.0342 31.86 26.0382 31.594 28.0002M38.02 36.2642C39.31 31.7322 40 26.9462 40 22.0002C40.0006 19.1913 39.2618 16.4317 37.8578 13.9989C36.4537 11.5661 34.434 9.54579 32.0016 8.14107C29.5691 6.73635 26.8098 5.99674 24.0009 5.99658C21.192 5.99642 18.4326 6.73573 16 8.14018M6 30.7282C7.28 28.0902 8 25.1282 8 22.0002C8 19.0862 8.78 16.3542 10.14 14.0002M27.358 41.6882C28.5925 39.2252 29.5916 36.6511 30.342 34.0002L27.358 41.6882Z" stroke="#2C2F36" stroke-width="2" stroke-linecap="round" stroke-linejoin="round"/>
</svg>
