<svg width="21" height="20" viewBox="0 0 21 20" fill="none" xmlns="http://www.w3.org/2000/svg">
<g>
<path d="M10.1865 6.02094C9.45647 6.02094 8.32647 5.19094 7.13647 5.22094C5.56647 5.24094 4.12647 6.13094 3.31647 7.54094C1.68647 10.3709 2.89647 14.5509 4.48647 16.8509C5.26647 17.9709 6.18647 19.2309 7.40647 19.1909C8.57647 19.1409 9.01647 18.4309 10.4365 18.4309C11.8465 18.4309 12.2465 19.1909 13.4865 19.1609C14.7465 19.1409 15.5465 18.0209 16.3165 16.8909C17.2065 15.5909 17.5765 14.3309 17.5965 14.2609C17.5665 14.2509 15.1465 13.3209 15.1165 10.5209C15.0965 8.18094 17.0265 7.06094 17.1165 7.01094C16.0165 5.40094 14.3265 5.22094 13.7365 5.18094C12.1965 5.06094 10.9065 6.02094 10.1865 6.02094ZM12.7865 3.66094C13.4365 2.88094 13.8665 1.79094 13.7465 0.710938C12.8165 0.750937 11.6965 1.33094 11.0265 2.11094C10.4265 2.80094 9.90647 3.91094 10.0465 4.97094C11.0765 5.05094 12.1365 4.44094 12.7865 3.66094Z" fill="white"/>
</g>
<defs>
<clipPath id="clip0">
<rect width="20" height="20" fill="white" transform="translate(0.5)"/>
</clipPath>
</defs>
</svg>
