<svg width="52" height="52" viewBox="0 0 52 52" fill="none" xmlns="http://www.w3.org/2000/svg">
<g clip-path="url(#clip0_320_2526)">
<path d="M26.5445 30.4205C26.5445 27.6485 25.226 25.5995 22.502 24.8315C24.4895 23.885 25.526 22.451 25.526 20.2205C25.526 15.8225 22.238 14.75 18.4445 14.75H8V36.8315H18.737C22.763 36.8315 26.5445 34.907 26.5445 30.4205ZM12.869 18.5195H17.438C19.1945 18.5195 20.7755 19.0115 20.7755 21.0425C20.7755 22.9175 19.5455 23.672 17.8055 23.672H12.869V18.5195ZM12.8675 33.0815V27.0005H18.1745C20.318 27.0005 21.674 27.8915 21.674 30.1535C21.674 32.384 20.0555 33.0815 18.074 33.0815H12.8675Z" fill="white"/>
<path d="M36.1943 37.2501C40.0253 37.2501 42.5063 35.5296 43.7003 31.8726H39.8123C39.3938 33.2376 37.6688 33.9591 36.3308 33.9591C33.7493 33.9591 32.3933 32.4516 32.3933 29.8896H43.9628C44.3288 24.7626 41.4728 20.3931 36.1928 20.3931C31.3043 20.3931 27.9863 24.0561 27.9863 28.8546C27.9863 33.8346 31.1303 37.2501 36.1943 37.2501V37.2501ZM36.0563 23.7111C38.2688 23.7111 39.3818 25.0071 39.5678 27.1266H32.3993C32.5448 25.0251 33.9443 23.7111 36.0563 23.7111Z" fill="white"/>
<path d="M31.5005 15.9097H40.4825V18.0847H31.5005V15.9097Z" fill="white"/>
</g>
<defs>
<clipPath id="clip0_320_2526">
<rect width="36" height="36" fill="white" transform="translate(8 8)"/>
</clipPath>
</defs>
</svg>
