<svg width="36" height="36" viewBox="0 0 36 36" fill="none" xmlns="http://www.w3.org/2000/svg">
<g>
<path d="M18.5445 22.4205C18.5445 19.6485 17.226 17.5995 14.502 16.8315C16.4895 15.885 17.526 14.451 17.526 12.2205C17.526 7.8225 14.238 6.75 10.4445 6.75H0V28.8315H10.737C14.763 28.8315 18.5445 26.907 18.5445 22.4205ZM4.869 10.5195H9.438C11.1945 10.5195 12.7755 11.0115 12.7755 13.0425C12.7755 14.9175 11.5455 15.672 9.8055 15.672H4.869V10.5195ZM4.8675 25.0815V19.0005H10.1745C12.318 19.0005 13.674 19.8915 13.674 22.1535C13.674 24.384 12.0555 25.0815 10.074 25.0815H4.8675Z" fill="white"/>
<path d="M28.1943 29.2501C32.0253 29.2501 34.5063 27.5296 35.7003 23.8726H31.8123C31.3938 25.2376 29.6688 25.9591 28.3308 25.9591C25.7493 25.9591 24.3933 24.4516 24.3933 21.8896H35.9628C36.3288 16.7626 33.4728 12.3931 28.1928 12.3931C23.3043 12.3931 19.9863 16.0561 19.9863 20.8546C19.9863 25.8346 23.1303 29.2501 28.1943 29.2501ZM28.0563 15.7111C30.2688 15.7111 31.3818 17.0071 31.5678 19.1266H24.3993C24.5448 17.0251 25.9443 15.7111 28.0563 15.7111Z" fill="white"/>
<path d="M23.5 7.90967H32.482V10.0847H23.5V7.90967Z" fill="white"/>
</g>
<defs>
<clipPath id="clip0">
<rect width="36" height="36" fill="white"/>
</clipPath>
</defs>
</svg>
