<svg width="48" height="49" viewBox="0 0 48 49" fill="none" xmlns="http://www.w3.org/2000/svg">
<path d="M16 14.5V6.5V14.5ZM32 14.5V6.5V14.5ZM14 22.5H34H14ZM10 42.5H38C39.0609 42.5 40.0783 42.0786 40.8284 41.3284C41.5786 40.5783 42 39.5609 42 38.5V14.5C42 13.4391 41.5786 12.4217 40.8284 11.6716C40.0783 10.9214 39.0609 10.5 38 10.5H10C8.93913 10.5 7.92172 10.9214 7.17157 11.6716C6.42143 12.4217 6 13.4391 6 14.5V38.5C6 39.5609 6.42143 40.5783 7.17157 41.3284C7.92172 42.0786 8.93913 42.5 10 42.5Z" stroke="#2C2F36" stroke-width="2" stroke-linecap="round" stroke-linejoin="round"/>
</svg>
