<svg width="52" height="52" viewBox="0 0 52 52" fill="none" xmlns="http://www.w3.org/2000/svg">
<path fill-rule="evenodd" clip-rule="evenodd" d="M26 8C16.0629 8 8 16.0629 8 26C8 35.9371 16.0629 44 26 44C35.9176 44 44 35.9371 44 26C44 16.0629 35.9176 8 26 8ZM37.8894 16.2972C40.0369 18.9132 41.3254 22.2516 41.3644 25.8633C40.8568 25.7657 35.7809 24.731 30.666 25.3753C30.5488 25.1215 30.4512 24.8481 30.3341 24.5748C30.0217 23.833 29.6703 23.0716 29.3189 22.3492C34.9805 20.0456 37.5575 16.7267 37.8894 16.2972ZM26 10.6551C29.9046 10.6551 33.4772 12.1193 36.1909 14.5206C35.9176 14.9111 33.5943 18.0152 28.128 20.0651C25.6095 15.4382 22.8178 11.6508 22.3883 11.0651C23.5401 10.7918 24.7505 10.6551 26 10.6551ZM19.4599 12.0998C19.8698 12.6464 22.603 16.4534 25.1605 20.9826C17.9761 22.8959 11.6312 22.8568 10.9479 22.8568C11.9436 18.0933 15.1649 14.1302 19.4599 12.0998ZM10.6161 26.0195C10.6161 25.8633 10.6161 25.7072 10.6161 25.551C11.2798 25.5705 18.7375 25.6681 26.41 23.3644C26.859 24.2234 27.269 25.1019 27.6594 25.9805C27.4642 26.0391 27.2495 26.0976 27.0542 26.1562C19.128 28.7137 14.9111 35.7028 14.5597 36.2885C12.1193 33.5748 10.6161 29.9631 10.6161 26.0195ZM26 41.384C22.4469 41.384 19.167 40.1735 16.5705 38.1432C16.8438 37.577 19.9675 31.564 28.6356 28.538C28.6746 28.5185 28.6941 28.5185 28.7332 28.4989C30.9002 34.1019 31.7788 38.8069 32.013 40.154C30.1584 40.9544 28.128 41.384 26 41.384ZM34.5705 38.7484C34.4143 37.8113 33.5944 33.321 31.5835 27.7961C36.4057 27.0347 40.6226 28.2842 41.1497 28.4599C40.4859 32.7353 38.026 36.4252 34.5705 38.7484Z" fill="white"/>
</svg>
