<svg width="44" height="44" viewBox="0 0 44 44" fill="none" xmlns="http://www.w3.org/2000/svg">
<g clip-path="url(#clip0_3697_3151)">
<path d="M36.1199 27.0769L36.1632 26.9327C37.2789 23.7389 37.2789 20.2611 36.1632 17.0673L36.1199 16.9231C35.0709 14.0188 33.1527 11.5082 30.6263 9.73268C28.0999 7.95719 25.0879 7.00304 22 7C18.9121 7.00304 15.9001 7.95719 13.3737 9.73268C10.8473 11.5082 8.92911 14.0188 7.88006 16.9231L7.83679 17.0673C6.72107 20.2611 6.72107 23.7389 7.83679 26.9327L7.88006 27.0769C8.93267 29.9789 10.8518 32.4872 13.3774 34.2621C15.903 36.037 18.9131 36.9928 22 37C25.0879 36.997 28.0999 36.0428 30.6263 34.2673C33.1527 32.4918 35.0709 29.9812 36.1199 27.0769ZM22 10.1154C23.6801 11.8437 24.9387 13.9365 25.6778 16.2308H18.3222C19.0613 13.9365 20.3199 11.8437 22 10.1154ZM18.3222 27.7692H25.6778C24.9387 30.0635 23.6801 32.1563 22 33.8846C20.3199 32.1563 19.0613 30.0635 18.3222 27.7692ZM17.7164 25.4615C17.2742 23.175 17.2742 20.825 17.7164 18.5385H26.2836C26.7258 20.825 26.7258 23.175 26.2836 25.4615H17.7164ZM28.6345 18.5385H34.2161C34.8509 20.8025 34.8509 23.1975 34.2161 25.4615H28.6345C29.0191 23.1699 29.0191 20.8301 28.6345 18.5385ZM33.3075 16.2308H28.1153C27.4213 13.8009 26.2385 11.5384 24.6394 9.58173C26.4858 9.98042 28.2209 10.7835 29.7198 11.9332C31.2186 13.083 32.4439 14.5507 33.3075 16.2308ZM24.6394 34.4183C26.2385 32.4616 27.4213 30.1991 28.1153 27.7692H33.3075C32.4439 29.4493 31.2186 30.917 29.7198 32.0668C28.2209 33.2165 26.4858 34.0196 24.6394 34.4183Z" fill="#9C9C9C"/>
</g>
<defs>
<clipPath id="clip0_3697_3151">
<rect width="44" height="44" fill="white"/>
</clipPath>
</defs>
</svg>
