<svg width="48" height="48" viewBox="0 0 48 48" fill="none" xmlns="http://www.w3.org/2000/svg">
<path d="M7.705 4.04297C7.292 4.14997 7 4.50697 7 5.12097C7 6.92297 7 23.916 7 23.916C7 23.916 7 42.28 7 43.091C7 43.537 7.197 43.836 7.5 43.947L27.681 23.883L7.705 4.04297Z" fill="#4DB6AC"/>
<path d="M33.237 18.36L24.93 13.564C24.93 13.564 9.68499 4.76101 8.78899 4.24401C8.40099 4.02001 8.01899 3.96101 7.70499 4.04301L27.682 23.883L33.237 18.36Z" fill="#DCE775"/>
<path d="M8.417 43.8018C8.949 43.4938 23.701 34.9768 33.282 29.4448L27.681 23.8828L7.5 43.9468C7.748 44.0378 8.066 44.0038 8.417 43.8018Z" fill="#D32F2F"/>
<path d="M41.398 23.0714C40.602 22.6424 33.298 18.3954 33.298 18.3954L33.237 18.3604L27.681 23.8834L33.282 29.4454C37.714 26.8864 41.043 24.9654 41.341 24.7924C42.285 24.2484 42.194 23.5003 41.398 23.0714Z" fill="#FBC02D"/>
</svg>
