<svg width="44" height="44" viewBox="0 0 44 44" fill="none" xmlns="http://www.w3.org/2000/svg">
<g clip-path="url(#clip0_3697_2999)">
<path d="M14.5901 22.6729V19.9789C14.5901 19.2644 14.8562 18.5791 15.3298 18.0739C15.8035 17.5687 16.4459 17.2848 17.1157 17.2848H28.0602M28.0602 17.2848L25.5345 14.5908M28.0602 17.2848L25.5345 19.9789" stroke="#9C9C9C" stroke-width="2.14286" stroke-linecap="round" stroke-linejoin="round"/>
<path d="M29.4064 21.3271V24.0212C29.4064 24.7357 29.1403 25.4209 28.6666 25.9261C28.193 26.4313 27.5506 26.7152 26.8807 26.7152H15.9363M15.9363 26.7152L18.4619 29.4092M15.9363 26.7152L18.4619 24.0212" stroke="#9C9C9C" stroke-width="2.14286" stroke-linecap="round" stroke-linejoin="round"/>
</g>
<rect x="8.25" y="8.25" width="27.5" height="27.5" rx="2.32143" stroke="#9C9C9C" stroke-width="2.5"/>
<defs>
<clipPath id="clip0_3697_2999">
<rect x="7" y="7" width="30" height="30" rx="3.57143" fill="white"/>
</clipPath>
</defs>
</svg>
