<svg width="44" height="44" viewBox="0 0 44 44" fill="none" xmlns="http://www.w3.org/2000/svg">
<rect x="8.31248" y="8.31248" width="27.3747" height="27.3747" rx="3.18746" fill="#7270DF"/>
<path d="M14.6565 22.5183V19.6896C14.6565 18.9394 14.9359 18.2199 15.4332 17.6894C15.9305 17.1589 16.6051 16.8609 17.3084 16.8609H28.7999M28.7999 16.8609L26.148 14.0322M28.7999 16.8609L26.148 19.6896" stroke="white" stroke-width="2.24997" stroke-linecap="round" stroke-linejoin="round"/>
<path d="M30.2135 21.1045V23.9332C30.2135 24.6834 29.9341 25.4029 29.4368 25.9334C28.9394 26.4638 28.2649 26.7619 27.5616 26.7619H16.0701M16.0701 26.7619L18.722 29.5905M16.0701 26.7619L18.722 23.9332" stroke="white" stroke-width="2.24997" stroke-linecap="round" stroke-linejoin="round"/>
<rect x="8.31248" y="8.31248" width="27.3747" height="27.3747" rx="3.18746" stroke="#7270DF" stroke-width="2.62497"/>
</svg>
