<svg width="44" height="44" viewBox="0 0 44 44" fill="none" xmlns="http://www.w3.org/2000/svg">
<path fill-rule="evenodd" clip-rule="evenodd" d="M8.05322 29.4794C8.05322 28.7201 8.66883 28.1044 9.42822 28.1044H34.4297C35.1891 28.1044 35.8047 28.7201 35.8047 29.4794C35.8047 30.2388 35.1891 30.8544 34.4297 30.8544H9.42822C8.66883 30.8544 8.05322 30.2388 8.05322 29.4794Z" fill="#9C9C9C"/>
<path d="M21.9368 9.03516C26.5725 9.03516 30.3282 12.8066 30.3282 17.4266V28.0966H13.5297V17.4266C13.5297 12.8066 17.3011 9.03516 21.9368 9.03516ZM21.9368 6.28516C15.7768 6.28516 10.7954 11.2823 10.7954 17.4266V30.8466H33.0939V17.4266C33.0782 11.2666 28.0968 6.28516 21.9368 6.28516Z" fill="#9C9C9C"/>
<path fill-rule="evenodd" clip-rule="evenodd" d="M33.0939 30.8466H10.7954V17.4266C10.7954 11.2823 15.7768 6.28516 21.9368 6.28516C28.0968 6.28516 33.0782 11.2666 33.0939 17.4266V30.8466ZM30.3282 17.4266C30.3282 12.8066 26.5725 9.03516 21.9368 9.03516C17.3011 9.03516 13.5297 12.8066 13.5297 17.4266V28.0966H30.3282V17.4266Z" fill="#9C9C9C"/>
<path d="M18.8097 33.6123C18.2597 33.6123 17.8353 34.1152 17.961 34.6494C18.4168 36.4094 20.0197 37.7294 21.9368 37.7294C23.8539 37.7294 25.4568 36.4252 25.9125 34.6494C26.0539 34.1309 25.6139 33.6123 25.0639 33.6123H18.8097Z" fill="#9C9C9C"/>
<path fill-rule="evenodd" clip-rule="evenodd" d="M23.9362 35.1837H19.9426C20.4075 35.7757 21.1294 36.158 21.9368 36.158C22.7509 36.158 23.4731 35.7782 23.9362 35.1837ZM17.961 34.6494C17.8353 34.1152 18.2597 33.6123 18.8097 33.6123H25.0639C25.6139 33.6123 26.0539 34.1309 25.9125 34.6494C25.4568 36.4252 23.8539 37.7294 21.9368 37.7294C20.0197 37.7294 18.4168 36.4094 17.961 34.6494Z" fill="#9C9C9C"/>
</svg>
