<svg width="44" height="44" viewBox="0 0 44 44" fill="none" xmlns="http://www.w3.org/2000/svg">
<path d="M34 9.62496C34.21 9.62496 34.375 9.78996 34.375 9.99996V33.9996C34.375 34.2096 34.21 34.3746 34 34.3746H10.0003C9.79033 34.3746 9.62533 34.2096 9.62533 33.9996V9.99996C9.62533 9.78996 9.79033 9.62496 10.0003 9.62496H34ZM34 7H10.0003C8.35035 7 7.00037 8.34998 7.00037 9.99996V33.9996C7.00037 35.6496 8.35035 36.9996 10.0003 36.9996H34C35.65 36.9996 37 35.6496 37 33.9996V9.99996C37 8.33498 35.65 7 34 7Z" fill="#9C9C9C"/>
<path d="M29.0495 16.8848H19.0447" stroke="#9C9C9C" stroke-width="2.01451" stroke-miterlimit="10" stroke-linecap="round" stroke-linejoin="round"/>
<path d="M14.3648 18.2054C15.0938 18.2054 15.6848 17.6144 15.6848 16.8854C15.6848 16.1564 15.0938 15.5654 14.3648 15.5654C13.6358 15.5654 13.0448 16.1564 13.0448 16.8854C13.0448 17.6144 13.6358 18.2054 14.3648 18.2054Z" fill="#9C9C9C"/>
<path d="M29.0495 22H19.0447" stroke="#9C9C9C" stroke-width="2.01451" stroke-miterlimit="10" stroke-linecap="round" stroke-linejoin="round"/>
<path d="M14.3648 23.3206C15.0938 23.3206 15.6848 22.7297 15.6848 22.0006C15.6848 21.2716 15.0938 20.6807 14.3648 20.6807C13.6358 20.6807 13.0448 21.2716 13.0448 22.0006C13.0448 22.7297 13.6358 23.3206 14.3648 23.3206Z" fill="#9C9C9C"/>
<path d="M29.0495 27.1152H19.0447" stroke="#9C9C9C" stroke-width="2.01451" stroke-miterlimit="10" stroke-linecap="round" stroke-linejoin="round"/>
<path d="M14.3648 28.4349C15.0938 28.4349 15.6848 27.8439 15.6848 27.1149C15.6848 26.3859 15.0938 25.7949 14.3648 25.7949C13.6358 25.7949 13.0448 26.3859 13.0448 27.1149C13.0448 27.8439 13.6358 28.4349 14.3648 28.4349Z" fill="#9C9C9C"/>
</svg>
