<svg width="612" height="32" viewBox="0 0 612 32" fill="none" xmlns="http://www.w3.org/2000/svg">
<path d="M40.0246 3L41.1534 1.34905L40.0246 0.577159L38.8957 1.34905L40.0246 3ZM78.0491 29L76.9202 30.651L78.0491 31.4228L79.178 30.651L78.0491 29ZM116.074 3L117.203 1.34905L116.074 0.577159L114.945 1.34905L116.074 3ZM154.098 29L152.969 30.651L154.098 31.4228L155.227 30.651L154.098 29ZM192.123 3L193.252 1.34905L192.123 0.577159L190.994 1.34905L192.123 3ZM230.147 29L229.018 30.651L230.147 31.4228L231.276 30.651L230.147 29ZM268.172 3L269.301 1.34905L268.172 0.577159L267.043 1.34905L268.172 3ZM306.196 29L305.068 30.651L306.196 31.4228L307.325 30.651L306.196 29ZM344.221 3L345.35 1.34905L344.221 0.577159L343.092 1.34905L344.221 3ZM382.246 29L381.117 30.651L382.25 31.4256L383.38 30.6472L382.246 29ZM420 3L421.129 1.34939L419.996 0.57415L418.866 1.35281L420 3ZM458 29L456.871 30.6506L458 31.4233L459.129 30.6506L458 29ZM496 3L497.129 1.34939L496 0.57666L494.871 1.34939L496 3ZM534 29L532.871 30.6506L534 31.4233L535.129 30.6506L534 29ZM572 3L573.129 1.34939L572 0.57666L570.871 1.34939L572 3ZM3.12887 30.651L41.1534 4.65095L38.8957 1.34905L0.871129 27.349L3.12887 30.651ZM38.8957 4.65095L76.9202 30.651L79.178 27.349L41.1534 1.34905L38.8957 4.65095ZM79.178 30.651L117.203 4.65095L114.945 1.34905L76.9202 27.349L79.178 30.651ZM114.945 4.65095L152.969 30.651L155.227 27.349L117.203 1.34905L114.945 4.65095ZM155.227 30.651L193.252 4.65095L190.994 1.34905L152.969 27.349L155.227 30.651ZM190.994 4.65095L229.018 30.651L231.276 27.349L193.252 1.34905L190.994 4.65095ZM231.276 30.651L269.301 4.65095L267.043 1.34905L229.018 27.349L231.276 30.651ZM267.043 4.65095L305.068 30.651L307.325 27.349L269.301 1.34905L267.043 4.65095ZM307.325 30.651L345.35 4.65095L343.092 1.34905L305.068 27.349L307.325 30.651ZM344.221 3C343.092 4.65095 343.092 4.65101 343.092 4.65114C343.093 4.65126 343.093 4.65144 343.093 4.65168C343.095 4.65302 343.094 4.65202 343.096 4.65385C343.099 4.65587 343.103 4.65855 343.109 4.66248C343.12 4.67026 343.137 4.68145 343.159 4.69672C343.203 4.72708 343.269 4.77206 343.356 4.8314C343.529 4.94991 343.786 5.12515 344.117 5.35168C344.78 5.80481 345.743 6.46348 346.945 7.2856C349.35 8.92984 352.711 11.2279 356.536 13.8433C364.186 19.0741 373.692 25.5741 381.117 30.651L383.374 27.349C375.95 22.2722 366.443 15.7722 358.794 10.5414C354.969 7.92603 351.608 5.62794 349.203 3.98369C348.001 3.16156 347.037 2.50291 346.375 2.04978C346.043 1.82318 345.787 1.64805 345.614 1.52949C345.527 1.47028 345.461 1.42504 345.417 1.39481C345.395 1.37979 345.378 1.3681 345.367 1.36057C345.361 1.35684 345.357 1.35376 345.354 1.35194C345.351 1.34983 345.353 1.3514 345.351 1.34977C345.351 1.34953 345.35 1.34935 345.35 1.34923C345.35 1.34911 345.35 1.34905 344.221 3ZM383.38 30.6472L421.134 4.64719L418.866 1.35281L381.111 27.3528L383.38 30.6472ZM418.871 4.65061L456.871 30.6506L459.129 27.3494L421.129 1.34939L418.871 4.65061ZM459.129 30.6506L497.129 4.65061L494.871 1.34939L456.871 27.3494L459.129 30.6506ZM494.871 4.65061L532.871 30.6506L535.129 27.3494L497.129 1.34939L494.871 4.65061ZM535.129 30.6506L573.129 4.65061L570.871 1.34939L532.871 27.3494L535.129 30.6506ZM570.871 4.65061L608.871 30.6506L611.129 27.3494L573.129 1.34939L570.871 4.65061Z" fill="white"/>
</svg>
