<svg width="627" height="46" viewBox="0 0 627 46" fill="none" xmlns="http://www.w3.org/2000/svg">
<path d="M43.5874 10L48.0577 3.36551L43.5874 0.353448L39.1171 3.36551L43.5874 10ZM82.1748 36L77.7045 42.6345L82.1748 45.6466L86.6451 42.6345L82.1748 36ZM120.762 10L125.233 3.3655L120.762 0.353448L116.292 3.36551L120.762 10ZM159.35 36L154.879 42.6345L159.35 45.6466L163.82 42.6345L159.35 36ZM197.937 10L202.407 3.36551L197.937 0.353447L193.467 3.36551L197.937 10ZM236.524 36L232.054 42.6345L236.524 45.6466L240.995 42.6345L236.524 36ZM275.112 10L279.582 3.3655L275.112 0.353449L270.642 3.36551L275.112 10ZM313.699 36L309.229 42.6345L313.699 45.6465L318.17 42.6345L313.699 36ZM352.287 10L356.757 3.36551L352.287 0.353447L347.816 3.36551L352.287 10ZM390.874 36L386.404 42.6345L390.89 45.6573L395.366 42.6197L390.874 36ZM429.187 10L433.66 3.36684L429.173 0.341707L424.695 3.38033L429.187 10ZM467.75 36L463.278 42.6332L467.75 45.6485L472.222 42.6332L467.75 36ZM506.312 10L510.785 3.36684L506.312 0.351501L501.84 3.36684L506.312 10ZM544.875 36L540.403 42.6332L544.875 45.6485L549.347 42.6332L544.875 36ZM583.437 10L587.91 3.36684L583.437 0.351501L578.965 3.36684L583.437 10ZM9.47029 42.6345L48.0577 16.6345L39.1171 3.36551L0.529712 29.3655L9.47029 42.6345ZM39.1171 16.6345L77.7045 42.6345L86.6451 29.3655L48.0577 3.36551L39.1171 16.6345ZM86.6451 42.6345L125.233 16.6345L116.292 3.36551L77.7045 29.3655L86.6451 42.6345ZM116.292 16.6345L154.879 42.6345L163.82 29.3655L125.233 3.3655L116.292 16.6345ZM163.82 42.6345L202.407 16.6345L193.467 3.36551L154.879 29.3655L163.82 42.6345ZM193.467 16.6345L232.054 42.6345L240.995 29.3655L202.407 3.36551L193.467 16.6345ZM240.995 42.6345L279.582 16.6345L270.642 3.36551L232.054 29.3655L240.995 42.6345ZM270.642 16.6345L309.229 42.6345L318.17 29.3655L279.582 3.3655L270.642 16.6345ZM318.17 42.6345L356.757 16.6345L347.816 3.36551L309.229 29.3655L318.17 42.6345ZM352.287 10C347.816 16.6345 347.817 16.6346 347.817 16.6347C347.817 16.6348 347.817 16.635 347.818 16.6352C348.044 16.7879 347.593 16.4842 347.821 16.6374C347.824 16.6395 347.828 16.642 347.834 16.646C347.845 16.6538 347.862 16.665 347.884 16.6803C347.929 16.7105 347.996 16.7557 348.084 16.8149C348.26 16.9335 348.52 17.1086 348.856 17.3352C349.529 17.7884 350.506 18.447 351.727 19.2691C354.167 20.9134 357.578 23.2115 361.459 25.8269C369.222 31.0577 378.869 37.5577 386.404 42.6345L395.344 29.3655C387.81 24.2887 378.163 17.7887 370.4 12.5579C366.518 9.94248 363.107 7.64442 360.667 6.00015C359.447 5.17803 358.47 4.51937 357.797 4.06624C357.461 3.83974 357.201 3.66441 357.025 3.54595C356.937 3.48668 356.87 3.44156 356.825 3.41127C356.803 3.39638 356.785 3.38443 356.774 3.37703C356.77 3.37401 356.763 3.36951 356.761 3.3684C356.674 3.30958 356.845 3.42457 356.758 3.36623C356.758 3.36599 356.757 3.36581 356.757 3.36569C356.757 3.36557 356.757 3.36551 352.287 10ZM395.366 42.6197L433.68 16.6197L424.695 3.38033L386.382 29.3803L395.366 42.6197ZM424.715 16.6332L463.278 42.6332L472.222 29.3668L433.66 3.36684L424.715 16.6332ZM472.222 42.6332L510.785 16.6332L501.84 3.36684L463.278 29.3668L472.222 42.6332ZM501.84 16.6332L540.403 42.6332L549.347 29.3668L510.785 3.36684L501.84 16.6332ZM549.347 42.6332L587.91 16.6332L578.965 3.36684L540.403 29.3668L549.347 42.6332ZM578.965 16.6332L617.528 42.6332L626.472 29.3668L587.91 3.36684L578.965 16.6332Z" fill="white"/>
</svg>
