<svg width="52" height="52" viewBox="0 0 52 52" fill="none" xmlns="http://www.w3.org/2000/svg">
<g clip-path="url(#clip0_1612_2268)">
<path d="M41.992 42V41.9986H42V30.2626C42 24.5213 40.764 20.0986 34.052 20.0986C30.8254 20.0986 28.66 21.8693 27.776 23.548H27.6827V20.6346H21.3187V41.9986H27.9454V31.42C27.9454 28.6346 28.4734 25.9413 31.9227 25.9413C35.3214 25.9413 35.372 29.12 35.372 31.5986V42H41.992Z" fill="white"/>
<path d="M10.5283 20.6367H17.1629V42.0007H10.5283V20.6367Z" fill="white"/>
<path d="M13.8427 10C11.7213 10 10 11.7213 10 13.8427C10 15.964 11.7213 17.7213 13.8427 17.7213C15.964 17.7213 17.6853 15.964 17.6853 13.8427C17.684 11.7213 15.9627 10 13.8427 10V10Z" fill="white"/>
</g>
<defs>
<clipPath id="clip0_1612_2268">
<rect width="32" height="32" fill="white" transform="translate(10 10)"/>
</clipPath>
</defs>
</svg>
