<svg width="48" height="48" viewBox="0 0 48 48" fill="none" xmlns="http://www.w3.org/2000/svg">
<path d="M22 9.99984H12C10.9391 9.99984 9.92172 10.4213 9.17157 11.1714C8.42143 11.9216 8 12.939 8 13.9998V35.9998C8 37.0607 8.42143 38.0781 9.17157 38.8283C9.92172 39.5784 10.9391 39.9998 12 39.9998H34C35.0609 39.9998 36.0783 39.5784 36.8284 38.8283C37.5786 38.0781 38 37.0607 38 35.9998V25.9998L22 9.99984ZM35.172 7.17184C35.541 6.7898 35.9824 6.48507 36.4704 6.27543C36.9584 6.06579 37.4833 5.95545 38.0144 5.95083C38.5455 5.94622 39.0722 6.04743 39.5638 6.24855C40.0554 6.44967 40.502 6.74669 40.8776 7.12226C41.2531 7.49783 41.5502 7.94443 41.7513 8.43602C41.9524 8.92761 42.0536 9.45432 42.049 9.98544C42.0444 10.5166 41.934 11.0414 41.7244 11.5295C41.5148 12.0175 41.21 12.4588 40.828 12.8278L23.656 29.9998H18V24.3438L35.172 7.17184Z" stroke="#2C2F36" stroke-width="2" stroke-linecap="round" stroke-linejoin="round"/>
</svg>
