<svg width="96" height="96" viewBox="0 0 96 96" fill="none" xmlns="http://www.w3.org/2000/svg">
    <g clip-path="url(#clip0_7494_13550)">
        <rect width="96" height="96" rx="18.375" fill="#323232"/>
        <path d="M16.2735 48C16.2735 34.083 27.5556 22.801 41.4726 22.801C55.3897 22.801 66.6717 34.083 66.6717 48C66.6717 48.8884 67.3919 49.6085 68.2802 49.6085C69.1685 49.6085 69.8886 48.8884 69.8886 48C69.8886 32.3063 57.1664 19.584 41.4726 19.584C25.7789 19.584 13.0566 32.3063 13.0566 48C13.0566 63.6938 25.7789 76.416 41.4726 76.416C42.361 76.416 43.0811 75.6959 43.0811 74.8076C43.0811 73.9193 43.8726 73.248 41.2806 73.344C27.3636 73.344 16.2735 61.9171 16.2735 48Z" fill="#ECCA19"/>
        <path d="M40.1323 48C40.1323 48.7403 40.7324 49.3404 41.4726 49.3404C42.2129 49.3404 42.813 48.7403 42.813 48C42.813 47.1117 43.5331 46.3916 44.4215 46.3916C44.4666 46.3916 44.5113 46.3935 44.5555 46.3971C44.5997 46.3935 44.6444 46.3916 44.6895 46.3916H53.536C54.4244 46.3916 55.1445 47.1117 55.1445 48C55.1445 48.8884 54.4244 49.6085 53.536 49.6085H45.738C45.0878 51.3317 43.4234 52.5573 41.4726 52.5573C38.9557 52.5573 36.9154 50.517 36.9154 48C36.9154 46.0493 38.141 44.3849 39.8642 43.7347V28.1625C39.8642 27.2741 40.5843 26.554 41.4726 26.554C42.361 26.554 43.0811 27.2741 43.0811 28.1625V44.5151C43.0811 44.6064 43.0735 44.696 43.0589 44.7831C43.0735 44.8703 43.0811 44.9599 43.0811 45.0512C43.0811 45.9395 42.361 46.6597 41.4726 46.6597C40.7324 46.6597 40.1323 47.2598 40.1323 48Z" fill="#ECCA19"/>
        <path d="M41.5684 74.88C46.8484 75.072 52.3204 68.544 56.8324 68.544C63.9364 68.544 66.2994 75.072 71.8084 75.072C78.9124 75.072 80.3445 68.544 86.7844 68.544C92.1604 68.544 98.3684 74.304 98.4964 75.456" stroke="#ECCA19" stroke-width="3.072" stroke-linecap="round" stroke-linejoin="bevel"/>
    </g>
    <defs>
        <clipPath id="clip0_7494_13550">
            <rect width="96" height="96" rx="18.375" fill="white"/>
        </clipPath>
    </defs>
</svg>
