<svg width="192" height="184" viewBox="0 0 192 184" fill="none" xmlns="http://www.w3.org/2000/svg">
<path d="M25.3325 42.5222C26.388 42.5222 27.4434 42.5222 28.5428 42.5222C32.0609 42.5652 35.491 42.953 38.9212 43.6423C41.9555 44.2454 44.9899 44.7624 47.9803 45.3224C49.2116 45.5809 50.4429 45.8394 51.6743 46.141C52.246 46.2702 52.202 46.2702 52.4219 45.7102C53.8291 41.5744 55.2363 37.4817 56.6875 33.3459C58.0068 29.6409 59.3701 25.979 60.6894 22.3171C61.6569 19.646 62.6243 17.0181 63.5918 14.347C63.9876 13.3131 64.3834 13.0977 65.5268 13.27C68.9569 13.8301 72.3431 14.4763 75.6853 15.3379C78.7636 16.1134 81.8419 16.8457 84.9202 17.6212C85.448 17.7504 85.9757 17.9228 86.5034 18.052C86.8992 18.1813 86.8552 18.1382 86.9432 17.7504C87.207 16.1564 87.4709 14.6055 87.7347 13.0115C87.8227 12.4515 87.9986 11.8914 88.1305 11.3313C88.2185 10.9436 88.1305 10.642 87.8227 10.3836C86.8112 9.52193 85.7558 8.61722 84.7883 7.7556C84.4365 7.41095 84.0847 7.0663 83.7329 6.72165C82.9413 5.73078 83.1612 4.78299 84.3486 4.26602C85.1401 3.92137 86.0197 3.70596 86.8992 3.6198C87.7347 3.53364 88.5703 3.44747 89.4058 3.36131C89.5817 3.36131 89.7576 3.31823 89.9335 3.31823C92.4402 3.40439 94.8589 2.9305 97.2775 2.19812C98.7288 1.7673 100.224 1.42265 101.719 1.16417C103.654 0.819517 105.633 0.862598 107.612 0.991842C108.843 1.078 110.119 1.16417 111.35 1.16417C112.713 1.12109 114.076 0.948761 115.396 0.819517C117.331 0.647192 119.266 0.474867 121.201 0.21638C123.795 -0.0851888 126.39 -0.0851888 129.028 -0.0421076C130.568 0.000973649 132.151 0.173299 133.69 0.302542C135.185 0.431786 136.68 0.604111 138.131 0.819517C140.77 1.20725 143.321 1.89655 145.871 2.58585C148.818 3.36131 151.676 4.35218 154.403 5.6877C156.601 6.76473 158.756 7.88484 160.735 9.30652C163.945 11.5467 167.112 13.8731 170.102 16.4149C172.829 18.8275 175.467 21.3262 177.754 24.1265C179.293 25.979 180.744 27.8745 182.108 29.8563C182.899 30.9764 183.559 32.1827 184.13 33.3889C185.274 35.7584 186.373 38.171 187.429 40.6266C188.396 42.9099 189.056 45.2794 189.671 47.6919C190.155 49.6306 190.683 51.5692 191.079 53.5079C191.387 55.188 191.606 56.9113 191.738 58.6345C191.87 60.3147 191.958 61.9949 192.002 63.6751C192.09 65.9153 191.958 68.1555 191.606 70.3957C191.255 72.7652 190.903 75.0916 190.595 77.4611C190.243 80.3044 189.54 83.1047 188.792 85.8619C188.176 88.1452 187.473 90.4285 186.769 92.7118C185.67 96.1583 184.57 99.6048 183.383 103.051C182.459 105.765 181.448 108.436 180.524 111.151C179.073 115.502 177.93 119.939 177.27 124.463C176.918 126.961 176.611 129.46 176.303 132.002C176.171 133.036 176.127 134.027 176.039 135.061C175.995 135.578 176.039 135.578 176.479 135.793C177.93 136.439 179.381 137.042 180.832 137.689C181.14 137.818 181.492 138.033 181.8 138.206C182.547 138.636 183.339 139.11 184.087 139.541C184.834 139.972 185.054 140.489 184.79 141.264C183.031 147.425 181.272 153.629 179.205 159.703C177.534 164.614 175.907 169.526 174.324 174.437C173.664 176.462 173.092 178.53 172.477 180.554C172.169 181.502 171.817 182.407 171.465 183.312C171.333 183.742 171.026 183.958 170.586 184.001C170.234 184.044 169.926 184.044 169.574 184.001C169.047 183.958 168.563 183.829 168.035 183.742C166.012 183.225 163.945 182.709 161.923 182.235C159.548 181.631 157.173 181.071 154.798 180.511C151.148 179.607 147.498 178.702 143.848 177.797C143.716 177.754 143.584 177.711 143.453 177.711C143.277 177.668 143.189 177.754 143.189 177.926C143.145 178.228 143.145 178.53 143.101 178.874C143.057 179.865 143.013 180.856 142.969 181.847C142.969 182.062 142.925 182.278 142.881 182.493C142.705 183.053 142.441 183.182 141.825 183.182C141.386 183.182 140.99 183.225 140.55 183.269C139.803 183.312 139.011 183.441 138.263 183.441C135.977 183.441 133.69 183.484 131.403 183.613C130.963 183.656 130.524 183.57 130.128 183.57C129.248 183.57 128.413 183.527 127.533 183.527C124.499 183.484 121.464 183.441 118.43 183.398C115.66 183.312 112.845 183.182 110.075 183.139C107.788 183.096 105.545 183.053 103.258 183.01C101.631 182.967 100.004 182.924 98.377 182.881C94.4191 182.795 90.5052 182.665 86.5474 182.622C83.469 182.579 80.4347 182.536 77.3563 182.493C75.0696 182.493 72.8268 182.493 70.54 182.493C67.7695 182.493 64.999 182.493 62.2285 182.45C59.0183 182.364 55.808 182.235 52.5978 182.148C52.5538 182.148 52.5538 182.148 52.5098 182.148C50.267 182.105 48.0242 182.019 45.7815 181.976C42.4393 181.933 39.0971 181.933 35.7989 181.933C34.9633 181.933 34.1717 181.976 33.3362 181.976C32.0169 181.933 30.6976 181.847 29.4223 181.761C29.1145 181.761 28.8067 181.718 28.4548 181.718C27.5313 181.718 27.1795 181.459 27.0916 180.511C27.0036 179.908 27.0036 179.262 27.0036 178.659C27.0476 177.108 27.1356 175.6 27.2235 174.092C27.2235 173.834 27.2675 173.618 27.2675 173.36C27.3554 171.077 27.4874 168.793 27.5753 166.51C27.6633 164.83 27.7512 163.193 27.8392 161.513C27.9271 159.789 28.103 158.109 28.191 156.386C28.2789 154.275 28.3229 152.164 28.4109 150.053C28.4109 149.234 28.4109 148.459 28.4109 147.64C28.4109 145.271 28.103 142.901 27.6633 140.575C27.4434 139.326 27.1356 138.076 26.7838 136.87C26.5199 136.008 26.1681 135.147 25.7723 134.328C25.0247 132.777 24.1892 131.27 23.4416 129.762C22.0783 126.961 20.759 124.118 19.4397 121.318C18.3403 118.948 17.1969 116.622 16.0975 114.252C14.9542 111.797 13.8108 109.341 12.7114 106.842C11.3041 103.698 10.1608 100.423 9.06135 97.1492C7.43424 92.4102 5.80712 87.6282 4.13602 82.8893C2.81674 79.1412 1.93722 75.3932 1.32155 71.5158C1.10167 70.1372 0.793835 68.7586 0.573954 67.38C0.354073 65.9153 0.222145 64.4074 0.0902161 62.9427C0.0462399 62.6842 0.0462399 62.4257 0.0462399 62.1672C-0.0856886 59.5393 0.0462399 56.9113 0.661906 54.3695C0.881787 53.4648 1.14564 52.5601 1.49745 51.6985C1.80529 50.9661 2.1571 50.2768 2.59686 49.6306C4.53181 46.701 7.34628 45.0209 10.7324 44.1162C12.6674 43.5992 14.6024 43.0822 16.6253 42.8237C17.8126 42.6945 18.956 42.5652 20.1433 42.5222C21.9024 42.5222 23.6175 42.5652 25.3325 42.5222C25.3325 42.5652 25.3325 42.5652 25.3325 42.5222ZM151.94 114.123C152.204 113.951 152.468 113.822 152.731 113.649C153.039 113.434 153.259 113.175 153.523 112.96C153.963 112.615 154.315 112.185 154.622 111.711C155.238 110.634 155.854 109.513 156.557 108.48C157.745 106.67 158.712 104.775 159.548 102.793C159.768 102.233 159.944 101.673 160.12 101.07C160.471 99.6479 160.427 98.2262 160.207 96.8476C159.9 94.3489 159.328 91.8502 158.58 89.4376C158.536 89.3515 158.536 89.2653 158.492 89.1791C158.448 89.1361 158.448 89.093 158.404 89.0499C158.36 89.093 158.316 89.1361 158.272 89.2222C158.229 89.2653 158.229 89.3515 158.229 89.3946C157.525 91.764 156.733 94.0904 155.766 96.3737C154.93 98.3124 154.095 100.208 153.215 102.104C151.72 105.292 150.137 108.48 148.598 111.668C148.378 112.141 148.29 112.701 148.202 113.218C148.202 113.305 148.246 113.391 148.29 113.52C148.334 113.477 148.422 113.434 148.466 113.348C148.862 112.745 149.257 112.098 149.697 111.538C150.049 111.064 150.489 110.978 150.797 111.237C151.104 111.495 151.104 111.797 150.753 112.314C150.269 113.003 149.829 113.735 149.389 114.468C149.345 114.511 149.345 114.683 149.389 114.683C149.521 114.726 149.653 114.769 149.741 114.769C149.785 114.769 149.829 114.64 149.917 114.554C150.577 113.692 151.236 112.874 151.896 112.012C152.072 111.754 152.424 111.711 152.688 111.84C152.951 111.969 153.083 112.271 152.995 112.572C152.863 112.917 152.688 113.218 152.468 113.52C152.336 113.692 152.16 113.908 151.94 114.123C151.94 114.166 151.94 114.166 151.94 114.123C151.896 114.166 151.896 114.166 151.896 114.209C151.94 114.166 151.94 114.166 151.94 114.123ZM173.62 101.242C173.488 101.371 173.312 101.457 173.18 101.63C171.905 103.224 170.586 104.818 169.311 106.455C167.2 109.126 165.353 112.055 163.418 114.856C162.802 115.76 162.142 116.579 161.395 117.354C160.955 117.828 160.515 118.345 160.076 118.776C159.284 119.595 158.448 120.456 157.613 121.232C157.261 121.533 156.821 121.792 156.382 121.921C154.403 122.524 152.116 120.93 151.94 118.819C151.852 117.871 152.072 117.01 152.38 116.148C152.424 115.976 152.512 115.803 152.556 115.631C152.556 115.588 152.424 115.502 152.424 115.545C152.292 115.588 152.204 115.674 152.072 115.717C150.665 116.45 149.301 116.32 148.026 115.502C147.191 115.028 146.795 114.252 146.795 113.348C146.795 112.572 146.971 111.797 147.322 111.107C148.73 108.178 150.137 105.248 151.544 102.319C153.083 99.0878 154.622 95.8998 155.722 92.4964C156.118 91.247 156.557 89.9977 156.953 88.7483C157.173 88.1021 157.305 87.4559 157.481 86.8097C157.569 86.5081 157.569 86.2065 157.481 85.905C157.217 85.0003 156.909 84.1386 156.689 83.2339C155.854 80.3475 155.018 77.418 154.842 74.4023C154.754 72.9806 154.842 71.5589 154.842 70.1372C154.842 69.6203 154.974 69.1033 154.842 68.6294C154.579 67.4662 154.315 66.3461 153.787 65.2691C153.743 65.1829 153.699 65.0967 153.655 65.0106C153.611 64.9675 153.567 64.9244 153.523 64.8813C153.479 64.9244 153.391 64.9675 153.347 65.0536C153.303 65.0967 153.303 65.1829 153.259 65.226C152.6 66.8631 151.94 68.5432 151.324 70.1803C150.577 72.0759 149.829 74.0145 149.038 75.867C148.334 77.5903 147.586 79.2705 146.795 80.9506C146.135 82.4154 145.387 83.8802 144.684 85.3449C144.64 85.4311 144.596 85.5603 144.552 85.6465C143.892 87.3267 143.233 89.0068 142.573 90.6439C141.825 92.4533 141.078 94.2627 140.33 96.0721C139.495 98.097 138.703 100.122 137.912 102.147C137.824 102.319 137.78 102.534 137.692 102.707C136.944 104.775 136.196 106.886 135.449 108.953C135.009 110.117 134.569 111.237 134.13 112.4C133.69 113.649 133.206 114.856 132.766 116.105C132.722 116.234 132.678 116.406 132.634 116.536C132.546 116.708 132.59 116.88 132.722 117.01C133.162 117.527 133.602 118.087 134.042 118.604C135.449 120.284 136.636 122.093 137.384 124.118C137.472 124.333 137.604 124.463 137.824 124.549C138.835 124.98 139.803 125.41 140.814 125.841C143.628 127.091 146.311 128.555 148.51 130.753C148.73 130.968 148.95 131.011 149.257 131.011C150.093 131.011 150.928 131.011 151.764 131.011C152.775 131.011 153.787 131.011 154.842 131.054C155.986 131.097 157.129 131.226 158.316 131.27C160.735 131.356 163.11 131.7 165.441 132.26C165.704 132.303 165.968 132.39 166.232 132.476C166.452 132.519 166.584 132.433 166.584 132.217C166.584 131.959 166.584 131.743 166.584 131.485C166.672 129.934 166.716 128.34 166.936 126.789C167.332 123.687 167.991 120.672 168.739 117.656C170.058 112.357 171.685 107.187 173.488 102.017C173.488 101.759 173.532 101.5 173.62 101.242C173.62 101.199 173.62 101.113 173.664 101.07C173.62 101.113 173.62 101.156 173.62 101.242ZM190.595 65.3983C190.551 63.8474 190.507 62.8134 190.463 61.7795C190.463 61.521 190.375 61.4779 190.111 61.4779C188.66 61.521 187.253 61.4779 185.89 60.9609C184.262 60.3147 182.767 59.41 181.536 58.1607C179.733 56.3512 178.414 54.1972 177.446 51.8277C176.699 50.0183 176.127 48.0796 175.511 46.2271C174.983 44.6762 174.456 43.1684 173.708 41.7036C172.785 39.8942 171.421 38.4725 169.574 37.5247C169.091 37.3093 168.651 37.0508 168.167 36.8354C166.76 36.2323 165.309 35.6292 163.857 35.026C160.867 33.7336 158.404 31.7949 156.513 29.2101C155.414 27.7022 154.535 26.022 153.655 24.385C151.632 20.6369 150.665 16.6303 150.489 12.4515C150.401 10.4697 150.533 8.48798 150.972 6.54932C151.104 5.9031 151.104 5.9031 150.489 5.6877C149.038 5.2138 147.586 4.73991 146.091 4.26602C145.871 4.17985 145.607 4.17985 145.387 4.13677C145.344 4.35218 145.344 4.56759 145.3 4.78299C145.3 4.86915 145.256 4.91224 145.256 4.9984C144.728 7.36787 143.716 9.56501 142.133 11.4175C140.726 13.0546 139.231 14.6486 137.56 16.0703C136.24 17.1904 135.185 18.5259 134.262 19.9476C133.294 21.4554 133.206 23.0494 133.998 24.6434C134.305 25.2466 134.701 25.8497 135.009 26.4529C135.757 27.8315 136.504 29.2101 136.812 30.761C136.9 31.278 137.032 31.838 136.944 32.355C136.724 33.7767 136.021 35.026 134.921 35.9738C133.558 37.137 131.975 37.2232 130.348 36.62C129.116 36.1461 127.929 35.4999 126.961 34.5521C126.61 34.2075 126.17 33.8628 125.774 33.5182C123.311 31.4934 121.552 28.9516 120.233 26.1082C119.398 24.2557 119.178 22.3601 119.705 20.3784C120.541 17.2766 121.904 14.4763 123.839 11.8914C124.015 11.676 124.191 11.4606 124.411 11.2452C124.719 10.9867 125.07 10.9867 125.334 11.2021C125.598 11.4175 125.598 11.7622 125.334 12.1068C125.114 12.3653 124.895 12.6238 124.719 12.8823C122.96 15.3379 121.684 18.0089 121.025 20.9815C120.761 22.1017 120.761 23.1787 121.113 24.2557C121.992 26.9268 123.443 29.2531 125.466 31.2349C126.258 32.0534 127.181 32.7427 128.017 33.5613C128.852 34.3798 129.908 34.8968 130.963 35.2845C131.359 35.4568 131.799 35.4568 132.239 35.4999C132.327 35.4999 132.458 35.4568 132.546 35.4138C132.502 35.3276 132.458 35.2414 132.415 35.1553C131.975 34.6383 131.491 34.1644 131.051 33.6474C130.875 33.432 130.699 33.1735 130.611 32.915C130.436 32.5273 130.568 32.1396 130.875 31.9673C131.183 31.7949 131.491 31.9673 131.799 32.3119C132.283 32.915 132.722 33.5182 133.294 34.0352C134.218 34.9399 134.13 34.9399 134.877 33.7767L134.921 33.7336C134.921 33.6474 134.921 33.4751 134.877 33.4751C133.822 32.915 133.25 31.9242 132.59 31.0625C132.458 30.8902 132.371 30.6748 132.327 30.4594C132.239 30.1148 132.415 29.8563 132.678 29.727C132.986 29.5978 133.206 29.6839 133.426 29.8994C133.514 30.0286 133.602 30.1578 133.69 30.2871C134.218 30.8902 134.745 31.4934 135.273 32.0965C135.317 32.1827 135.449 32.1827 135.581 32.2257C135.625 32.1396 135.669 32.0103 135.625 31.9242C135.581 31.6226 135.581 31.3641 135.493 31.0625C135.273 30.0717 134.921 29.167 134.437 28.2623C133.954 27.3576 133.47 26.4959 132.942 25.6343C132.151 24.3419 132.019 22.9633 132.195 21.4985C132.283 20.9385 132.415 20.3784 132.678 19.9045C133.514 18.3967 134.525 16.975 135.801 15.8118C137.34 14.4332 138.791 12.9684 140.198 11.4606C141.825 9.78042 142.925 7.88484 143.628 5.6877C143.804 5.17072 143.892 4.65375 143.98 4.13677C144.068 3.6198 143.98 3.57672 143.497 3.44747C142.617 3.23207 141.737 3.01666 140.858 2.80125C136.944 1.89655 132.986 1.59498 128.984 1.37957C126.874 1.25033 124.719 1.42265 122.608 1.50882C121.904 1.5519 121.201 1.68114 120.497 1.72422C120.277 1.72422 120.145 1.7673 120.101 2.02579C120.013 2.67201 119.661 3.18899 119.398 3.74904C118.958 4.56759 118.474 5.38613 118.034 6.20467C117.331 7.45403 116.495 8.57414 115.484 9.56501C114.472 10.5128 113.241 10.9005 111.878 10.599C109.987 10.2112 108.579 9.17728 107.612 7.58327C107.04 6.63549 106.601 5.64462 106.117 4.69683C105.853 4.13677 105.589 3.57672 105.281 3.01666C105.105 2.67201 104.797 2.37044 104.402 2.41352C103.742 2.41352 103.082 2.4566 102.423 2.58585C100.708 2.9305 98.9926 3.31823 97.3215 3.79212C95.3426 4.35218 93.3197 4.73991 91.2528 4.78299C90.5052 4.82607 89.7576 4.86915 89.01 4.91224C88.5263 4.95532 87.9986 4.9984 87.5148 5.04148C86.7673 5.12764 86.0197 5.17072 85.316 5.42921C84.7443 5.64462 84.7004 5.73078 85.1401 6.20467C85.36 6.42008 85.5799 6.63548 85.7998 6.85089C86.8992 7.84176 87.9986 8.83263 89.098 9.8235C89.6257 10.2543 89.7576 10.8144 89.6257 11.4606C89.4938 12.193 89.2739 12.8823 89.142 13.6146C89.054 13.9593 89.098 14.0024 89.4498 13.9162C90.6811 13.6577 91.8685 13.7439 93.0998 13.9593C95.8703 14.4763 98.0252 15.8549 99.2125 18.3967C99.6962 19.3875 100.356 20.2492 101.103 21.0677C101.587 21.5847 102.071 22.1447 102.511 22.7048C103.566 24.0403 104.182 25.5481 104.094 27.2714C104.006 28.9085 103.522 30.4594 102.555 31.838C102.027 32.5704 101.499 33.3459 100.972 34.0782C100.796 34.3367 100.796 34.4229 101.103 34.466C101.587 34.5521 102.027 34.6814 102.511 34.7245C103.434 34.8106 104.358 34.8968 105.281 34.8968C106.161 34.9399 107.04 34.9399 107.92 34.8968C109.239 34.8537 110.558 34.5952 111.834 34.8537C112.713 35.026 113.549 35.1983 114.428 35.4138C116.847 36.0169 119.134 36.8785 121.201 38.2571C122.3 38.9464 123.267 39.765 124.191 40.6266C124.367 40.7989 124.455 40.9282 124.763 40.7127C125.862 39.808 127.181 39.765 128.501 39.8511C129.556 39.8942 130.48 40.3681 131.403 40.7558C133.03 41.402 134.086 42.5652 134.789 44.1592C135.317 45.3655 135.537 46.6149 135.669 47.9073C135.845 49.4582 135.493 50.8799 134.569 52.1293C133.426 53.6371 131.887 54.1972 130.04 53.8956C128.677 53.6802 127.401 53.0771 126.258 52.3016C125.95 52.0862 125.862 52.1293 125.774 52.4739C125.73 52.7324 125.686 52.9909 125.686 53.2494C125.686 55.188 126.214 56.9113 127.489 58.4191C129.336 60.6163 131.447 62.598 133.822 64.192C135.713 65.4845 137.736 66.4753 139.803 67.4662C140.022 67.5524 140.198 67.6385 140.418 67.7247C140.506 67.7678 140.594 67.7247 140.682 67.7247C140.638 67.6385 140.594 67.5954 140.55 67.5093C140.374 67.337 140.198 67.1646 140.022 66.9923C139.89 66.9061 139.803 66.7769 139.715 66.6477C139.495 66.3461 139.495 66.0445 139.671 65.786C139.89 65.5275 140.242 65.5275 140.594 65.743C140.726 65.8291 140.814 65.9584 140.946 66.0445C141.43 66.4323 141.913 66.7769 142.397 67.1646C142.573 67.2939 142.749 67.38 142.925 67.4662C143.145 67.5524 143.453 67.4231 143.54 67.2077C143.54 67.1646 143.365 66.9923 143.277 66.9492C142.529 66.3892 141.781 65.8291 141.078 65.2691C140.946 65.1829 140.858 65.0536 140.77 64.9244C140.594 64.6659 140.594 64.4074 140.814 64.192C141.034 63.9766 141.298 63.9335 141.562 64.0628C141.737 64.1489 141.913 64.2782 142.045 64.4074C142.529 64.7521 142.969 65.1398 143.453 65.4845C143.584 65.5706 143.716 65.6137 143.848 65.6568C143.848 65.5275 143.848 65.3552 143.804 65.226C143.497 64.1059 142.925 63.0719 142.221 62.1672C141.474 61.1763 140.594 60.2286 139.803 59.2808C138.967 58.2468 138.131 57.2559 137.296 56.222C136.812 55.6189 136.768 54.9726 136.988 54.2833C137.208 53.6802 137.56 53.1632 137.956 52.6893C139.275 51.2246 140.374 49.5875 141.386 47.9073C142.089 46.7872 142.441 45.5378 142.705 44.2885C142.837 43.7284 142.881 43.2115 143.013 42.6514C143.101 42.3068 143.409 42.1344 143.716 42.1775C144.024 42.2206 144.288 42.3929 144.332 42.6945C144.376 42.9099 144.376 43.1684 144.332 43.4269C144.112 45.0209 143.804 46.6149 142.969 48.0796C142.881 48.295 142.881 48.4243 143.057 48.5535C143.277 48.7259 143.497 48.8982 143.76 49.0705C144.288 49.4582 144.816 49.846 145.3 50.2768C147.059 51.9569 148.686 53.7664 150.093 55.7481C151.5 57.7298 152.775 59.7977 153.787 62.038C154.271 63.0719 154.71 64.1489 155.194 65.1829C155.238 65.3121 155.326 65.3983 155.414 65.4845C155.458 65.3983 155.502 65.2691 155.502 65.1829C155.81 64.1059 155.986 63.0288 156.382 61.9949C157.437 59.1515 158.976 56.5236 160.867 54.111C161.835 52.9047 162.934 51.7846 164.033 50.7507C164.517 50.3199 165.045 49.9752 165.661 49.846C166.056 49.7598 166.408 49.9321 166.496 50.2768C166.628 50.6214 166.452 50.923 166.012 51.0953C165.704 51.2246 165.353 51.3538 165.133 51.5692C164.341 52.3447 163.506 53.1201 162.758 53.9387C161.483 55.4034 160.383 56.9975 159.46 58.7207C158.58 60.3147 157.745 61.9518 157.305 63.7181C156.821 65.6568 156.426 67.6385 156.206 69.6203C156.118 70.5681 156.074 71.5158 156.074 72.4636C156.074 72.8944 156.162 72.9806 156.513 72.8083C158.097 72.119 159.812 71.8174 161.527 71.7312C162.626 71.6451 163.77 71.7312 164.825 71.9897C166.936 72.5498 168.299 73.9715 169.311 75.824C169.574 76.2979 169.662 76.8579 169.662 77.418C169.662 78.3227 169.442 79.1843 169.179 80.0459C168.695 81.7261 168.651 83.3632 169.267 85.0003C169.618 85.9911 169.838 87.0682 170.102 88.1021C170.41 89.3946 170.498 90.7731 170.234 92.0656C169.706 94.6935 168.211 96.8045 166.056 98.4416C165.133 99.1309 164.253 99.8633 163.33 100.553C162.89 100.897 162.406 101.199 161.879 101.414C161.615 101.543 161.439 101.673 161.351 101.931C160.735 103.87 159.856 105.765 158.844 107.532C157.745 109.427 156.601 111.28 155.414 113.132C154.666 114.339 154.095 115.588 153.611 116.923C153.435 117.397 153.391 117.957 153.303 118.474C153.303 118.517 153.347 118.561 153.347 118.604C153.391 118.561 153.435 118.561 153.435 118.517C153.831 117.871 154.183 117.268 154.579 116.622C154.71 116.45 154.798 116.234 154.974 116.062C155.194 115.846 155.546 115.803 155.81 115.976C156.074 116.148 156.118 116.406 156.03 116.665C155.986 116.837 155.898 117.01 155.81 117.139C155.282 118.044 154.71 118.948 154.183 119.853C154.051 120.068 154.139 120.241 154.403 120.327C154.622 120.413 154.579 120.198 154.622 120.111C154.974 119.121 155.502 118.216 156.206 117.397C156.294 117.268 156.425 117.139 156.513 117.053C156.777 116.88 157.129 116.88 157.349 117.053C157.569 117.268 157.613 117.527 157.481 117.785C157.393 117.957 157.261 118.13 157.173 118.302C156.777 118.948 156.425 119.595 156.03 120.284C155.986 120.327 156.03 120.456 156.03 120.542C156.074 120.499 156.162 120.499 156.206 120.456C156.909 119.853 157.569 119.25 158.229 118.604C158.756 118.087 159.152 117.484 159.68 117.01C161.395 115.373 162.582 113.391 163.901 111.495C164.473 110.634 165.001 109.772 165.617 108.953C167.332 106.67 169.003 104.344 170.806 102.104C171.861 100.768 172.961 99.4756 173.972 98.097C174.852 96.9338 175.555 95.7275 176.039 94.392C176.215 93.875 176.479 93.358 176.699 92.8841C177.754 90.8593 178.853 88.8776 180.568 87.3267C180.656 87.2405 180.744 87.1112 180.832 87.0251C181.844 85.7757 183.119 84.8279 184.394 83.8801C184.57 83.7509 184.746 83.6647 184.922 83.6217C185.23 83.5355 185.538 83.6647 185.67 83.9232C185.802 84.1817 185.802 84.4833 185.582 84.7418C185.45 84.9141 185.23 85.0433 185.054 85.1726C183.999 85.9481 182.987 86.7666 182.108 87.7144C181.624 88.2314 181.184 88.7914 180.656 89.3084C179.689 90.2562 179.073 91.3763 178.546 92.5395C178.194 93.3149 177.974 94.1335 177.622 94.909C176.83 96.8045 175.951 98.7001 175.247 100.639C174.412 102.879 173.664 105.162 172.917 107.446C170.982 113.391 169.311 119.379 168.255 125.54C168.123 126.229 168.035 126.918 167.947 127.565C167.903 127.909 167.947 127.952 168.299 127.823C168.387 127.78 168.475 127.78 168.563 127.737C169.354 127.263 170.234 127.22 171.114 127.263C172.301 127.306 173.532 127.392 174.676 127.823C175.027 127.952 175.071 127.909 175.115 127.565C175.247 126.703 175.379 125.841 175.511 124.98C176.039 121.275 176.874 117.656 177.886 114.037C178.853 110.634 180.129 107.273 181.316 103.913C182.459 100.596 183.559 97.2784 184.614 93.9612C185.406 91.5486 186.197 89.1361 186.857 86.6804C187.429 84.4833 188.088 82.3292 188.352 80.0459C188.528 78.3658 188.968 76.6856 189.232 75.0054C189.496 73.5407 189.715 72.0759 189.891 70.6111C190.331 68.6725 190.463 66.7769 190.595 65.3983ZM106.205 36.3615C104.841 36.2754 103.39 36.2323 101.939 36.0169C100.488 35.8015 99.0806 35.5861 97.7173 34.9829C96.7059 34.509 95.6944 34.0352 94.683 33.5182C93.5396 32.915 92.4402 32.2688 91.2968 31.6657C89.2299 30.5456 87.1191 29.4255 85.0522 28.2623C83.9967 27.7022 82.9853 27.056 81.9738 26.4098C81.4901 26.1082 81.0064 25.7205 80.6106 25.3327C79.775 24.4711 79.9949 23.4803 81.0943 23.0494C82.6335 22.4463 84.2166 21.9293 85.7998 21.3693C86.8112 21.0246 86.6793 21.3262 86.6793 20.2492C86.6793 19.6891 86.6793 19.646 86.1516 19.5168C83.9967 18.9136 81.8859 18.3536 79.7311 17.7935C78.1039 17.3627 76.4768 17.0611 74.8497 16.6303C71.7714 15.8118 68.6491 15.1656 65.4828 14.6055C65.043 14.5194 64.999 14.5624 64.8231 14.9502C64.5153 15.6825 64.2514 16.458 63.9876 17.1904C62.4924 21.3262 60.9532 25.462 59.502 29.5978C58.0068 33.8628 56.5116 38.1279 55.0164 42.3929C54.5767 43.6854 54.093 44.9347 53.6532 46.2271C53.5213 46.6149 53.5213 46.658 53.917 46.7441C55.1044 47.0888 56.3357 47.3903 57.5231 47.6919C59.0623 48.1227 60.6014 48.5535 62.1406 48.9843C62.4924 49.0705 62.8002 49.329 63.152 49.5013C63.3719 49.6306 63.4599 49.8029 63.4159 50.0614C63.3279 50.7076 63.284 51.3969 63.196 52.0431C63.1081 52.8617 62.9761 53.6802 62.8442 54.4987C62.8002 54.9296 62.8442 54.9726 63.152 55.0157C65.7906 55.3604 68.4292 55.7481 71.0678 56.0928C72.8268 56.3512 74.6298 56.5666 76.3889 56.8251C77.0485 56.9113 77.6642 57.1267 78.3238 57.2559C78.6756 57.3421 78.7196 57.299 78.7636 56.9544C78.8515 56.2651 78.9395 55.5758 78.9835 54.8865C79.2473 52.7324 80.0389 50.7938 81.2702 49.0274C82.2377 47.6488 83.513 46.5718 85.316 46.3564C86.1516 46.2271 86.8552 45.9687 87.4709 45.4517C88.2624 44.8485 89.098 44.2023 89.8456 43.5561C90.7251 42.7806 91.7805 42.2206 92.8799 41.8759C94.3751 41.359 95.9143 40.9712 97.5414 41.1866C98.9486 41.359 100.356 41.2728 101.719 40.9282C102.731 40.6697 103.786 40.4973 104.797 40.5404C106.732 40.6266 108.448 41.3159 110.031 42.3498C110.646 42.7376 111.262 43.0822 111.966 43.2976C112.405 43.4269 112.889 43.5561 113.329 43.6423C114.648 43.9438 115.792 44.547 116.759 45.4517C117.199 45.8825 117.639 46.2702 118.078 46.7441C120.629 49.4582 121.948 52.6463 122.08 56.3082C122.168 58.4622 121.816 60.6163 121.201 62.6842C120.233 65.9153 118.738 68.931 117.287 71.9466C117.111 72.2913 117.067 72.5067 117.243 72.8514C117.639 73.6699 117.726 74.5746 117.639 75.5224C117.551 76.6425 117.243 77.7626 116.803 78.7966C115.836 81.1229 114.076 82.3723 111.526 82.5877C111.262 82.6308 111.13 82.717 111.086 82.9754C110.954 83.4924 110.822 83.9663 110.69 84.4402C110.119 86.465 109.371 88.4468 108.14 90.2131C106.996 91.8502 105.589 93.1857 103.918 94.3058C103.61 94.5212 103.478 94.7366 103.478 95.1244C103.478 96.5891 103.654 98.0108 104.182 99.3463C104.402 99.8202 104.666 100.294 104.973 100.725C105.765 101.802 106.776 102.707 107.92 103.439C110.69 105.248 113.769 106.325 116.935 107.23C117.639 107.446 118.386 107.618 119.09 107.876C121.728 108.824 124.191 110.03 126.522 111.581C128.061 112.615 129.512 113.735 130.831 115.028C131.095 115.286 131.095 115.243 131.227 114.985C131.315 114.856 131.359 114.683 131.403 114.554C132.151 112.443 133.118 110.375 133.69 108.178C133.778 107.919 133.866 107.661 133.954 107.446C134.481 106.024 135.053 104.559 135.581 103.137C136.284 101.285 137.032 99.3894 137.78 97.5369C138.395 95.986 139.055 94.392 139.715 92.841C140.55 90.7732 141.342 88.6622 142.221 86.5943C142.969 84.7849 143.804 83.0185 144.64 81.2522C145.124 80.1752 145.651 79.0551 146.179 77.978C146.619 77.0733 147.103 76.1686 147.498 75.2208C147.982 74.1438 148.378 73.0668 148.818 71.9897C149.961 69.1464 151.06 66.2599 152.204 63.4166C152.38 62.9427 152.424 62.5549 152.16 62.1241C150.577 59.1084 148.73 56.222 146.443 53.6371C145.168 52.1724 143.804 50.7938 142.133 49.6736C141.869 49.5013 141.781 49.5013 141.606 49.7598C140.99 50.6645 140.33 51.5692 139.671 52.4739C139.319 52.9047 138.923 53.3356 138.615 53.7664C137.956 54.628 137.956 54.9296 138.615 55.7481C139.759 57.1267 140.946 58.5053 142.133 59.8839C143.101 61.0471 143.936 62.2534 144.596 63.632C145.08 64.6228 145.212 65.6568 145.08 66.7338C145.036 67.0354 144.904 67.38 144.728 67.6385C144.2 68.414 143.497 68.931 142.573 69.1033C141.474 69.3187 140.418 69.1895 139.451 68.7586C138.043 68.1555 136.724 67.38 135.361 66.6907C131.799 64.8382 128.852 62.2103 126.258 59.1946C124.851 57.5144 124.103 55.6189 124.103 53.4217C124.103 52.9909 124.103 52.517 124.191 52.0862C124.411 50.923 124.675 49.7167 125.158 48.6397C125.334 48.295 125.422 47.9073 125.554 47.5196C125.774 46.8303 125.818 46.141 125.642 45.4086C125.378 44.4608 124.851 43.5992 124.279 42.8237C122.608 40.5835 120.321 39.0757 117.814 37.9125C116.231 37.1801 114.56 36.7493 112.845 36.3185C111.702 36.0169 110.514 35.9307 109.327 36.0169C108.448 36.2323 107.348 36.3185 106.205 36.3615ZM113.373 63.3735C113.373 62.8565 113.373 62.1241 113.285 61.3487C113.241 60.8748 113.153 60.4009 112.889 60.0131C112.317 59.0654 111.614 58.2468 110.69 57.6006C109.547 56.8251 108.228 56.4805 106.864 56.4374C106.161 56.3943 105.413 56.3082 104.71 56.222C103.566 56.0497 102.467 55.6189 101.411 55.2311C100.136 54.7572 98.7727 54.5418 97.4095 54.8434C96.1781 55.1019 94.9908 55.3604 93.7595 55.5758C91.8245 55.8773 89.8896 56.222 87.9106 55.7912C87.6028 55.705 87.251 55.7481 86.8992 55.7481C86.4594 55.7481 86.1516 56.0066 85.9757 56.3943C85.8877 56.5666 85.8438 56.739 85.7998 56.9113C85.5359 58.0745 85.2281 59.1946 84.9642 60.3578C84.5245 62.4688 84.1287 64.5798 83.7329 66.6907C83.6889 66.9923 83.557 67.2939 83.3811 67.5524C83.0732 67.9401 82.4576 67.897 82.1497 67.5093C82.0618 67.38 81.9738 67.2508 81.9299 67.0785C81.7979 66.7769 81.5341 66.6046 81.2262 66.5184C80.8744 66.4323 80.5666 66.5184 80.2588 66.6907C79.3792 67.1216 78.9835 67.897 78.7636 68.7156C78.5437 69.5772 78.4557 70.4819 78.4997 71.3435C78.5437 72.5498 78.7196 73.7561 79.0714 74.9623C79.2473 75.5655 79.6871 75.867 80.3028 75.9963C80.8305 76.0824 81.3582 75.9963 81.7979 75.6947C82.1497 75.4793 82.5016 75.307 82.9413 75.3501C83.3811 75.3931 83.601 75.6086 83.6449 75.9963C83.6449 76.1686 83.6449 76.3409 83.6449 76.5133C83.601 77.0302 83.513 77.5472 83.513 78.0211C83.3811 81.4245 83.6449 84.7849 85.2281 87.8867C85.8438 89.093 86.7233 90.1269 87.8667 90.9455C88.8781 91.6779 90.0215 92.0225 91.2528 92.1948C91.6926 92.281 92.0884 92.281 92.5281 92.4102C92.9239 92.4964 93.1438 92.841 93.0998 93.1857C93.0558 93.5303 92.792 93.8319 92.3522 93.8319C91.9564 93.8319 91.5606 93.8319 91.2088 93.7458C90.0655 93.5734 88.8781 93.3149 87.8667 92.7549C87.6908 92.6687 87.6468 92.7118 87.6028 92.8841C87.295 93.7027 86.9871 94.5212 86.6793 95.2967C86.0197 97.1492 84.7004 98.4847 83.0732 99.5186C80.9184 100.94 78.5437 101.888 75.9051 102.233C75.4654 102.276 75.0696 102.405 74.6298 102.448C74.366 102.491 74.322 102.62 74.4539 102.836C74.7178 103.224 74.9816 103.611 75.2455 103.999C76.6088 105.895 78.2359 107.575 80.0389 109.083C80.6546 109.6 81.2702 110.074 81.9738 110.461C85.7118 112.572 89.7576 113.692 94.1113 113.563C97.0577 113.52 99.9601 113.175 102.731 112.185C104.534 111.538 106.337 110.892 108.008 109.901C109.151 109.212 110.163 108.35 110.998 107.316C111.35 106.886 111.35 106.886 110.822 106.627C110.207 106.325 109.591 106.024 109.019 105.722C107.612 104.99 106.381 104.128 105.237 103.008C104.402 102.19 103.654 101.328 103.17 100.208C102.379 98.3555 102.159 96.4168 102.291 94.392C102.335 93.9181 102.555 93.6165 102.95 93.4011C103.434 93.1426 103.918 92.8841 104.314 92.5395C105.941 91.204 107.26 89.61 108.184 87.7144C108.975 86.0773 109.415 84.2679 109.899 82.5446C109.987 82.1569 110.075 81.7692 110.207 81.3814C110.382 80.8214 110.822 80.606 111.394 80.8645C111.834 81.0368 112.229 81.0368 112.669 80.9075C113.945 80.5198 114.956 79.8305 115.528 78.6242C115.836 77.9349 116.099 77.1595 116.319 76.4271C116.583 75.6086 116.627 74.79 116.451 73.9284C116.187 72.8944 115.572 72.4636 114.516 72.6359C114.296 72.679 114.12 72.7221 113.901 72.7221C112.977 72.7652 112.493 72.2051 112.713 71.3435C112.801 70.9127 112.977 70.4819 113.065 70.0511C113.241 67.9832 113.505 65.8291 113.373 63.3735ZM138.967 174.222C138.967 174.178 138.967 174.178 138.967 174.135C140.638 174.308 142.353 174.437 144.024 174.609C146.531 174.825 149.038 175.255 151.544 175.772C156.821 176.849 161.967 178.443 166.98 180.382C167.991 180.77 169.047 181.201 170.058 181.632C170.322 181.761 170.454 181.718 170.542 181.416C170.674 181.028 170.806 180.598 170.938 180.21C171.553 178.185 172.125 176.117 172.785 174.092C173.928 170.56 175.159 167.027 176.303 163.451C178.282 157.42 180.305 151.388 182.064 145.271C182.459 143.978 182.855 142.686 183.251 141.394C183.427 140.834 183.427 140.834 182.943 140.575C182.679 140.446 182.371 140.273 182.108 140.101C180.305 138.895 178.282 138.119 176.259 137.258C175.907 137.085 175.863 137.129 175.819 137.559C175.731 138.378 175.687 139.24 175.643 140.101C175.511 141.868 175.379 143.634 175.203 145.4C175.115 146.348 174.852 147.253 174.368 148.071C173.664 149.277 172.345 149.579 171.201 148.717C170.674 148.33 170.234 147.813 169.882 147.296C168.607 145.486 167.815 143.505 167.42 141.351C167.024 139.153 166.672 136.999 166.54 134.759C166.496 134.199 166.496 134.199 166.012 134.07C163.813 133.467 161.571 133.079 159.284 132.907C158.404 132.864 157.569 132.82 156.689 132.734C155.546 132.648 154.447 132.605 153.303 132.519C152.6 132.476 151.896 132.433 151.192 132.433C150.621 132.433 150.005 132.39 149.433 132.39C149.125 132.39 148.994 132.476 148.906 132.777C148.818 133.165 148.73 133.51 148.598 133.854C147.85 136.224 147.059 138.55 146.399 140.92C144.904 146.219 143.497 151.561 142.001 156.86C141.078 160.22 140.066 163.537 139.143 166.898C138.615 168.836 138.175 170.775 137.692 172.714C137.604 173.101 137.472 173.489 137.34 173.877C137.252 174.135 137.34 174.178 137.604 174.178C138.087 174.222 138.527 174.222 138.967 174.222ZM147.63 132.26C147.542 132.131 147.454 131.916 147.322 131.786C146.091 130.537 144.64 129.589 143.145 128.771C139.671 126.918 136.065 125.41 132.283 124.204C131.051 123.816 129.82 123.429 128.589 123.127C127.357 122.826 126.038 122.696 124.807 122.395C123.399 122.05 121.948 121.835 120.541 121.705C119.529 121.619 118.562 121.619 117.551 121.619C117.111 121.619 116.979 121.835 116.847 122.179C116.539 123.041 116.231 123.903 115.879 124.721C115.748 125.066 115.616 125.41 115.484 125.798C114.56 128.598 113.681 131.399 112.757 134.156C112.01 136.439 111.174 138.68 110.426 140.963C109.107 144.926 107.832 148.89 106.644 152.896C105.589 156.386 104.402 159.875 103.258 163.365C103.126 163.796 103.126 163.796 103.566 163.839C104.754 163.968 105.941 164.097 107.128 164.27C109.723 164.701 112.273 165.174 114.868 165.691C118.21 166.338 121.508 167.113 124.719 168.19C128.545 169.483 132.283 170.99 135.581 173.274C135.845 173.446 135.889 173.446 135.977 173.101C136.196 172.369 136.416 171.594 136.636 170.861C137.076 169.095 137.472 167.329 137.956 165.562C139.187 161.082 140.506 156.601 141.737 152.078C142.793 148.287 143.804 144.495 144.904 140.704C145.607 138.249 146.487 135.836 147.278 133.424C147.366 133.122 147.498 132.734 147.63 132.26ZM71.9913 101.199C73.2666 101.285 74.4539 100.983 75.6853 100.768C77.3124 100.466 78.8955 100.122 80.3028 99.3032C80.8305 99.0017 81.4461 98.7001 81.9299 98.3555C82.9853 97.6662 83.9528 96.8907 84.5245 95.7706C85.1401 94.6074 85.6678 93.358 85.9757 92.0656C86.0197 91.8071 85.9757 91.6779 85.7998 91.4625C85.316 90.9455 84.8763 90.4285 84.4365 89.9115C83.3371 88.4898 82.7654 86.8528 82.3696 85.1726C81.7979 82.717 81.666 80.2182 81.8859 77.6765C81.9299 77.3318 81.9299 77.3318 81.5781 77.418C81.4461 77.461 81.3142 77.5041 81.1823 77.5041C79.5991 77.8057 78.1919 77.1164 77.5323 75.7378C77.3563 75.3932 77.0925 75.307 76.7847 75.2639C75.4214 74.9623 74.0581 74.7038 72.7388 74.3592C69.0888 73.4114 65.4388 72.3775 61.7888 71.3866C61.4809 71.3004 61.1291 71.2143 60.8213 71.1281C60.7773 71.4297 60.7334 71.7743 60.6894 72.0759C60.6894 72.1621 60.6894 72.2482 60.6894 72.3344C60.5575 73.4976 60.4255 74.6608 60.2936 75.824C60.2496 76.1255 60.2056 76.4271 60.1177 76.7287C59.9418 77.3318 59.8099 77.418 59.1942 77.2887C57.655 76.9872 56.1159 76.7287 54.5767 76.4271C51.8062 75.824 48.9917 75.2208 46.2212 74.6177C45.4736 74.4454 45.4296 74.4454 45.2537 75.2208C44.3302 78.5381 43.4507 81.8553 42.5272 85.1726C42.4393 85.5172 42.5272 85.7326 42.7471 85.9481C43.8025 87.1974 44.858 88.4468 45.9574 89.653C48.7718 92.798 52.158 95.1674 56.0279 96.8907C57.9189 97.7523 59.8978 98.4847 61.8328 99.3032C63.1081 99.8202 64.3834 100.294 65.7466 100.596C67.8575 101.113 69.9244 101.026 71.9913 101.199ZM61.0852 68.6725C61.0412 69.5341 61.0412 69.5341 61.7008 69.7064C63.3719 70.1803 65.043 70.6973 66.7141 71.1281C69.9244 71.9897 73.1786 72.8514 76.4329 73.6699C77.0925 73.8422 77.0925 73.9284 77.0045 73.196C76.8286 71.9036 76.8286 70.5681 77.0485 69.2756C77.2684 67.8539 77.7961 66.5184 79.0714 65.6568C79.3353 65.4845 79.3353 65.226 79.3353 64.9675C79.2473 64.1059 79.1594 63.2012 79.0714 62.3395C79.0274 61.3056 78.9835 60.3147 78.9395 59.2808C78.9395 58.9792 78.8515 58.85 78.5437 58.8069C78.016 58.7207 77.4883 58.5915 76.9606 58.5053C74.9816 58.2037 72.9587 57.9022 70.9798 57.6437C69.1768 57.3852 67.3738 57.1267 65.5268 56.8682C64.7352 56.739 63.9876 56.6097 63.196 56.4805C62.9761 56.4374 62.8002 56.4374 62.7563 56.739C62.5364 58.3761 62.3165 60.0131 62.0526 61.6933C61.8328 63.2873 61.6129 64.8813 61.393 66.5184C61.2611 67.2939 61.1731 68.1124 61.0852 68.6725ZM38.2176 73.4545C37.5139 73.5407 36.8983 73.5837 36.2826 73.6699C35.7109 73.7991 35.579 73.9284 35.7109 74.5315C35.8428 75.1347 35.9748 75.7378 36.2386 76.2979C37.2501 78.495 38.5254 80.5198 39.9766 82.4585C40.3284 82.9324 40.7242 83.4063 41.076 83.8801C41.164 84.0094 41.2959 84.0956 41.4278 84.1817C41.4718 84.0525 41.5597 83.8801 41.6037 83.7509C42.3953 80.7352 43.1869 77.7195 43.9784 74.7469C44.1104 74.273 44.0664 74.273 43.5387 74.1869C42.7471 74.0576 41.9555 73.9284 41.2079 73.8422C40.1965 73.713 39.185 73.5837 38.2176 73.4545ZM97.8492 24.6865C97.6294 24.6865 97.5854 24.6865 97.4974 24.6865C97.0137 24.7296 96.7938 24.8589 96.6619 25.2466C96.53 25.6343 96.7059 25.8928 96.9697 26.1082C97.3655 26.4529 97.8053 26.6252 98.333 26.5821C98.6848 26.539 98.9926 26.4529 99.1245 26.1082C99.2565 25.7636 99.1685 25.4189 98.8607 25.1604C98.5529 24.8589 98.1571 24.6865 97.8492 24.6865Z" fill="#191919"/>
<path d="M110.558 16.9749C110.558 17.8365 110.206 18.5258 109.502 18.9997C109.194 19.2151 109.238 19.3444 109.414 19.5598C109.898 20.206 110.25 20.8522 110.25 21.7139C110.25 21.8431 110.25 21.9723 110.206 22.1016C110.118 22.4032 109.942 22.5755 109.634 22.5755C109.326 22.6186 109.106 22.4462 109.018 22.1878C108.931 21.9723 108.931 21.7139 108.887 21.4554C108.711 20.5937 108.271 19.9475 107.303 19.7321C106.82 19.6029 106.82 19.6029 106.512 19.9906C106.116 20.5507 105.588 20.9384 105.017 21.3261C104.313 21.7569 103.785 21.5846 103.434 20.8522C103.39 20.723 103.302 20.5507 103.302 20.4214C103.258 19.3013 103.17 18.1812 103.565 17.0611C103.609 16.9318 103.653 16.7595 103.741 16.6303C104.093 15.9841 104.577 15.8117 105.237 16.1564C105.676 16.3718 106.072 16.7164 106.248 17.1903C106.292 17.3196 106.38 17.4057 106.424 17.535C106.6 18.1812 107.128 18.3104 107.699 18.2243C108.667 18.095 109.194 17.8365 109.238 16.8026C109.238 16.7164 109.238 16.6734 109.238 16.5872C109.326 16.2425 109.59 15.9841 109.898 15.9841C110.25 15.9841 110.47 16.2425 110.558 16.6303C110.558 16.8026 110.558 16.8888 110.558 16.9749Z" fill="#191919"/>
<path d="M101.236 13.0116C100.488 13.0116 100.004 12.7531 99.6086 12.2792C99.2128 11.8054 99.4327 11.1591 100.048 10.9868C100.664 10.8145 101.632 11.2022 101.939 11.7192C102.115 11.9777 102.115 12.2792 101.983 12.5377C101.807 12.8824 101.456 13.0116 101.236 13.0116Z" fill="#191919"/>
<path d="M97.6734 84.5699C96.0902 84.5268 94.771 84.2683 93.5396 83.7083C92.1324 83.062 90.7691 82.3297 89.7137 81.0803C89.4938 80.8218 89.3179 80.4772 89.186 80.1756C89.054 79.874 89.23 79.4863 89.4938 79.3571C89.7577 79.2278 90.1095 79.2709 90.3294 79.6155C91.4288 81.3819 93.1878 82.2004 95.0788 82.7605C97.7174 83.579 100.18 83.062 102.335 81.3388C102.379 81.2957 102.379 81.2957 102.423 81.2526C102.819 80.9511 103.258 80.908 103.522 81.2096C103.786 81.468 103.742 81.8558 103.434 82.2435C103.302 82.4158 103.126 82.5451 102.951 82.6743C101.719 83.579 100.4 84.1822 98.8607 84.3545C98.377 84.4837 97.9372 84.5699 97.6734 84.5699Z" fill="#191919"/>
<path d="M96.0906 77.9784C96.0466 77.9784 96.0026 77.9784 95.9586 77.9784C94.7273 77.9353 94.3315 77.3753 94.6833 76.2552C95.4749 73.7995 96.2665 71.3008 97.0141 68.8452C97.19 68.3713 97.3219 67.8543 97.4978 67.3804C97.6737 66.8635 97.9815 66.605 98.3773 66.6911C98.7731 66.7773 98.905 67.1219 98.7731 67.682C98.6852 68.0267 98.5972 68.3713 98.4653 68.7159C97.7177 71.1285 97.0141 73.498 96.2665 75.9105C96.0906 76.5567 96.0906 76.5998 96.7942 76.4706C97.146 76.4275 97.4538 76.3413 97.8056 76.2983C98.3773 76.2552 98.7731 76.6429 98.6412 77.1168C98.5532 77.4184 98.3773 77.5907 98.0695 77.6338C97.4538 77.8061 96.7942 77.8923 96.0906 77.9784C96.0906 78.0215 96.0906 78.0215 96.0906 77.9784Z" fill="#191919"/>
<path d="M90.8128 63.417C91.4285 63.4601 92.0881 63.4601 92.7038 63.5032C93.6712 63.5893 94.155 64.2786 93.8911 65.1833C93.7152 65.8726 93.3194 66.1311 92.5718 66.0019C91.6044 65.8295 90.6369 65.7865 89.6694 65.7434C88.57 65.7434 87.5146 65.7434 86.4592 66.045C85.7555 66.2604 85.4037 65.8295 85.4917 65.1402C85.5796 64.5802 85.9314 64.2786 86.4592 64.1494C87.9104 63.8047 89.3176 63.417 90.8128 63.417Z" fill="#191919"/>
<path d="M102.951 66.6901C102.951 65.9577 103.303 65.613 104.006 65.613C105.545 65.5269 107.041 65.613 108.492 66.0438C109.108 66.2162 109.635 66.5608 110.163 66.8624C110.339 66.9485 110.515 67.164 110.647 67.3363C110.911 67.6378 110.911 67.9825 110.691 68.2841C110.471 68.5856 110.119 68.6718 109.723 68.5426C109.108 68.3702 108.536 68.1548 107.92 68.0256C106.645 67.7671 105.37 67.7671 104.05 67.8533C103.215 67.8533 102.907 67.5948 102.951 66.6901Z" fill="#191919"/>
<path d="M89.8899 70.3102C88.8784 70.224 87.9549 70.1379 87.0754 69.7501C86.7676 69.6209 86.5037 69.3624 86.3278 69.147C86.1079 68.8454 86.1519 68.5008 86.3278 68.2854C86.5477 68.07 86.8995 67.9838 87.2074 68.1561C88.5706 68.9747 89.9778 68.9316 91.473 68.5869C91.6489 68.5439 91.8248 68.5008 92.0008 68.5008C92.5724 68.5008 92.8363 69.0177 92.5724 69.5347C92.3526 69.9225 91.9568 70.0517 91.561 70.1379C90.9893 70.224 90.4176 70.2671 89.8899 70.3102Z" fill="#191919"/>
<path d="M106.337 71.1711C105.589 71.2142 104.842 71.0418 104.138 70.7833C103.918 70.6972 103.742 70.5679 103.566 70.4387C103.347 70.2664 103.347 70.0079 103.434 69.7494C103.566 69.4909 103.83 69.3617 104.094 69.4047C104.182 69.4047 104.226 69.4478 104.27 69.4478C105.677 70.051 107.084 69.8786 108.492 69.4047C108.492 69.4047 108.536 69.4047 108.536 69.3617C109.019 69.2324 109.371 69.3617 109.503 69.7063C109.635 70.051 109.459 70.4387 109.019 70.611C108.668 70.7833 108.272 70.9126 107.876 70.9557C107.436 71.0849 106.909 71.0849 106.337 71.1711Z" fill="#191919"/>
<path d="M114.077 76.0398C113.857 76.7291 113.637 77.4615 113.373 78.1508C113.197 78.5386 112.758 78.6678 112.406 78.5386C112.098 78.4093 111.966 78.0647 112.054 77.6338C112.23 76.9876 112.406 76.3414 112.626 75.7383C112.758 75.3505 113.065 75.1782 113.417 75.2213C113.769 75.3075 114.033 75.609 114.077 76.0398Z" fill="#191919"/>
<path d="M81.8854 70.5249C81.8415 70.9988 81.8415 71.4727 81.7975 71.9897C81.7535 72.2051 81.7095 72.4205 81.6216 72.6359C81.4897 72.8944 81.2258 73.0236 80.9619 72.9805C80.6981 72.9374 80.5222 72.7651 80.4342 72.5066C80.4342 72.4636 80.3903 72.4205 80.3903 72.3774C80.4782 71.6019 80.5222 70.8265 80.6101 70.0941C80.6541 69.7494 81.0499 69.6202 81.3577 69.6633C81.6656 69.7064 81.8854 69.9218 81.9294 70.2233C81.8854 70.3095 81.8854 70.4387 81.8854 70.5249Z" fill="#191919"/>
<path d="M149.785 163.581C150.709 163.753 151.72 163.926 152.688 164.141C155.194 164.658 157.613 165.391 160.032 166.209C162.318 166.985 164.605 167.717 166.892 168.492C167.596 168.708 168.255 169.009 168.915 169.268C169.135 169.354 169.311 169.483 169.487 169.613C169.706 169.828 169.75 170.086 169.662 170.345C169.574 170.646 169.355 170.776 169.047 170.776C168.827 170.776 168.607 170.733 168.387 170.646C165.924 169.785 163.462 168.923 160.955 168.105C158.624 167.329 156.294 166.597 153.919 165.908C152.468 165.52 151.017 165.261 149.565 164.917C149.477 164.917 149.433 164.917 149.345 164.874C148.906 164.787 148.686 164.486 148.686 164.141C148.73 163.84 148.994 163.581 149.389 163.538C149.521 163.581 149.609 163.581 149.785 163.581Z" fill="#191919"/>
<path d="M163.902 152.552C163.814 152.509 163.594 152.509 163.418 152.423C160.779 151.475 158.097 150.829 155.414 150.096C154.842 149.924 154.271 149.795 153.699 149.623C153.611 149.579 153.523 149.579 153.435 149.536C153.039 149.407 152.863 149.106 152.907 148.804C152.951 148.459 153.303 148.201 153.699 148.244C154.095 148.287 154.491 148.373 154.886 148.502C157.217 149.106 159.548 149.709 161.879 150.355C162.582 150.527 163.242 150.786 163.945 151.044C164.121 151.087 164.297 151.173 164.429 151.303C164.693 151.518 164.825 151.82 164.737 152.121C164.649 152.423 164.385 152.552 163.902 152.552Z" fill="#191919"/>
<path d="M154.622 143.849C154.754 143.849 154.798 143.849 154.886 143.892C156.513 144.236 158.097 144.581 159.724 144.926C159.944 144.969 160.163 145.055 160.339 145.184C160.559 145.313 160.647 145.572 160.559 145.83C160.515 146.089 160.339 146.261 160.075 146.304C159.856 146.347 159.592 146.347 159.328 146.304C157.657 145.96 155.986 145.572 154.315 145.227C153.963 145.141 153.743 144.926 153.743 144.581C153.743 144.279 153.963 143.978 154.271 143.892C154.403 143.849 154.534 143.849 154.622 143.849Z" fill="#191919"/>
<path d="M139.362 137.474C139.274 137.431 139.098 137.388 138.922 137.344C134.876 135.449 130.611 134.113 126.257 132.993C123.882 132.39 121.508 131.916 119.133 131.356C118.869 131.313 118.605 131.227 118.385 131.098C117.989 130.882 117.857 130.538 117.989 130.236C118.121 129.935 118.385 129.762 118.825 129.848C119.485 129.978 120.1 130.15 120.76 130.279C123.838 130.882 126.917 131.529 129.907 132.433C132.941 133.338 135.932 134.329 138.834 135.621C139.23 135.794 139.626 136.009 139.934 136.224C140.197 136.397 140.241 136.784 140.153 137.086C140.021 137.344 139.802 137.474 139.362 137.474Z" fill="#191919"/>
<path d="M132.327 155.007C132.195 154.964 131.975 154.921 131.799 154.835C128.281 153.198 124.631 151.948 120.937 150.871C118.342 150.139 115.748 149.536 113.109 148.89C112.757 148.803 112.406 148.803 112.054 148.717C111.658 148.631 111.438 148.459 111.438 148.114C111.394 147.77 111.614 147.511 112.01 147.425C112.23 147.382 112.45 147.382 112.67 147.425C114.297 147.77 115.924 148.071 117.507 148.459C121.948 149.45 126.258 150.914 130.436 152.595C131.096 152.853 131.711 153.155 132.371 153.456C132.591 153.542 132.767 153.672 132.943 153.801C133.206 154.016 133.25 154.404 133.118 154.663C133.03 154.878 132.723 155.05 132.327 155.007Z" fill="#191919"/>
<path d="M135.625 143.117C135.405 143.074 135.097 142.944 134.745 142.815C133.734 142.47 132.767 142.04 131.755 141.738C130.524 141.35 129.292 141.049 128.061 140.704C127.885 140.661 127.709 140.618 127.533 140.532C127.269 140.402 127.138 140.144 127.182 139.842C127.226 139.541 127.445 139.369 127.709 139.325C127.929 139.282 128.193 139.325 128.457 139.369C130.524 139.713 132.503 140.359 134.438 141.092C134.877 141.264 135.273 141.393 135.713 141.566C135.889 141.652 136.065 141.695 136.197 141.781C136.548 141.996 136.68 142.341 136.548 142.643C136.461 142.944 136.197 143.117 135.625 143.117Z" fill="#191919"/>
<path d="M120.98 156.343C121.156 156.386 121.376 156.386 121.596 156.472C123.839 157.161 126.037 157.851 128.236 158.54C128.368 158.583 128.544 158.669 128.676 158.712C129.028 158.928 129.16 159.186 129.072 159.488C128.984 159.789 128.72 160.005 128.368 160.005C128.016 160.005 127.708 159.919 127.357 159.832C126.477 159.574 125.642 159.272 124.806 158.971C123.399 158.54 121.992 158.109 120.628 157.635C120.232 157.506 120.013 157.247 120.057 156.946C120.101 156.601 120.364 156.386 120.76 156.343C120.804 156.343 120.892 156.343 120.98 156.343Z" fill="#191919"/>
<path d="M123.752 139.24C123.62 139.197 123.312 139.154 123.048 139.068C120.981 138.507 118.914 137.947 116.847 137.387C116.584 137.301 116.364 137.258 116.232 137C115.968 136.526 116.364 136.009 116.935 136.009C117.243 136.009 117.507 136.052 117.815 136.138C119.75 136.655 121.685 137.172 123.62 137.689C123.796 137.732 124.016 137.818 124.191 137.904C124.587 138.12 124.763 138.421 124.675 138.766C124.587 139.111 124.367 139.24 123.752 139.24Z" fill="#191919"/>
</svg>
