<svg width="232" height="192" viewBox="0 0 232 192" fill="none" xmlns="http://www.w3.org/2000/svg">
<path d="M16.4145 105.086C20.1386 105.039 23.8627 104.983 27.5868 104.939C31.9767 104.887 36.371 104.857 40.7609 104.792C42.6252 104.762 44.485 104.645 46.3449 104.602C47.0994 104.581 47.8585 104.654 48.6175 104.663C51.5382 104.689 54.4589 104.663 57.3795 104.728C59.6344 104.762 61.8849 104.866 64.1353 104.922C65.7199 104.961 67.309 104.97 68.8936 104.991H70.3406C70.4435 105.005 70.5478 104.978 70.6309 104.918C70.7139 104.857 70.7691 104.767 70.7845 104.667C71.2764 103.195 72.011 101.811 72.9595 100.57C74.1846 98.8666 75.3609 97.1117 76.6792 95.4866C78.1218 93.6885 79.6354 91.938 81.2377 90.2739C83.0681 88.3527 85.0333 86.5575 87.1191 84.9014C88.3131 83.9548 89.5204 83.0255 90.7145 82.079C92.2913 80.8782 94.0003 79.8518 95.8101 79.0188C97.2882 78.297 98.7974 77.6314 100.311 76.9873C103.718 75.5812 107.274 74.5462 110.915 73.9012C111.861 73.7197 112.793 73.469 113.743 73.3177C115.127 73.1146 116.526 72.9936 117.915 72.825C119.795 72.6668 121.636 72.2174 123.37 71.4938C124.062 71.2114 124.677 70.7786 125.171 70.2287C125.664 69.6789 126.021 69.0263 126.215 68.3212C126.546 67.4155 126.759 66.4732 126.85 65.5161C126.87 65.3847 126.846 65.2504 126.781 65.1335C126.717 65.0166 126.615 64.9233 126.491 64.8677C124.409 63.8001 123.042 62.0669 122.021 60.0787C121.435 58.8652 120.918 57.6215 120.472 56.3529C119.659 54.2393 119.38 52.0306 119.105 49.796C118.809 47.462 118.624 45.1193 118.55 42.768C118.505 41.4713 118.488 40.1747 118.399 38.878C118.337 37.966 118.164 37.0627 118.07 36.1507C117.679 33.0641 118.246 29.9342 119.699 27.1647C120.869 24.9004 122.536 22.9142 124.582 21.3469C126.163 20.0697 128.011 19.1434 129.997 18.6326C132.411 18.0452 134.911 17.8625 137.388 18.0923C138.48 18.2133 139.572 18.3732 140.659 18.5245C141.705 18.6916 142.721 19.0015 143.677 19.4451C144.303 19.7218 144.925 20.0157 145.546 20.3096C147.328 21.1146 148.89 22.3152 150.109 23.8149C150.78 24.6393 151.364 25.5269 151.854 26.4645C152.844 28.3174 153.555 30.3003 153.962 32.3514C154.291 34.2527 154.383 36.1857 154.237 38.1086C154.17 39.2033 153.949 40.284 153.58 41.3201C153.518 41.4973 153.452 41.6486 153.647 41.7955C154.61 42.5173 154.854 43.559 154.978 44.6482C155.094 45.8992 154.992 47.1603 154.677 48.3783C154.411 49.4967 153.83 50.5207 152.999 51.3348C152.941 51.3758 152.892 51.4275 152.855 51.4871C152.819 51.5466 152.794 51.6128 152.784 51.6816C152.774 51.7504 152.777 51.8206 152.795 51.8879C152.813 51.9553 152.845 52.0185 152.888 52.0738C153.434 53.005 153.914 53.971 154.326 54.9654C154.739 56.0503 154.992 57.1957 155.294 58.3195C155.515 59.1408 155.837 59.9332 156.252 60.6795C156.593 61.2799 157.055 61.8065 157.612 62.2271C158.168 62.6477 158.806 62.9535 159.488 63.1258C160.497 63.4153 161.544 63.5609 162.595 63.5581C163.834 63.5581 165.081 63.5581 166.311 63.6834C168.254 63.8664 170.056 64.7553 171.357 66.173C172.296 67.1584 173.078 68.2743 173.679 69.4839C173.868 69.8818 174.144 70.2352 174.486 70.5202C174.828 70.8051 175.23 71.0148 175.663 71.135C176.293 71.3122 176.364 71.2906 176.764 70.7849C177.607 69.726 178.393 68.6237 179.303 67.608C180.483 66.3113 181.753 65.0579 182.996 63.8001C183.224 63.5792 183.472 63.3782 183.737 63.1993C184.09 62.9249 184.514 62.751 184.962 62.6968C185.41 62.6427 185.865 62.7104 186.276 62.8925C187.022 63.1853 187.74 63.5395 188.424 63.9514C190.311 65.1511 192.118 66.4647 193.835 67.8846C195.042 68.8744 195.127 69.1813 194.554 70.6682L194.381 71.1004C194.075 71.9303 194.07 71.9346 194.665 72.6391C198.336 76.9614 201.985 81.3269 205.682 85.6405C208.345 88.7525 211.08 91.804 213.765 94.9031C215.425 96.8178 217.045 98.7629 218.683 100.699C219.735 101.944 220.792 103.185 221.821 104.447C222.851 105.709 223.952 107.083 225.008 108.41C225.807 109.422 226.597 110.437 227.392 111.436C227.437 111.486 227.479 111.54 227.516 111.596C227.664 111.881 227.876 112.131 228.137 112.325C228.397 112.52 228.699 112.655 229.021 112.719C229.822 112.967 230.497 113.5 230.912 114.211C231.768 115.527 232.136 117.089 231.955 118.637C231.906 119.455 231.663 120.251 231.244 120.963C230.825 121.674 230.242 122.28 229.54 122.734C229.411 122.821 229.311 122.943 229.252 123.084C228.364 125.44 227.512 127.8 226.642 130.151C225.754 132.589 224.813 135.022 223.908 137.464C222.026 142.55 220.146 147.64 218.27 152.735C218.071 153.279 218.084 153.301 218.657 153.275C220.148 153.215 221.635 153.133 223.131 153.068C223.979 153.033 224.831 153.029 225.679 152.986C226.526 152.942 227.374 152.856 228.222 152.804C228.472 152.785 228.723 152.801 228.968 152.852C229.161 152.877 229.337 152.972 229.462 153.117C229.588 153.263 229.653 153.448 229.646 153.638C229.639 153.827 229.559 154.007 229.423 154.143C229.287 154.279 229.104 154.361 228.91 154.373C228.48 154.451 228.046 154.503 227.609 154.529C226.509 154.58 225.39 154.615 224.303 154.637C222.971 154.663 221.639 154.637 220.308 154.689C219.504 154.689 218.705 154.771 217.902 154.788C217.787 154.782 217.675 154.818 217.585 154.888C217.496 154.958 217.437 155.058 217.418 155.168C217.134 156.033 216.841 156.867 216.557 157.718C215.533 160.779 214.509 163.839 213.485 166.899C213.357 167.284 213.188 167.651 213.042 168.027C212.935 168.286 212.908 168.489 213.263 168.593C213.453 168.649 213.614 168.772 213.717 168.937C213.819 169.102 213.855 169.298 213.818 169.488C213.732 171.165 213.651 172.842 213.574 174.519C213.574 174.653 213.574 174.787 213.574 174.921C213.543 175.215 213.672 175.31 213.969 175.301C215.419 175.297 216.862 175.482 218.261 175.85C219.826 176.216 221.347 176.742 222.798 177.419C224.96 178.434 226.801 179.999 228.124 181.949C228.898 183.149 229.331 184.527 229.381 185.943C229.4 186.253 229.44 186.562 229.5 186.868C229.575 187.084 229.566 187.32 229.475 187.531C229.385 187.741 229.218 187.913 229.008 188.013C228.317 188.363 227.602 188.665 226.868 188.916C224.634 189.611 222.331 190.076 219.997 190.304C217.052 190.671 214.088 190.871 211.12 190.905C205.598 190.9 200.1 190.218 194.754 188.873C193.307 188.52 191.881 188.087 190.484 187.577C189.284 187.118 188.145 186.52 187.093 185.796C186.98 185.72 186.872 185.638 186.769 185.549C186.5 185.356 186.31 185.076 186.235 184.759C186.159 184.442 186.202 184.109 186.356 183.821C187.068 182.039 188.187 180.439 189.627 179.14C191.939 176.993 194.864 175.577 198.016 175.077C199.264 174.886 200.529 174.826 201.785 174.705C202.3 174.653 202.318 174.653 202.349 174.173C202.437 172.877 202.508 171.627 202.584 170.352C202.584 170.175 202.584 169.994 202.584 169.816C202.592 169.509 202.72 169.217 202.94 168.997C203.161 168.778 203.458 168.647 203.773 168.632C203.911 168.619 204.049 168.619 204.186 168.632C204.254 168.644 204.323 168.642 204.39 168.626C204.457 168.61 204.52 168.581 204.574 168.54C204.629 168.5 204.674 168.448 204.708 168.39C204.741 168.331 204.761 168.267 204.768 168.2C205.03 167.297 205.349 166.41 205.656 165.516C206.796 162.058 208.061 158.6 209.42 155.216C209.42 155.155 209.464 155.09 209.491 155.026C209.566 154.835 209.464 154.792 209.3 154.797C208.585 154.831 207.875 154.887 207.165 154.896C206.994 154.894 206.827 154.945 206.689 155.043C206.551 155.14 206.448 155.278 206.397 155.436C205.644 156.999 204.7 158.467 203.587 159.81C202.258 161.413 200.747 162.863 199.082 164.133C196.089 166.297 192.769 167.995 189.241 169.168C187.838 169.661 186.436 170.162 185.002 170.56C182.857 171.153 180.699 171.694 178.53 172.181C176.924 172.544 175.286 172.803 173.648 173.045C171.291 173.426 168.929 173.758 166.572 174.143C165.054 174.394 163.554 174.714 162.036 174.973C160.181 175.288 158.321 175.569 156.465 175.868C155.174 176.075 153.882 176.3 152.586 176.481C150.682 176.758 148.786 177.143 146.842 177.117C145.839 177.117 145.457 176.875 145.258 175.906C144.969 174.48 144.734 173.045 144.476 171.614C144.476 171.55 144.476 171.48 144.454 171.416C144.388 171.031 144.352 171.014 143.966 171.13C143.131 171.385 142.306 171.653 141.467 171.887C139.362 172.464 137.182 172.744 134.995 172.717C133.344 172.717 131.688 172.591 130.037 172.466C127.448 172.246 124.841 172.323 122.269 172.695C120.281 173.042 118.317 173.51 116.388 174.095C114.713 174.592 112.959 174.787 111.213 174.67C110.198 174.625 109.208 174.348 108.323 173.862C107.758 173.577 107.282 173.15 106.944 172.624C106.607 172.099 106.421 171.495 106.405 170.875C106.405 170.62 106.317 170.508 106.041 170.53C105.677 170.555 105.309 170.569 104.941 170.577C103.813 170.577 102.686 170.577 101.563 170.629C100.941 170.629 100.324 170.724 99.7073 170.741C99.3922 170.741 99.3123 170.914 99.2901 171.174C99.2279 171.865 99.1747 172.557 99.1037 173.248C98.9475 175.097 98.6508 176.932 98.2159 178.738C97.521 181.205 96.2974 183.5 94.6258 185.474C92.9542 187.447 90.8723 189.054 88.5173 190.187C87.1547 190.786 85.7223 191.222 84.2517 191.484C81.6576 192 78.9981 192.13 76.364 191.869C74.6252 191.7 72.9096 191.352 71.2462 190.831C69.2861 190.216 67.5545 189.054 66.2659 187.49C65.0009 186.065 64.0127 184.428 63.3496 182.658C63.212 182.265 62.9635 182.226 62.6217 182.226C58.8488 181.841 55.2667 180.873 52.0708 178.807C50.134 177.615 48.5769 175.92 47.5744 173.914C47.0291 172.84 46.7595 171.654 46.7887 170.456C46.7887 170.322 46.7887 170.188 46.7887 170.054C46.7952 170.015 46.7923 169.975 46.7803 169.938C46.7682 169.9 46.7474 169.866 46.7195 169.837C46.6915 169.809 46.6572 169.787 46.6191 169.774C46.5811 169.76 46.5404 169.756 46.5002 169.76C46.2694 169.76 46.0563 169.76 45.8122 169.76C43.4197 169.842 41.0317 169.937 38.6437 170.011C36.7572 170.071 34.8752 170.119 32.9887 170.141C29.2646 170.184 25.5405 170.205 21.8164 170.231C20.8044 170.231 19.7923 170.257 18.7803 170.231C18.1615 170.196 17.5451 170.128 16.9338 170.028C16.704 170.004 16.4879 169.91 16.3159 169.759C16.1439 169.609 16.0247 169.41 15.975 169.19C14.6923 165.217 13.6416 161.176 12.828 157.087C12.3841 154.87 11.8204 152.683 11.3277 150.474C11.2567 150.146 11.1146 150.042 10.7728 150.042C9.16601 150.094 7.55919 150.133 5.94793 150.167C5.62834 150.167 5.30431 150.167 4.98472 150.167C4.09697 150.167 3.20923 150.189 2.29929 150.167C1.79413 150.183 1.28849 150.165 0.785681 150.116C0.674566 150.113 0.565168 150.088 0.464405 150.043C0.363643 149.997 0.273703 149.932 0.20028 149.85C0.126856 149.769 0.0715427 149.674 0.0378367 149.571C0.00413077 149.468 -0.0072344 149.359 0.00445951 149.251C0.0280402 149.035 0.137404 148.837 0.309135 148.699C0.480865 148.561 0.701315 148.494 0.923281 148.512C1.7045 148.512 2.48128 148.512 3.2625 148.512C5.58395 148.512 7.90985 148.551 10.2313 148.56C10.835 148.56 10.8794 148.503 10.7329 147.942C10.329 146.381 9.92504 144.821 9.49004 143.265C8.45582 139.6 7.56363 135.917 6.74246 132.187C6.29859 130.263 5.81033 128.357 5.41084 126.434C4.87376 123.962 4.37662 121.481 3.8928 119C3.47112 116.839 3.08494 114.677 2.70321 112.516C2.41469 110.887 2.15281 109.253 1.89092 107.619C1.8199 107.157 1.78884 106.686 1.75777 106.214C1.71785 106.001 1.76188 105.781 1.88112 105.597C2.00036 105.414 2.18608 105.281 2.40138 105.225C2.87498 105.062 3.36934 104.963 3.8706 104.931C7.59914 104.931 11.3232 104.931 15.0473 104.931C15.4912 104.931 15.9662 104.978 16.4233 105.004L16.4145 105.086ZM16.7074 106.673V106.699C15.6732 106.668 14.639 106.621 13.6003 106.608C10.5435 106.556 7.48669 106.514 4.42988 106.482C3.40897 106.482 3.41341 106.266 3.54213 107.451C3.54213 107.494 3.54213 107.537 3.56876 107.585C3.77738 108.795 3.98157 110.009 4.19907 111.22C4.60743 113.532 4.99804 115.849 5.43747 118.135C5.90798 120.599 6.4066 123.048 6.93333 125.483C7.3772 127.497 7.85214 129.498 8.32709 131.5C9.02397 134.443 9.70754 137.387 10.4399 140.317C11.2966 143.727 12.2465 147.112 13.0677 150.531C13.8444 153.772 14.4659 157.048 15.2249 160.299C15.8197 162.892 16.5166 165.421 17.1646 167.979C17.1926 168.124 17.2748 168.254 17.3954 168.344C17.5159 168.433 17.6661 168.476 17.8171 168.464C18.9401 168.502 20.0631 168.572 21.1861 168.567C24.9768 168.567 28.7689 168.541 32.5626 168.489C35.6697 168.451 38.8168 168.373 41.9416 168.325C43.4804 168.299 45.0206 168.299 46.5624 168.325C46.7287 168.35 46.8986 168.317 47.0428 168.232C47.187 168.148 47.2965 168.017 47.3525 167.863C47.5801 167.405 47.8537 166.971 48.1692 166.566C49.4608 164.803 51.3029 163.839 53.3847 163.264C55.1115 162.797 56.8778 162.482 58.6623 162.322C59.3947 162.252 60.1183 162.14 60.8506 162.067C61.2945 162.023 61.2945 162.041 61.2945 161.591C61.3256 161.012 61.3611 160.428 61.3655 159.862C61.3339 159.367 61.4585 158.873 61.7226 158.448C61.9868 158.024 62.3779 157.687 62.8436 157.485C63.6432 157.091 64.5016 156.823 65.387 156.69C66.115 156.586 66.8518 156.556 67.6064 156.508C69.8746 156.348 72.1428 156.119 74.4154 156.076C77.6557 156.002 80.9004 156.076 84.1407 156.076C84.6245 156.076 85.1083 156.124 85.5877 156.149C85.7608 156.149 85.854 156.089 85.8141 155.912C85.7741 155.735 85.7386 155.652 85.7031 155.523C85.0107 152.765 84.2783 150.02 83.6347 147.25C83.0665 144.808 82.6182 142.344 82.0811 139.902C80.9759 134.875 79.8617 129.853 78.7343 124.83C77.7844 120.525 76.8419 116.219 75.9068 111.911C75.5695 110.359 75.463 108.769 74.9836 107.239C74.8859 106.919 74.7883 106.807 74.4465 106.807C73.0483 106.807 71.6456 106.768 70.2474 106.742L67.0737 106.681C66.1327 106.681 65.1873 106.655 64.2463 106.629C61.9692 106.565 59.6966 106.452 57.4195 106.431C52.8698 106.392 48.3157 106.396 43.7615 106.4C42.4743 106.4 41.187 106.495 39.8998 106.513C36.0603 106.56 32.2208 106.59 28.3591 106.638C26.5836 106.638 24.7726 106.716 22.9794 106.729C20.8932 106.686 18.7981 106.673 16.7074 106.673ZM120.396 44.1857C120.396 44.994 120.352 45.5775 120.396 46.1524C120.498 47.3324 120.645 48.5123 120.782 49.688C120.979 51.8944 121.443 54.0706 122.163 56.1713C122.873 58.0904 123.632 59.975 124.955 61.6044C125.682 62.5025 126.599 63.2376 127.643 63.7597C128.688 64.2818 129.836 64.5787 131.009 64.63C131.924 64.7035 132.842 64.7294 133.761 64.7899C133.864 64.7794 133.968 64.7895 134.066 64.8197C134.165 64.8499 134.256 64.8994 134.334 64.9653C134.412 65.0311 134.476 65.112 134.52 65.2026C134.565 65.2933 134.59 65.392 134.594 65.4925C134.598 65.5931 134.581 65.6933 134.543 65.787C134.506 65.8808 134.449 65.9661 134.377 66.0376C134.304 66.1091 134.217 66.1653 134.121 66.2027C134.025 66.2401 133.922 66.258 133.819 66.2551C133.499 66.289 133.177 66.2992 132.856 66.2854C131.522 66.2465 130.198 66.0476 128.914 65.6933C128.643 65.6198 128.541 65.663 128.515 65.944C128.367 67.0766 128.081 68.1881 127.662 69.2548C127.322 70.2598 126.709 71.156 125.887 71.8482C125.158 72.43 124.342 72.9007 123.468 73.2443C122.074 73.7686 120.621 74.1327 119.14 74.3291C118.674 74.4113 118.634 74.4545 118.723 74.8911C119.129 76.9729 120.177 78.8846 121.728 80.3716C123.484 82.0247 125.519 83.3726 127.742 84.3568C130.084 85.4272 132.66 85.9215 135.244 85.7961C136.482 85.7347 137.716 85.6107 138.941 85.4244C140.785 85.1755 142.595 84.7305 144.339 84.0974C147.017 83.1393 149.338 81.4178 150.997 79.1571C151.554 78.338 152.057 77.4847 152.502 76.6027C152.746 76.1704 152.741 76.1445 153.234 76.1704C153.531 76.2007 153.824 76.2655 154.122 76.3001C155.76 76.4773 157.402 76.702 159.049 76.8015C160.696 76.9009 162.227 77.2337 163.82 77.4369C164.113 77.4536 164.405 77.414 164.682 77.3202C165.099 77.1948 165.498 77.0176 165.902 76.8577C166.066 76.7928 166.222 76.7193 166.386 76.6502C166.226 76.5752 166.059 76.513 165.889 76.4644C164.943 76.2915 163.998 76.1099 163.044 75.9716C161.268 75.7123 159.457 75.4616 157.659 75.2455C156.541 75.1115 155.413 75.0726 154.295 74.9558C153.562 74.9093 152.836 74.7965 152.124 74.6188C151.115 74.3195 150.126 73.9571 149.164 73.5339C147.264 72.6675 145.545 71.4657 144.095 69.9896C143.297 69.2382 142.659 68.3402 142.22 67.3476C141.78 66.3549 141.547 65.2873 141.534 64.2064C141.491 63.9404 141.522 63.6681 141.625 63.418C141.727 63.1678 141.896 62.9491 142.115 62.7844C143.031 62.1047 143.804 61.2594 144.392 60.2948C145.861 58.0991 146.514 55.6051 147.166 53.1112C147.215 52.7428 147.397 52.4034 147.679 52.1533C147.961 51.9032 148.325 51.7586 148.707 51.7454C149.835 51.6196 150.885 51.1171 151.676 50.3233C152.521 49.4872 153.062 48.4049 153.216 47.2415C153.423 46.1166 153.423 44.9649 153.216 43.8399C152.999 42.7248 151.441 42.3358 150.633 43.0144C149.909 43.6368 149.301 43.5677 148.675 42.8545C148.36 42.5001 148.063 42.1327 147.788 41.761C147.206 41.0435 146.638 40.313 146.052 39.5998C145.466 38.8867 144.929 38.2426 144.37 37.5597C144.296 37.4607 144.197 37.3814 144.083 37.3293C143.969 37.2771 143.843 37.2538 143.717 37.2615C142.914 37.2917 142.106 37.2615 141.307 37.3479C140.508 37.4344 139.807 37.5554 139.061 37.6678C138.435 37.7629 138.071 37.5597 137.951 37.0454C137.874 36.7152 137.93 36.3688 138.106 36.0771C138.283 35.7854 138.567 35.5705 138.901 35.4764C139.434 35.3554 139.984 35.3122 140.53 35.2387L141.294 35.1306C141.081 34.9707 140.85 34.8021 140.655 34.6465C140.557 34.5867 140.456 34.5319 140.353 34.4823C138.593 33.5618 136.78 32.7393 134.924 32.0186C133.398 31.4314 132.082 30.4217 131.138 29.114C130.752 28.5565 130.321 28.0291 129.917 27.4845C129.784 27.3073 129.682 27.3203 129.558 27.4845C129.26 27.9168 128.967 28.349 128.643 28.7466C127.295 30.3927 125.801 31.92 124.178 33.3109C123.095 34.2748 122.376 35.5109 121.395 36.544C121.364 36.5785 121.32 36.6347 121.328 36.6607C121.337 36.6866 121.404 36.8077 121.444 36.8077C121.581 36.8017 121.718 36.7829 121.852 36.7515C123.208 36.501 124.587 36.3923 125.967 36.4273C126.242 36.4353 126.516 36.4716 126.784 36.5354C127.671 36.7385 127.911 37.2226 127.591 38.0265C127.516 38.2144 127.381 38.374 127.207 38.4821C127.032 38.5902 126.826 38.6411 126.619 38.6273C125.425 38.6965 124.227 38.744 123.046 38.8823C122.278 39.0084 121.518 39.1758 120.769 39.3837C120.552 39.4356 120.383 39.5263 120.379 39.7813C120.379 40.6069 120.321 41.4368 120.334 42.2623C120.294 42.9798 120.365 43.693 120.396 44.1857ZM210.059 139.236C209.881 141.22 209.752 143.209 209.517 145.184C209.284 147.277 208.777 149.332 208.008 151.3C207.799 151.819 207.64 152.355 207.466 152.89C207.324 153.323 207.333 153.357 207.848 153.323C208.536 153.288 209.224 153.215 209.912 153.189C210.205 153.189 210.298 153.012 210.383 152.791C211.417 150.09 212.478 147.393 213.49 144.683C214.333 142.387 215.066 140.053 215.931 137.767C217.889 132.58 219.895 127.419 221.897 122.254C221.972 122.119 222.005 121.965 221.992 121.812C221.979 121.659 221.922 121.512 221.826 121.39C221.16 120.46 220.889 119.315 221.071 118.196C221.169 117.599 221.28 117.007 221.413 116.419C221.456 116.318 221.474 116.207 221.465 116.097C221.456 115.988 221.42 115.882 221.36 115.788C220.916 115.209 220.534 114.6 220.081 114.059C218.679 112.313 217.266 110.584 215.842 108.873C214.782 107.576 213.721 106.279 212.629 105.013C210.551 102.592 208.447 100.189 206.37 97.7687C204.174 95.21 201.985 92.6454 199.801 90.0751C197.834 87.7671 195.855 85.4676 193.897 83.1595C192.903 81.9839 191.953 80.7736 190.972 79.5893C190.657 79.209 190.59 79.2176 190.364 79.6499C189.698 80.9249 189.032 82.2 188.402 83.4923C188.321 83.7201 188.303 83.9644 188.349 84.2012C188.407 84.9359 188.54 85.6664 188.557 86.4012C188.589 87.8794 188.557 89.3577 188.557 90.8359C188.545 91.0119 188.574 91.1883 188.643 91.3517C188.711 91.515 188.817 91.6609 188.953 91.7781C191.021 93.7318 192.779 95.9447 194.607 98.1015C195.398 99.0352 196.188 99.9688 196.907 100.95C198.977 103.81 200.832 106.814 202.455 109.936C204.577 113.957 206.254 118.186 207.458 122.553C208.279 125.578 208.927 128.604 209.495 131.66C209.929 134.162 210.116 136.699 210.054 139.236H210.059ZM62.9679 165.542H62.8569C62.9768 168.291 63.0744 171.04 63.2254 173.789C63.3691 176.268 63.8161 178.721 64.557 181.098C65.2197 183.222 66.3548 185.179 67.8816 186.829C68.7045 187.772 69.7448 188.513 70.9177 188.99C72.7842 189.69 74.7437 190.126 76.7369 190.287C77.9955 190.406 79.2622 190.419 80.5231 190.326C82.0345 190.231 83.5354 190.015 85.0107 189.682C87.7551 189.046 90.2533 187.653 92.2059 185.67C94.4539 183.577 96.0179 180.884 96.7023 177.929C97.0142 176.51 97.2512 175.076 97.4125 173.633C97.7408 170.944 97.9008 168.237 97.8919 165.529C97.8652 163.942 97.7632 162.356 97.6877 160.774C97.6877 160.571 97.6389 160.372 97.6122 160.173C97.5856 159.975 97.4791 159.957 97.2838 160.027C96.61 160.307 95.9118 160.528 95.1976 160.688C93.684 160.934 92.1526 161.12 90.6212 161.245C87.8692 161.423 85.1128 161.574 82.3607 161.617C79.6087 161.66 76.8922 161.587 74.158 161.505C72.5511 161.462 70.9488 161.327 69.3464 161.194C67.3513 161.076 65.3694 160.8 63.4207 160.368C63.1721 160.303 63.0966 160.415 63.0878 160.645C63.0656 161.133 63.0123 161.626 63.0079 162.118C62.9679 163.26 62.9679 164.396 62.9679 165.542ZM90.9319 151.43H86.7684C86.3245 151.43 86.2935 151.43 86.4 151.862C86.7107 153.12 87.0702 154.373 87.3366 155.639C87.4609 156.232 87.5807 156.232 88.1089 156.258C90.8406 156.367 93.5625 156.645 96.2584 157.087C96.734 157.162 97.1988 157.291 97.6433 157.472C98.0034 157.59 98.3207 157.808 98.557 158.097C98.7932 158.387 98.9384 158.738 98.9749 159.106C99.1037 160.372 99.2679 161.634 99.4188 162.901C99.4943 163.553 99.4809 163.558 100.169 163.545H100.511C102.047 163.454 103.582 163.333 105.118 163.281C107.338 163.203 109.557 163.108 111.736 163.152C112.895 163.173 113.916 163.061 114.768 162.248C114.858 162.179 114.954 162.118 115.056 162.067C116.528 161.191 118.094 160.477 119.726 159.936C122.271 158.956 124.949 158.34 127.676 158.107C128.774 158.012 129.88 158.012 130.978 158.107C133.544 158.358 136.105 158.574 138.684 158.289C139.66 158.177 140.641 158.043 141.618 157.93C141.871 157.9 141.969 157.848 141.911 157.559C141.573 155.83 141.267 154.127 140.934 152.415C140.672 151.079 140.371 149.744 140.109 148.408C139.98 147.734 140.011 147.717 140.708 147.578C142.279 147.263 143.859 146.96 145.426 146.623C149.146 145.819 152.874 145.05 156.576 144.164C159.852 143.377 163.084 142.435 166.342 141.57C169.679 140.655 172.932 139.469 176.067 138.026C176.586 137.793 176.582 137.78 176.426 137.214C175.295 133.06 174.012 128.954 172.489 124.925C172.25 124.294 171.979 123.676 171.712 123.058C171.686 122.993 171.602 122.955 171.539 122.903C171.504 122.954 171.476 123.009 171.455 123.067C171.393 123.443 171.331 123.819 171.291 124.199C171.135 125.777 170.993 127.363 170.847 128.954C170.541 131.94 170.305 134.927 170.217 137.927C170.186 139.042 170.181 139.051 169.058 139.379C167.633 139.811 166.2 140.218 164.77 140.628C160.846 141.746 156.89 142.739 152.901 143.606C148.622 144.54 144.352 145.495 140.078 146.442C139.003 146.679 138.679 147.094 138.835 148.127C139.012 149.299 139.23 150.466 139.425 151.633C139.496 152.065 139.492 152.065 139.057 152.065C137.401 152.022 135.745 151.957 134.09 151.927C130.734 151.87 127.378 151.819 124.023 151.788C121.009 151.758 117.995 151.736 114.985 151.745C108.523 151.771 102.06 151.862 95.6015 151.611L90.9319 151.43ZM187.048 87.9356C186.982 86.8853 186.915 85.8393 186.857 84.789C186.861 84.6895 186.833 84.5913 186.776 84.5083C186.72 84.4254 186.638 84.3618 186.542 84.3265C185.312 83.7377 184.126 83.0661 182.991 82.3167C180.177 80.6267 177.305 79.0188 174.62 77.13C174.398 76.9747 174.13 76.8943 173.856 76.9009C171.83 76.8852 169.82 77.2492 167.935 77.9728C167.256 78.2322 166.559 78.4612 165.88 78.7336C165.117 79.0404 164.344 79.3386 163.616 79.7147C160.436 81.3853 157.528 83.5062 154.987 86.0079C154.264 86.7124 154.264 86.747 155.112 87.3478C156.865 88.5753 158.614 89.8071 160.389 91.0044C164.964 94.1164 169.628 97.1017 174.38 99.9601C176.529 101.257 178.69 102.523 180.856 103.79C181.509 104.17 182.188 104.498 182.858 104.84C183.28 105.052 183.302 105.039 183.462 104.645C183.586 104.33 183.697 104.014 183.821 103.703C184.498 102.166 185.037 100.576 185.433 98.9487C185.619 98.0842 185.788 97.2198 185.992 96.3943C186.682 93.6245 187.036 90.7856 187.048 87.9356ZM134.614 171.148C137.68 171.177 140.724 170.639 143.584 169.561C144.13 169.363 144.121 169.35 144.028 168.779C143.811 167.59 143.584 166.402 143.384 165.213C143.056 163.428 142.728 161.647 142.386 159.867C142.288 159.357 142.248 159.309 141.764 159.434C140.59 159.643 139.404 159.787 138.213 159.867C135.877 160.079 133.525 160.048 131.196 159.776C129.568 159.623 127.928 159.672 126.313 159.923C124.071 160.295 121.873 160.888 119.753 161.691C117.771 162.411 115.908 163.408 114.222 164.651C112.486 165.892 111.044 167.431 109.557 168.926C109.165 169.337 108.797 169.77 108.456 170.223C107.963 170.858 108.012 171.459 108.669 172.133C108.852 172.302 109.056 172.448 109.277 172.565C109.91 172.891 110.609 173.075 111.323 173.106C112.974 173.199 114.628 172.999 116.206 172.518C117.862 172.086 119.526 171.653 121.209 171.295C123.987 170.785 126.824 170.639 129.642 170.862C131.324 170.914 132.962 171.035 134.614 171.148ZM193.329 73.5554C193.252 73.6695 193.183 73.7879 193.12 73.9099C192.614 74.9429 192.122 75.9759 191.616 77.0046C191.475 77.1848 191.412 77.4116 191.441 77.6363C191.47 77.861 191.589 78.0656 191.771 78.2062C191.949 78.4093 192.144 78.6039 192.317 78.8113C193.236 79.9005 194.137 81.0027 195.069 82.0833C197.24 84.6032 199.432 87.1057 201.603 89.6256C204.515 93.0056 207.419 96.3885 210.316 99.7743C211.599 101.27 212.908 102.739 214.178 104.243C215.447 105.748 216.593 107.178 217.787 108.652C219.266 110.476 220.746 112.306 222.225 114.141C222.372 114.319 222.461 114.375 222.638 114.176C223.327 113.447 224.209 112.917 225.186 112.642C225.421 112.564 225.652 112.469 225.883 112.382L225.439 111.747C225.399 111.691 225.355 111.639 225.31 111.587C223.508 109.24 221.759 106.871 219.797 104.628C217.254 101.68 214.786 98.6721 212.251 95.7157C210.09 93.1871 207.87 90.7062 205.704 88.182C203.216 85.2803 200.74 82.3671 198.278 79.4424C196.867 77.761 195.509 76.0408 194.124 74.3421C193.937 74.113 193.737 73.9099 193.542 73.6765C193.476 73.6278 193.405 73.5872 193.329 73.5554ZM211.164 168.425C211.164 168.425 211.328 168.36 211.368 168.252C211.643 167.469 211.901 166.683 212.149 165.892C212.593 164.526 212.979 163.147 213.432 161.79C214.666 158.112 215.865 154.442 217.187 150.781C219.238 145.132 221.377 139.517 223.477 133.89C224.192 131.979 224.897 130.065 225.612 128.15C226.151 126.709 226.689 125.26 227.228 123.802C227.352 123.46 227.308 123.4 226.935 123.443C226.338 123.507 225.735 123.454 225.159 123.287C224.715 123.162 224.272 123.05 223.828 122.903C223.592 122.825 223.446 122.834 223.344 123.089C222.989 123.953 222.594 124.817 222.256 125.682C221.32 128.133 220.405 130.592 219.482 133.03C218.754 134.957 218.004 136.881 217.303 138.817C216.415 141.22 215.643 143.654 214.742 146.044C213.241 150.029 211.692 154.001 210.139 157.969C208.807 161.31 207.56 164.664 206.446 168.075C206.326 168.438 206.348 168.468 206.716 168.433C208.197 168.336 209.683 168.333 211.164 168.425ZM185.264 64.3361C185.077 64.3879 184.897 64.4604 184.727 64.5522C184.448 64.7483 184.187 64.9666 183.946 65.2049C183.267 65.8748 182.614 66.5491 181.939 67.2363C181.265 67.9235 180.559 68.6757 179.92 69.4364C178.548 71.0875 177.212 72.7645 175.863 74.4329C175.619 74.7311 175.383 75.038 175.139 75.3319C175.019 75.4832 175.002 75.5912 175.188 75.7122C176.049 76.2698 176.884 76.862 177.762 77.3893C180.288 78.8934 182.827 80.376 185.366 81.8629C185.739 82.0833 186.121 82.295 186.511 82.4723C186.902 82.6495 186.92 82.6581 187.119 82.2648C187.812 80.9033 188.504 79.5418 189.183 78.1716C190.018 76.4816 190.852 74.7916 191.656 73.0843C192.144 72.0513 192.575 70.9924 193.045 69.9507C193.115 69.8261 193.132 69.6796 193.093 69.5429C193.053 69.4062 192.959 69.2902 192.832 69.2203C191.098 67.7888 189.273 66.465 187.368 65.2567C186.874 64.9726 186.361 64.7214 185.832 64.5047C185.647 64.4347 185.457 64.3784 185.264 64.3361ZM92.7385 128.418V125.241C92.7385 125.021 92.7385 124.809 92.7385 124.571C92.7385 124.528 92.7163 124.489 92.7074 124.446C92.6705 124.471 92.6363 124.5 92.6053 124.532C92.5439 124.626 92.4876 124.722 92.4367 124.822C91.5134 126.62 90.568 128.409 89.6802 130.225C88.5617 132.507 87.4609 134.802 86.4133 137.106C85.6942 138.653 85.024 140.222 84.3493 141.791C84.2936 141.977 84.2936 142.175 84.3493 142.361C84.8553 144.747 85.3791 147.116 85.8762 149.515C85.8756 149.577 85.8888 149.639 85.9149 149.695C85.9409 149.752 85.9793 149.803 86.0274 149.844C86.0754 149.885 86.132 149.915 86.1932 149.933C86.2545 149.951 86.319 149.956 86.3822 149.947C86.9326 149.947 87.4875 149.973 88.0379 149.947C89.1609 149.947 90.2883 149.891 91.4113 149.852C91.8552 149.852 91.8552 149.809 91.9218 149.389C91.9396 149.279 91.9485 149.168 91.9484 149.057C91.9928 147.423 92.0416 145.789 92.0816 144.16C92.0816 143.511 92.0816 142.863 92.1215 142.21C92.1881 141.03 92.2991 139.846 92.3701 138.662C92.4411 137.477 92.521 136.25 92.561 135.044C92.6142 132.865 92.9693 130.709 92.7385 128.418ZM203.911 176.244H203.964C203.964 177.454 203.964 178.664 203.964 179.874C203.964 180.423 203.964 180.462 204.515 180.492C205.567 180.562 206.623 180.661 207.675 180.683C208.847 180.713 210.019 180.683 211.191 180.644C211.83 180.644 211.83 180.7 211.848 179.922C211.865 179.144 211.848 178.353 211.896 177.571C211.954 176.092 212.025 174.618 212.092 173.145C212.132 172.341 212.18 171.537 212.211 170.728C212.211 170.24 212.305 170.175 211.697 170.11C209.313 169.907 206.916 169.907 204.532 170.11C204.231 170.11 204.151 170.249 204.142 170.543C204.071 172.444 203.987 174.338 203.911 176.244ZM61.2945 164.535C61.2945 164.401 61.2945 164.267 61.2945 164.133C61.2945 163.748 61.2546 163.7 60.8506 163.7C60.6455 163.705 60.4409 163.722 60.2381 163.752C59.7365 163.817 59.2394 163.908 58.7334 163.96C57.1654 164.113 55.6127 164.389 54.0904 164.785C52.5413 165.192 51.0943 165.797 49.9935 167.003C49.0259 168.057 48.4 169.224 48.4843 170.698C48.5508 171.864 48.9122 172.995 49.5363 173.992C50.4647 175.441 51.7201 176.665 53.2071 177.571C55.4821 178.977 58.0114 179.948 60.6598 180.432C61.219 180.549 61.7872 180.631 62.3554 180.717C62.5862 180.752 62.7016 180.665 62.635 180.41C62.4974 179.892 62.3465 179.377 62.2533 178.85C62.2415 178.685 62.1682 178.531 62.0471 178.415C61.926 178.3 61.7656 178.231 61.5963 178.223C59.5239 177.814 57.506 177.176 55.5819 176.321C54.3045 175.791 53.1821 174.961 52.315 173.905C51.8799 173.396 51.5614 172.802 51.3807 172.163C51.2 171.524 51.1613 170.856 51.2672 170.201C51.373 169.547 51.621 168.922 51.9946 168.368C52.3681 167.814 52.8587 167.344 53.4335 166.99C53.9855 166.674 54.5666 166.409 55.1691 166.199C56.9666 165.602 58.8496 165.285 60.7485 165.261C61.2634 165.261 61.2634 165.261 61.2856 164.733C61.2989 164.669 61.2945 164.604 61.2945 164.535ZM226.513 121.805L227.285 121.753C227.936 121.728 228.559 121.496 229.061 121.093C229.562 120.689 229.913 120.136 230.06 119.518C230.284 118.846 230.366 118.136 230.301 117.431C230.235 116.727 230.023 116.043 229.678 115.421C229.493 115.075 229.225 114.776 228.898 114.551C228.571 114.325 228.193 114.179 227.796 114.124C227.027 114.009 226.242 114.053 225.492 114.254C225.11 114.329 224.746 114.477 224.422 114.689C224.099 114.901 223.821 115.173 223.606 115.49C222.923 116.536 222.598 117.767 222.678 119.004C222.663 119.41 222.756 119.814 222.949 120.174C223.142 120.535 223.428 120.841 223.779 121.061C224.607 121.539 225.55 121.795 226.513 121.805ZM54.7696 169.89H54.0904L53.6111 169.916C53.0474 169.968 52.9896 170.011 52.9142 170.547C52.8587 170.982 52.8993 171.423 53.0333 171.841C53.1672 172.259 53.3915 172.645 53.691 172.972C54.3353 173.735 55.1446 174.35 56.0612 174.774C57.5837 175.459 59.1546 176.037 60.7619 176.503C61.0016 176.576 61.2546 176.615 61.4987 176.667C61.7428 176.719 61.8538 176.667 61.8183 176.395C61.7828 176.123 61.7118 175.777 61.694 175.466C61.5875 173.836 61.4943 172.207 61.3966 170.577C61.3567 169.886 61.3567 169.877 60.6376 169.877L54.7696 169.89ZM99.5298 167.245H99.4854C99.4854 167.802 99.4854 168.36 99.4854 168.922C99.4854 169.263 99.5431 169.311 99.8938 169.28C100.244 169.25 100.666 169.172 101.057 169.159C102.592 169.108 104.128 169.073 105.669 169.025C105.873 169.025 106.081 168.982 106.286 168.991C106.624 168.995 106.959 168.918 107.261 168.767C107.563 168.617 107.822 168.397 108.017 168.126C109.002 167.033 110.081 166.026 111.124 164.984C111.167 164.935 111.207 164.883 111.244 164.829C111.171 164.797 111.095 164.775 111.017 164.764C110.005 164.764 108.998 164.738 107.986 164.764C106.516 164.803 105.047 164.876 103.582 164.932L99.9337 165.053C99.5431 165.053 99.5387 165.053 99.5342 165.486C99.5253 166.082 99.5298 166.661 99.5298 167.245ZM57.9743 168.347V168.381H60.6598C61.2856 168.381 61.2901 168.381 61.2856 167.746C61.2856 167.612 61.2856 167.478 61.2856 167.344C61.259 166.942 61.2457 166.912 60.8418 166.912C60.3624 166.912 59.883 167.011 59.4036 167.02C58.0745 167.1 56.7638 167.363 55.5108 167.802C55.2937 167.875 55.0817 167.962 54.8761 168.062C54.817 168.096 54.7632 168.138 54.7163 168.187C54.7853 168.238 54.8616 168.279 54.9427 168.308C55.1012 168.333 55.2616 168.344 55.4221 168.343L57.9743 168.347Z" fill="#191919"/>
<path d="M45.9051 50.5147C44.1562 50.5147 42.4118 50.5147 40.6629 50.5147C39.6065 50.5147 38.5501 50.4628 37.4892 50.4715C34.32 50.4715 31.1463 50.532 27.9726 50.5579C25.9041 50.5579 23.8357 50.5795 21.7584 50.5881C21.2701 50.5881 21.1902 50.519 21.1192 51.1025C20.8262 53.4538 20.4933 55.8051 20.1693 58.1521C19.8586 60.4141 19.5434 62.6746 19.2238 64.9337C19.192 65.1537 19.1308 65.3688 19.0418 65.5734C18.9548 65.8416 18.7738 66.0716 18.5304 66.2233C18.2871 66.3749 17.9968 66.4386 17.7102 66.4033C16.9113 66.3428 16.1034 66.3385 15.3 66.2952C15.1432 66.3005 14.9869 66.2748 14.8406 66.2197C14.6943 66.1646 14.5609 66.0812 14.4485 65.9746C14.3361 65.868 14.2471 65.7404 14.1867 65.5994C14.1263 65.4584 14.0958 65.3069 14.0971 65.1542C13.8974 62.6818 13.6887 60.2052 13.5156 57.7285C13.3647 55.5674 13.2626 53.4062 13.1383 51.2451C13.1073 50.6832 13.1073 50.6876 12.4992 50.6703C11.6469 50.6443 10.7991 50.6184 9.95132 50.5795C9.7446 50.5687 9.53945 50.5382 9.33877 50.4887C8.69071 50.3288 8.4244 50.0868 8.4022 49.4255C8.36225 48.1288 8.33118 46.8753 8.4022 45.6046C8.45547 44.671 8.91265 44.3079 9.87586 44.2561C10.5639 44.2172 11.2563 44.256 11.9443 44.2301C12.3571 44.2301 12.3349 44.2042 12.3438 43.7979C12.3971 42.1036 12.2994 40.4006 12.5613 38.7106C12.5874 38.4874 12.6365 38.2673 12.7078 38.0536C12.9785 37.3447 13.3425 37.0076 14.1104 36.973L14.936 36.9471C15.1535 36.9471 15.2645 36.8823 15.2556 36.6273C15.2201 35.3522 15.189 34.0771 15.1979 32.8021C15.1979 31.3714 15.2911 29.9407 15.3 28.5101C15.2893 28.0016 15.4788 27.5083 15.8295 27.1314C16.1803 26.7546 16.6657 26.5226 17.1865 26.4829C18.7844 26.3187 20.3779 26.1199 21.9759 25.947C23.5738 25.7741 25.083 25.6271 26.641 25.4845C27.4177 25.411 28.199 25.3548 28.9757 25.3202C31.4348 25.2136 33.8924 25.1128 36.3485 25.0177C38.5678 24.9399 40.7872 24.8578 43.0332 24.8146C44.3915 24.8146 45.7453 24.8404 47.1035 24.8707C49.425 24.9226 51.7465 24.9658 54.0635 25.0523C54.9131 25.097 55.7593 25.1893 56.598 25.3289C56.948 25.3617 57.2718 25.5238 57.5029 25.7818C57.734 26.0399 57.8549 26.3742 57.8408 26.7163C57.8675 27.1485 57.8408 27.6111 57.8408 28.0563L57.7343 34.1636C57.7343 34.7254 57.7343 35.283 57.7077 35.8406C57.7077 36.1345 57.8275 36.2728 58.1027 36.2728C58.1485 36.277 58.1946 36.277 58.2403 36.2728C59.0082 36.1734 59.3766 36.5927 59.5941 37.2367C59.7898 37.8223 59.8799 38.4365 59.8605 39.052C59.825 40.5519 59.8294 42.0517 59.8116 43.5472C59.8116 43.7806 59.9537 43.7936 60.1223 43.7936C60.8148 43.7936 61.5028 43.7936 62.1952 43.8195C64.3081 43.8843 66.4209 43.9708 68.5338 44.027C69.5902 44.0572 70.651 44.027 71.7075 44.027C72.0847 44.027 72.1158 43.9708 71.8894 43.6423C70.7943 41.9809 70.0406 40.1285 69.6701 38.1876C69.4855 37.2433 69.3742 36.2868 69.3372 35.3263C69.3447 35.1405 69.2982 34.9564 69.2033 34.7951C69.1083 34.6338 68.9685 34.5018 68.8001 34.4143C67.1407 33.4068 65.6181 32.2 64.2681 30.8225C62.4068 29.0297 61.1656 26.7167 60.7171 24.2051C60.1251 21.2474 60.358 18.1891 61.3918 15.3488C62.0057 13.703 62.9385 12.1872 64.1394 10.8839C66.2656 8.54122 68.7734 6.72588 71.8939 5.86143C74.1108 5.18269 76.4115 4.79748 78.734 4.71607C78.9914 4.71607 79.1778 4.67716 79.2089 4.3746C79.3731 3.40641 79.7105 2.47282 79.7549 1.47438C79.7495 1.30633 79.7789 1.13889 79.8411 0.982059C79.9033 0.825226 79.9972 0.68217 80.1172 0.561283C80.2372 0.440395 80.3809 0.344153 80.5398 0.278268C80.6986 0.212382 80.8695 0.178201 81.0421 0.177703C81.8188 0.0913077 82.5996 0.0436667 83.3813 0.0350351C85.2634 0.00910161 87.1498 0.0350584 89.0363 0.00480257C89.1279 -0.00160086 89.2199 -0.00160086 89.3115 0.00480257C89.4508 0.00126232 89.5892 0.0270384 89.7173 0.0804104C89.8455 0.133782 89.9602 0.213489 90.0538 0.31404C90.1474 0.414591 90.2175 0.533614 90.2595 0.663007C90.3014 0.792401 90.3142 0.929094 90.2969 1.06373C90.3368 2.20481 90.3679 3.3459 90.4034 4.48265C90.4034 4.59503 90.4034 4.70742 90.4034 4.8198C90.4034 5.09643 90.5055 5.2131 90.8073 5.22174C91.2512 5.22174 91.7217 5.29955 92.1789 5.33845C96.0635 5.66616 99.7043 7.31943 102.459 10.0065C103.798 11.2381 104.863 12.7238 105.588 14.372C106.407 16.0765 106.979 17.883 107.288 19.7402C107.572 21.583 107.399 23.4653 106.782 25.2295C105.788 28 103.977 30.2001 101.762 32.1019C100.356 33.2642 98.7496 34.1745 97.0171 34.7903C96.8449 34.8361 96.6926 34.9349 96.583 35.0721C96.4734 35.2092 96.4123 35.3773 96.409 35.551C96.149 37.4577 95.7153 39.3381 95.1129 41.17C94.8076 42.2023 94.3816 43.1972 93.8434 44.135C93.6748 44.4246 93.697 44.4635 94.0387 44.4808C94.9576 44.5197 95.8764 44.5586 96.7952 44.5802C99.343 44.6451 101.895 44.6796 104.448 44.7704C105.109 44.8154 105.764 44.921 106.405 45.0859C106.611 45.1214 106.797 45.2287 106.927 45.3878C107.058 45.5469 107.125 45.7468 107.115 45.9504C107.093 47.4718 107.04 48.976 107.022 50.5147C107.024 50.655 106.995 50.7941 106.937 50.9223C106.878 51.0505 106.791 51.1647 106.683 51.2569C106.574 51.3491 106.446 51.4171 106.308 51.4561C106.169 51.4951 106.024 51.5043 105.881 51.4829C105.171 51.4483 104.456 51.4353 103.742 51.418C103.467 51.418 103.191 51.418 102.916 51.418C102.641 51.418 102.552 51.5131 102.53 51.7725C102.468 52.4165 102.348 53.0691 102.308 53.7045C102.162 56.233 101.722 58.727 101.372 61.2296C101.145 62.8461 100.954 64.4669 100.746 66.0878C100.719 66.3082 100.67 66.52 100.635 66.749C100.533 67.3585 100.28 67.687 99.6626 67.6697C98.3798 67.6308 97.0926 67.5401 95.8187 67.3845C95.1751 67.3067 94.9531 66.9133 94.9309 66.2088C94.9309 65.6728 94.9309 65.1325 94.9309 64.5966C94.891 62.0464 94.8421 59.4963 94.8111 56.9419C94.8111 56.4059 94.8777 55.87 94.8732 55.334C94.8732 54.0373 94.8244 52.7838 94.8066 51.5131C94.8066 51.284 94.709 51.1932 94.4782 51.1846C93.9278 51.163 93.3774 51.1111 92.827 51.0938C90.4389 51.0247 88.0464 50.9685 85.6584 50.8994L74.2153 50.5536H74.0777C71.0461 50.4585 68.0144 50.3072 64.9783 50.2813C61.0944 50.2467 57.2105 50.3158 53.3222 50.3331C50.841 50.3331 48.3553 50.3331 45.874 50.3331L45.9051 50.5147ZM76.8786 13.4513L77.5355 13.2741C78.448 12.989 79.4219 12.9448 80.3577 13.1461C81.2935 13.3473 82.1576 13.7867 82.862 14.4195C84.0277 15.4439 84.8205 16.8089 85.1213 18.3095C85.2248 18.8349 85.2531 19.3716 85.2057 19.9044C85.0876 21.2116 84.5289 22.4441 83.6166 23.4098C82.0941 25.0739 80.252 26.0032 77.8462 25.571C76.306 25.2641 75.0498 24.5552 74.2952 23.1764C73.9845 22.6059 73.767 21.9878 73.5007 21.4C73.4584 21.3272 73.4061 21.2603 73.3454 21.2011C73.3122 21.2599 73.2825 21.3205 73.2566 21.3827C73.0346 22.0656 72.8127 22.7398 72.5908 23.4271C72.0334 25.3413 71.6312 27.2952 71.3879 29.2708C71.2014 30.6928 71.0727 32.1192 70.9706 33.5455C70.9435 34.2663 70.9613 34.988 71.0239 35.7066C71.0239 36.0135 71.0683 36.0135 71.3302 35.8233C72.2322 35.1409 73.2792 34.6629 74.3949 34.4244C75.5107 34.1859 76.667 34.1927 77.7796 34.4445C79.3909 34.7644 80.6737 35.5294 81.3928 37.0379C81.9077 38.0302 82.1826 39.1242 82.1965 40.236C82.2103 41.3477 81.9627 42.4479 81.4727 43.4521C81.1353 44.1523 81.1442 44.1566 81.9787 44.1826H82.5291C83.8163 44.1826 85.1036 44.2172 86.3908 44.2561C87.9976 44.3079 89.6044 44.3771 91.2113 44.4462C91.3224 44.4716 91.4387 44.4656 91.5464 44.4289C91.6541 44.3921 91.7488 44.3261 91.8194 44.2388C92.1661 43.7967 92.4877 43.3364 92.7826 42.86C93.4163 41.4946 93.8768 40.0591 94.1541 38.5853C94.3406 37.8116 94.3361 37.8115 93.5594 37.6862C92.0664 37.4786 90.6912 36.7801 89.6621 35.7066C88.8855 34.952 88.3053 34.0275 87.9702 33.0102C87.6351 31.9929 87.5547 30.9123 87.7357 29.8586C87.9917 28.329 88.6136 26.8794 89.5512 25.6271C90.4578 24.3403 91.8044 23.4089 93.3507 22.9992C93.9011 22.8522 93.9056 22.8479 93.7458 22.3206C93.2486 20.6911 92.7559 19.0616 92.2455 17.4408C91.988 16.6282 91.6818 15.8286 91.411 15.0246C91.3311 14.7956 91.2246 14.7566 90.9671 14.7739C90.3522 14.8353 89.7318 14.8208 89.1206 14.7307C86.1467 14.1731 83.6077 10.8796 84.1404 7.66383C84.5265 5.3471 85.7694 3.72625 88.1041 2.96121C88.6901 2.76671 88.7078 2.92229 88.6368 2.18751C88.5924 1.68181 88.5613 1.65158 88.0819 1.62132C87.8778 1.62132 87.6692 1.55648 87.465 1.5608C85.5829 1.59538 83.6965 1.64293 81.8145 1.66886C81.5171 1.66886 81.4505 1.79854 81.3972 2.0622C81.1911 3.29779 80.9215 4.52253 80.5894 5.73179C79.9309 7.83014 79.0049 9.8398 77.8329 11.7138C77.4822 12.2843 77.1937 12.8937 76.8786 13.4816L76.8431 13.5119L76.8786 13.4513ZM39.207 48.816V48.8679C43.8056 48.816 48.4026 48.7627 52.9982 48.708C57.6855 48.6604 62.3772 48.5437 67.0645 48.7512C69.892 48.8765 72.715 48.9371 75.5425 49.0192L85.1923 49.2914L90.2924 49.4428L96.6354 49.6243L97.3234 49.6589C98.837 49.7194 100.351 49.7972 101.869 49.8404C102.921 49.8663 103.982 49.8404 105.038 49.8404C105.517 49.8404 105.531 49.8404 105.548 49.352C105.575 48.7252 105.571 48.0985 105.579 47.4718C105.579 46.4993 105.579 46.4993 104.612 46.4258H104.474L98.7527 46.2875L90.9627 46.093C89.5379 46.0541 88.113 45.9979 86.6882 45.9547C84.4688 45.8855 82.2495 45.8034 80.0035 45.7602C78.259 45.7256 76.5102 45.7602 74.7613 45.7602C70.8774 45.691 66.9935 45.5786 63.1096 45.5138C60.2392 45.4706 57.3659 45.4547 54.4896 45.4663C50.4415 45.4663 46.3978 45.5398 42.3541 45.5916C39.1582 45.6305 35.9623 45.7213 32.7664 45.7342C26.6055 45.7342 20.4445 45.7342 14.2791 45.7342H10.4884C9.85367 45.7342 9.84035 45.7342 9.84923 46.3739C9.84923 47.113 9.91137 47.8522 9.92025 48.587C9.92025 48.9198 10.0401 49.0926 10.3908 49.0926C11.0566 49.0926 11.7224 49.0926 12.3837 49.0926C14.6031 49.0537 16.8225 48.9932 19.0729 48.9716C22.038 48.937 25.0031 48.937 27.9504 48.9154C31.7144 48.8852 35.4474 48.8463 39.207 48.816ZM36.8412 36.355C38.448 36.3074 40.0548 36.2296 41.6661 36.2166C44.5158 36.1907 47.3654 36.2166 50.2195 36.2166C51.964 36.2166 53.7128 36.2166 55.4572 36.2166C55.9899 36.2166 56.0076 36.2167 56.021 35.7066C56.021 35.0799 56.021 34.4532 56.021 33.8265C56.021 33.1997 56.0431 32.5298 56.0698 31.8814C56.1319 30.3831 56.2015 28.8861 56.2784 27.3906C56.2784 27.0794 56.1763 26.9843 55.8612 26.9281C54.2223 26.6973 52.5678 26.5889 50.912 26.6039C45.257 26.4656 39.6021 26.4916 33.9516 26.7855C30.7823 26.9454 27.613 27.0578 24.4527 27.3431C22.2599 27.5419 20.0583 27.6932 17.8656 27.9395C16.7781 28.0649 16.8225 27.9395 16.8092 29.072C16.7825 31.2893 16.8092 33.5023 16.8092 35.7196C16.8092 35.8752 16.8092 36.0351 16.8314 36.1907C16.8846 36.8477 16.9201 36.8823 17.5682 36.8391C18.0121 36.8088 18.4559 36.7526 18.8732 36.744L30.4538 36.4976C32.6111 36.4155 34.7239 36.3895 36.8412 36.355ZM35.9224 38.045H34.5907C33.2147 38.045 31.8343 38.0752 30.4538 38.1055C27.8838 38.1574 25.3093 38.2308 22.7349 38.2783C21.9537 38.2783 21.1724 38.2222 20.3912 38.2395C18.9398 38.2697 18.9442 38.2827 18.9309 39.6874C18.9309 40.876 18.8954 42.0603 18.8732 43.2489C18.8732 44.1523 18.8288 44.0615 19.6722 44.0615C24.2648 44.0615 28.8618 44.0615 33.4633 44.0615C34.428 44.0615 35.3942 44.0515 36.3618 44.0313C39.3713 43.9621 42.3763 43.8714 45.3902 43.8195C47.6628 43.7806 49.9399 43.8195 52.217 43.7892C52.7762 43.7892 52.7629 43.7892 52.7585 43.2619C52.7585 41.8745 52.7585 40.487 52.7319 39.0996C52.7319 38.8316 52.7319 38.5636 52.7097 38.2957C52.683 37.8332 52.6786 37.8289 52.1726 37.8202C51.6666 37.8116 51.0718 37.8202 50.5214 37.8202C45.6565 37.7554 40.7739 37.8591 35.9224 38.045ZM102.202 21.374C102.257 18.9503 101.391 16.5921 99.7691 14.7523C98.2078 13.0335 96.2349 11.7166 94.0254 10.9185C93.3134 10.6691 92.5854 10.4655 91.846 10.309C91.5442 10.2312 91.4643 10.309 91.5442 10.6246C91.6386 10.9691 91.7528 11.3081 91.8859 11.6403C92.3298 12.7468 92.8092 13.836 93.1909 14.9598C93.8701 16.974 94.5226 19.0097 95.1173 21.0455C95.4502 22.1347 95.7654 23.2369 96.0051 24.3521C96.196 25.3116 96.2492 26.3014 96.3513 27.2782C96.4268 28.013 96.4756 28.7521 96.5422 29.4869C96.5733 29.8456 96.6265 29.8716 96.9594 29.6857C97.1572 29.5738 97.3484 29.4512 97.532 29.3183C98.6744 28.4855 99.6879 27.4971 100.541 26.3835C101.222 25.5333 101.703 24.5475 101.949 23.4963C102.086 22.8004 102.117 22.0829 102.202 21.374ZM65.5021 21.253C65.6219 22.0915 65.6974 22.9387 65.8794 23.7686C66.2974 25.8071 67.4055 27.6501 69.0265 29.0028C69.2236 29.1431 69.4314 29.2688 69.6479 29.3788C69.7011 29.1627 69.7589 28.9466 69.7988 28.7262C70.0607 27.3171 70.2427 25.8951 70.5845 24.5033C71.4687 21.051 72.7445 17.7052 74.3885 14.5276C75.0276 13.2309 75.7689 11.999 76.4569 10.7369C76.4945 10.6412 76.5184 10.5409 76.5279 10.4387C76.4395 10.4282 76.35 10.4282 76.2616 10.4387C75.0409 10.6462 73.8159 10.8277 72.5996 11.0741C71.3644 11.3661 70.2357 11.9837 69.3372 12.8592C68.2393 13.8858 67.3586 15.1119 66.7449 16.4683C66.0083 17.9669 65.5858 19.5935 65.5021 21.253ZM62.0976 20.5874C62.0743 22.2686 62.3153 23.9434 62.8122 25.5537C63.095 26.5688 63.579 27.5203 64.2371 28.3545C65.4367 29.8878 66.85 31.2509 68.4361 32.4044C68.6953 32.5803 68.9634 32.7433 69.2395 32.8928C69.3017 32.573 69.3594 32.2575 69.4171 31.9376C69.4171 31.9376 69.4171 31.8901 69.4171 31.8685C69.4668 31.6545 69.4408 31.4305 69.3433 31.2328C69.2458 31.0351 69.0825 30.8752 68.88 30.7792C65.1736 28.1859 63.6156 24.5768 63.953 20.2459C64.2131 16.9253 65.7583 13.8248 68.2763 11.5712C69.4307 10.4677 70.8842 9.70752 72.4665 9.37975C73.9902 9.04534 75.5379 8.82426 77.0961 8.71843C77.3224 8.71843 77.5666 8.71845 77.682 8.46343C77.9439 7.86696 78.2146 7.27481 78.4765 6.67834C78.5653 6.47519 78.4765 6.3801 78.2501 6.40604C77.5888 6.47519 76.9185 6.50546 76.2705 6.63513C74.8989 6.90311 73.5229 7.16674 72.178 7.52981C70.0827 8.22101 68.1681 9.35029 66.5686 10.8384C64.9691 12.3265 63.7233 14.1374 62.9188 16.1441C62.3959 17.5717 62.1126 19.072 62.0798 20.5874H62.0976ZM105.775 21.521C105.726 20.9893 105.699 20.4491 105.619 19.9217C105.242 17.7586 104.492 15.6732 103.4 13.7539C103.125 13.2374 102.788 12.7543 102.397 12.3146C101.259 11.0818 99.9673 9.99141 98.5529 9.06856C96.6975 7.81943 94.5847 7.24889 92.3875 6.90743C91.9569 6.83691 91.5228 6.78787 91.087 6.76049C90.7319 6.76049 90.7008 6.79503 90.7674 7.15378C90.834 7.51253 90.9361 7.89725 90.976 8.27761C91.016 8.65797 91.1491 8.70982 91.4953 8.74872C92.4558 8.83186 93.4014 9.03375 94.3095 9.34952C95.7569 9.86491 97.133 10.5531 98.4064 11.3983C100.742 12.8748 102.483 15.0896 103.338 17.6699C103.77 19.1095 103.928 20.6139 103.804 22.1088C103.772 23.3638 103.455 24.5963 102.876 25.7179C101.656 28.0719 99.7409 30.0166 97.3767 31.3022C96.7242 31.661 96.4889 32.0457 96.591 32.7156C96.591 32.7372 96.591 32.7588 96.591 32.7804C96.591 33.2127 96.6221 33.2127 97.0038 33.0528C98.9343 32.2514 100.665 31.0544 102.077 29.5431C102.521 29.0503 102.943 28.5533 103.347 28.0389C104.867 26.1837 105.72 23.8939 105.775 21.521ZM58.227 40.8545C58.2536 40.3142 58.2892 39.601 58.3114 38.8835C58.3114 38.663 58.2714 38.4512 58.2536 38.2178C58.2559 38.1728 58.248 38.1279 58.2306 38.0861C58.2133 38.0443 58.1868 38.0067 58.153 37.9759C58.1192 37.945 58.079 37.9217 58.0351 37.9075C57.9911 37.8933 57.9445 37.8886 57.8985 37.8937L54.6627 37.8678C54.3742 37.8678 54.2632 37.9888 54.2721 38.3C54.3254 40.0289 54.3697 41.7578 54.4053 43.4867C54.4053 43.7417 54.5029 43.8454 54.7692 43.8454C55.8035 43.8454 56.8377 43.8454 57.8764 43.8454C58.1382 43.8454 58.2403 43.7633 58.2359 43.4953C58.2181 42.6439 58.227 41.8356 58.227 40.8545ZM13.9018 41.6152H13.9684C13.9684 42.3067 13.9684 42.9983 13.9684 43.6898C13.9684 44.122 13.995 44.122 14.4122 44.122L16.5428 44.0702C17.3019 44.0702 17.2131 44.0702 17.2397 43.4175C17.3107 41.8385 17.3906 40.2536 17.4794 38.663C17.4794 38.4037 17.4173 38.2913 17.1465 38.3043L14.6076 38.4253C14.1637 38.447 14.1237 38.4512 14.0793 38.9224C14.0083 39.8387 13.9639 40.7291 13.9018 41.6152Z" fill="#191919"/>
<path d="M38.1872 137.539C38.1517 135.842 38.6136 134.171 39.5188 132.72C39.8509 132.242 40.243 131.806 40.6862 131.423C41.4597 130.757 42.3664 130.254 43.3494 129.945C44.792 129.435 46.0615 129.824 47.1978 130.736C48.0418 131.477 48.6424 132.444 48.9245 133.515C49.648 135.651 49.4888 137.976 48.4806 139.999C48.008 140.978 47.2756 141.817 46.3589 142.428C45.5096 143.061 44.4598 143.384 43.3913 143.342C42.3228 143.3 41.303 142.896 40.5086 142.199C38.9995 140.889 38.1117 139.286 38.1872 137.539Z" fill="#191919"/>
<path d="M133.508 56.5049C132.567 56.5471 131.628 56.3895 130.756 56.0432C129.883 55.6969 129.099 55.1702 128.456 54.4994C127.997 53.9684 127.601 53.3884 127.276 52.7705C127.159 52.5294 127.113 52.2617 127.143 51.9968C127.152 51.8612 127.208 51.7328 127.302 51.6318C127.395 51.5307 127.52 51.463 127.658 51.4392C127.791 51.3992 127.934 51.4005 128.067 51.4431C128.2 51.4857 128.316 51.5674 128.399 51.6769C128.503 51.8224 128.589 51.979 128.656 52.1438C128.981 52.8534 129.486 53.4708 130.124 53.9381C130.761 54.4054 131.51 54.7071 132.3 54.8149C134.906 55.2471 136.957 54.253 138.599 52.3253C138.732 52.1697 138.843 51.9968 138.99 51.8541C139.105 51.7269 139.262 51.6421 139.434 51.6138C139.606 51.5855 139.783 51.6154 139.935 51.6985C140.093 51.7918 140.215 51.9339 140.281 52.1022C140.347 52.2706 140.353 52.4556 140.299 52.6278C140.222 52.8601 140.109 53.08 139.966 53.2805C139.281 54.2422 138.355 55.0173 137.276 55.5324C136.136 56.1889 134.832 56.5255 133.508 56.5049Z" fill="#191919"/>
<path d="M130.334 47.9254L131.067 40.4479C131.098 40.1367 131.102 39.8211 131.16 39.5142C131.257 39.0129 131.573 38.7708 132.008 38.8184C132.106 38.8272 132.202 38.8557 132.288 38.9021C132.375 38.9484 132.451 39.0118 132.511 39.088C132.572 39.1643 132.615 39.2519 132.639 39.3453C132.663 39.4387 132.667 39.536 132.651 39.631C132.624 40.3441 132.549 41.0573 132.482 41.7921C132.416 42.5269 132.314 43.3049 132.269 44.0613C132.19 45.3579 132.136 46.6071 132.083 47.8822C132.083 48.3663 132.083 48.3792 132.567 48.3879C133.051 48.3965 133.534 48.3533 134.014 48.3879C134.285 48.3894 134.549 48.4659 134.777 48.6083C134.874 48.696 134.947 48.8063 134.988 48.9288C135.029 49.0512 135.038 49.1819 135.013 49.3085C134.988 49.4351 134.931 49.5535 134.846 49.6525C134.761 49.7515 134.652 49.828 134.529 49.8747C134.342 49.9627 134.137 50.0099 133.929 50.013C133.127 50.0283 132.324 50.0023 131.524 49.9353C130.636 49.8402 130.356 49.4382 130.378 48.5651C130.378 48.3663 130.378 48.1631 130.378 47.9643L130.334 47.9254Z" fill="#191919"/>
<path d="M151.668 46.3257C151.543 46.9436 151.419 47.6221 151.268 48.253C151.221 48.4241 151.136 48.5832 151.02 48.7196C150.929 48.8375 150.799 48.9221 150.653 48.9598C150.506 48.9974 150.351 48.9858 150.212 48.9271C150.078 48.8916 149.959 48.8148 149.873 48.708C149.788 48.6013 149.74 48.4704 149.737 48.335C149.726 48.1804 149.735 48.0251 149.764 47.8727C149.883 47.2807 150.012 46.693 150.141 46.1053C150.157 46.018 150.182 45.9326 150.216 45.8503C150.267 45.689 150.374 45.5497 150.517 45.4553C150.661 45.361 150.834 45.3174 151.006 45.3318C151.178 45.3578 151.336 45.44 151.454 45.5648C151.572 45.6897 151.642 45.8498 151.654 46.0189C151.664 46.1208 151.669 46.2232 151.668 46.3257Z" fill="#191919"/>
<path d="M141.144 42.3504C141.098 42.5972 141.038 42.8411 140.962 43.0807C140.896 43.2721 140.768 43.437 140.596 43.5496C140.424 43.6622 140.219 43.7161 140.012 43.703C139.804 43.6798 139.609 43.5965 139.451 43.464C139.292 43.3315 139.179 43.1559 139.124 42.9597C139.021 42.4757 139.098 41.9718 139.342 41.538C139.44 41.3744 139.588 41.2448 139.765 41.1673C139.943 41.0899 140.141 41.0684 140.331 41.1059C140.526 41.1291 140.707 41.217 140.842 41.3548C140.978 41.4926 141.061 41.6718 141.077 41.8621C141.113 41.9917 141.121 42.1473 141.144 42.3504Z" fill="#191919"/>
<path d="M123.045 42.9753C123.06 42.7328 123.093 42.4917 123.143 42.2537C123.195 42.0633 123.311 41.895 123.471 41.7749C123.632 41.6549 123.828 41.5898 124.031 41.5898C124.233 41.5898 124.43 41.6549 124.591 41.7749C124.751 41.895 124.866 42.0633 124.919 42.2537C125.053 42.6758 125.053 43.1279 124.919 43.5501C124.882 43.7371 124.783 43.9071 124.637 44.0337C124.491 44.1603 124.306 44.2364 124.111 44.2501C123.903 44.2668 123.696 44.2149 123.523 44.1027C123.35 43.9906 123.221 43.8248 123.156 43.6322C123.101 43.4165 123.064 43.1968 123.045 42.9753Z" fill="#191919"/>
<path d="M72.0094 175.047C71.9687 173.65 72.3734 172.274 73.168 171.11C74.6609 168.813 77.028 167.185 79.7506 166.584C80.6867 166.339 81.6763 166.367 82.5958 166.666C84.1662 167.136 85.543 168.079 86.5285 169.359C87.012 169.986 87.3613 170.702 87.5557 171.463C87.7501 172.224 87.7857 173.015 87.6604 173.789C87.4208 175.524 86.7437 177.174 85.6896 178.591C84.5391 180.099 82.8542 181.135 80.9624 181.5C79.9312 181.734 78.8603 181.748 77.823 181.541C76.7857 181.335 75.8064 180.912 74.9523 180.303C74.0888 179.698 73.376 178.911 72.8666 178.001C72.3572 177.092 72.0643 176.082 72.0094 175.047Z" fill="#191919"/>
<path d="M36.7805 30.1881L37.3309 30.214C37.7408 30.2615 38.155 30.2615 38.5649 30.214C39.0088 30.1189 39.0088 29.5743 39.3106 29.3106C39.7205 28.926 40.1533 28.5652 40.6067 28.2301C40.7786 28.0898 40.9986 28.0181 41.2226 28.0293C41.4466 28.0405 41.6579 28.1339 41.814 28.2906C41.9538 28.441 42.0418 28.6302 42.0657 28.8317C42.0896 29.0332 42.0481 29.2369 41.9472 29.4144C41.8789 29.5816 41.7895 29.7399 41.6809 29.8855C41.277 30.3999 41.4501 30.4171 42.0182 30.4647C42.2047 30.4647 42.3911 30.4647 42.5731 30.4647C42.7457 30.4991 42.9252 30.475 43.0819 30.3964C43.2385 30.3178 43.3628 30.1894 43.4342 30.0325C43.9437 29.2213 44.729 28.6095 45.6536 28.3036C45.8515 28.2085 46.077 28.1828 46.2921 28.2308C46.5072 28.2788 46.6987 28.3977 46.8342 28.5672C46.9552 28.7588 47.0066 28.9844 46.98 29.2078C46.9534 29.4313 46.8505 29.6395 46.6878 29.799L46.6434 29.8509L46.0885 30.4387C46.3771 30.4647 46.6611 30.4993 46.9452 30.5079C47.2293 30.5165 47.6377 30.5079 47.9794 30.5079C48.5654 30.5425 48.9071 30.8364 48.916 31.2946C48.9249 31.7527 48.6009 32.0855 48.0283 32.1244C47.4557 32.1633 46.8343 32.1244 46.2528 32.1504C46.1724 32.1578 46.0933 32.1752 46.0175 32.2022C46.0619 32.2498 46.0974 32.306 46.1463 32.3535C46.3815 32.5696 46.6345 32.7857 46.8431 32.9975C46.9863 33.1312 47.0793 33.3076 47.1075 33.4988C47.1356 33.6899 47.0973 33.8848 46.9985 34.0522C46.8954 34.2142 46.7445 34.3421 46.5655 34.4192C46.3865 34.4964 46.1878 34.5191 45.9953 34.4844C45.4387 34.4411 44.9155 34.2085 44.5172 33.8274C44.0644 33.3872 43.6529 32.9083 43.2877 32.3967C43.2345 32.3025 43.1561 32.2242 43.0607 32.1702C42.9653 32.1161 42.8565 32.0883 42.7462 32.0899L39.0975 31.8867C39.0374 31.8925 38.9788 31.9086 38.9244 31.9343C38.9547 31.9907 38.9904 32.0442 39.031 32.0942C39.1641 32.2195 39.3106 32.3276 39.4349 32.4616C39.5657 32.5902 39.6546 32.7536 39.6901 32.9313C39.7257 33.109 39.7063 33.293 39.6346 33.46C39.5679 33.6288 39.4485 33.773 39.2933 33.8722C39.138 33.9715 38.9546 34.0208 38.7691 34.0132C38.4931 34.0278 38.2169 33.9883 37.9569 33.897C37.6969 33.8056 37.4584 33.6644 37.2555 33.4816C36.7711 33.0995 36.3749 32.6223 36.0925 32.0812C36.0614 31.9733 35.9934 31.879 35.8998 31.8138C35.8062 31.7485 35.6926 31.7163 35.5776 31.7225C34.7298 31.7571 33.882 31.7743 33.0298 31.8046C32.964 31.8153 32.8998 31.8342 32.8389 31.8608C32.8675 31.9388 32.9063 32.0129 32.9543 32.0812C33.1541 32.2973 33.3982 32.4875 33.5624 32.7166C33.7189 32.8842 33.8107 33.0997 33.822 33.326C33.8334 33.5523 33.7636 33.7753 33.6246 33.9571C33.4724 34.1121 33.2715 34.2132 33.0536 34.2446C32.8357 34.2759 32.6134 34.2355 32.4217 34.13C31.6119 33.7933 30.9143 33.2441 30.4065 32.5437C30.312 32.3663 30.1573 32.2264 29.9687 32.1476C29.7802 32.0688 29.5694 32.056 29.3723 32.1114L25.1022 32.8376C24.9868 32.8376 24.8758 32.8895 24.7649 32.8981C24.5821 32.9362 24.3913 32.9039 24.2324 32.808C24.0736 32.7121 23.959 32.5601 23.9126 32.3837C23.8655 32.2079 23.8882 32.0212 23.9763 31.861C24.0643 31.7007 24.2112 31.5787 24.3876 31.5193C24.6843 31.4014 24.992 31.3117 25.3064 31.2513C25.8879 31.126 26.4738 31.005 27.0819 30.9012C27.2236 30.8824 27.3583 30.8294 27.4738 30.7472C27.5893 30.6649 27.6819 30.556 27.7433 30.4301C28.1074 29.862 28.5249 29.328 28.9905 28.8352C29.1301 28.6823 29.3209 28.5826 29.5289 28.5538C29.7369 28.525 29.9486 28.5689 30.1265 28.6778C30.3043 28.7867 30.4368 28.9535 30.5002 29.1485C30.5637 29.3435 30.5541 29.5541 30.4731 29.7429L30.4331 29.8682L30.2733 30.4042C30.4775 30.4042 30.6817 30.3739 30.8815 30.3523C31.3253 30.3048 31.747 30.2399 32.182 30.201C32.2819 30.196 32.3779 30.1615 32.4572 30.1021C32.5365 30.0426 32.5953 29.961 32.6259 29.8682C32.9325 29.2393 33.3745 28.6821 33.922 28.2344C34.388 27.8454 34.8364 27.8022 35.1693 28.0442C35.3449 28.2104 35.4545 28.4316 35.4789 28.6689C35.5033 28.9061 35.4408 29.1442 35.3024 29.3409L35.2714 29.4014L34.9651 30.0281L35.6486 30.0713L36.4077 30.0973L36.8205 30.1232L36.7805 30.1881Z" fill="#191919"/>
<path d="M30.5217 40.2582C32.2661 40.2279 34.0105 40.2192 35.755 40.1631C37.1088 40.1198 38.4626 39.9989 39.812 39.9556C42.2266 39.8779 44.6369 39.8303 47.0471 39.7871C47.3212 39.7931 47.5918 39.8472 47.8461 39.947C47.9777 39.9936 48.0912 40.079 48.1707 40.1913C48.2503 40.3036 48.2919 40.4372 48.2899 40.5736C48.3039 40.7208 48.2681 40.8684 48.188 40.994C48.1079 41.1196 47.9878 41.2163 47.8461 41.2693C47.5898 41.3599 47.3197 41.4081 47.0471 41.4119C46.2659 41.4119 45.4802 41.4119 44.7035 41.4119C42.8436 41.481 40.9838 41.5675 39.1284 41.6539C35.4975 41.8225 31.8711 41.8484 28.2402 41.8181C27.0684 41.8181 25.8965 41.8181 24.7247 41.8181C24.6093 41.8181 24.4939 41.8181 24.3785 41.8181C24.216 41.8247 24.0566 41.7735 23.9301 41.6741C23.8035 41.5747 23.7183 41.4339 23.6905 41.278C23.6471 41.1131 23.6686 40.9383 23.7507 40.788C23.8328 40.6377 23.9697 40.5227 24.1344 40.4656C24.4858 40.3627 24.8504 40.3088 25.2174 40.3057C26.9929 40.3057 28.7684 40.3057 30.5439 40.3057L30.5217 40.2582Z" fill="#191919"/>
</svg>
