<svg width="240" height="298" viewBox="0 0 240 298" fill="none" xmlns="http://www.w3.org/2000/svg">
<path d="M88.6132 47.0812L89.2507 35.6289L98.1758 43.9L111.563 41.355L106.463 52.1711L112.838 64.2596L100.088 62.3509L91.1632 71.2582L89.2507 59.1697L80.3256 55.9885L75.8631 54.0798L77.7756 53.4436L88.6132 47.0812Z" fill="#191919"/>
<path d="M156.487 30.0775C156.444 33.4351 156.179 36.7862 155.693 40.1089C155.231 43.4057 154.509 46.6609 153.532 49.8438C152.992 51.5849 152.333 53.3044 151.62 54.9862C150.619 57.3653 149.404 59.6493 147.991 61.8103C146.213 64.3859 144.131 66.7386 141.79 68.8178C140.536 70.0477 139.138 71.1227 137.626 72.0196C135.952 72.9737 134.218 73.8308 132.501 74.7148C132.228 74.8316 132.01 75.0474 131.89 75.3185C130.616 78.1296 129.067 80.8089 127.267 83.3177C124.847 86.7244 121.763 89.3872 118.366 91.7482C118.08 91.9476 117.826 92.1686 117.507 92.3519C117.45 92.3769 117.4 92.414 117.359 92.4607C117.317 92.5073 117.287 92.5623 117.27 92.6219C117.252 92.6815 117.248 92.7441 117.257 92.8055C117.267 92.8669 117.289 92.9255 117.324 92.9772C117.961 94.4757 118.571 95.985 119.209 97.4835C120.88 101.24 122.813 104.874 124.993 108.361C126.558 110.996 128.737 113.215 131.345 114.83C132.602 115.643 134.025 116.167 135.51 116.365C136.995 116.562 138.506 116.428 139.932 115.972C140.554 115.784 141.202 115.681 141.834 115.53C142.002 115.474 142.185 115.481 142.349 115.55C142.513 115.618 142.646 115.743 142.725 115.902C142.832 116.076 142.929 116.256 143.016 116.441C143.945 118.689 144.885 120.926 145.793 123.179C146.144 124.063 146.419 124.974 146.722 125.874C146.805 126.112 146.87 126.355 146.916 126.602C146.961 126.728 146.98 126.862 146.973 126.995C146.965 127.128 146.931 127.259 146.872 127.379C146.813 127.499 146.731 127.606 146.63 127.694C146.529 127.782 146.411 127.848 146.284 127.89C145.56 128.235 144.81 128.521 144.07 128.828C141.963 129.701 139.846 130.553 137.745 131.448C135.882 132.246 134.035 133.065 132.177 133.917C128.806 135.41 125.447 136.919 122.06 138.385C119.486 139.499 116.897 140.577 114.294 141.619C111.764 142.657 109.174 143.541 106.538 144.266C105.922 144.433 105.668 144.363 105.322 143.835C105.068 143.464 104.854 143.066 104.685 142.649C103.502 139.625 102.422 136.52 101.515 133.367C101.277 132.553 101.412 132.224 102.179 131.874C102.476 131.739 102.773 131.604 103.076 131.48C104.145 130.969 105.036 130.151 105.636 129.13C106.557 127.781 107.263 126.297 107.726 124.732C108.61 121.986 109.008 119.108 108.903 116.226C108.801 114.303 108.53 112.393 108.093 110.517C107.174 106.332 105.777 102.267 103.929 98.3999C103.654 97.8285 103.616 97.8069 102.935 97.9309C100.963 98.303 98.9575 98.4692 96.9508 98.4268C90.7294 98.1361 84.7092 96.1364 79.554 92.6484C79.3732 92.5045 79.1565 92.4124 78.9272 92.382C78.6979 92.3516 78.4646 92.3841 78.2524 92.4759C77.4383 92.7291 76.6032 92.9095 75.7571 93.0149C73.5385 93.4363 71.2773 93.5901 69.022 93.4731C67.326 93.333 65.6355 93.0688 63.945 92.864L63.7991 92.8316C63.205 92.7292 63.1294 92.7885 63.259 93.3707C63.6533 95.5915 64.053 97.8015 64.4581 100.017C64.5499 100.524 64.5877 100.556 65.1062 100.497C67.0938 100.238 69.0742 99.9684 71.0474 99.6881C71.6361 99.6073 71.971 99.7582 72.0898 100.26C72.5543 102.232 73.0512 104.2 73.4508 106.189C73.7857 107.806 73.9909 109.504 74.288 111.148C74.7093 113.358 75.217 115.552 75.6491 117.757C75.9731 119.374 76.2162 121.061 76.5348 122.705C76.9399 124.818 77.3396 126.931 77.8257 129.022C78.463 131.75 79.0193 134.493 79.5594 137.243C80.1427 140.213 80.8503 143.172 81.493 146.11C82.0331 148.605 82.5084 151.112 83.1133 153.591C84.2296 158.342 85.3818 163.08 86.57 167.806C87.535 171.665 88.545 175.512 89.6 179.346C90.2373 181.659 91.0205 183.934 91.7064 186.23C92.7542 189.734 93.802 193.237 95.1577 196.628C95.9493 198.657 96.8843 200.628 97.9554 202.525C99.3681 204.95 101.254 207.067 103.502 208.751C103.942 209.083 104.424 209.359 104.934 209.57C106.867 210.389 108.999 210.621 111.064 210.238C113.11 209.869 114.958 208.788 116.281 207.187C117.013 206.196 117.535 205.066 117.815 203.867C117.996 203.483 118.084 203.062 118.074 202.638C117.988 202.282 117.567 201.997 117.28 201.689C115.517 199.856 114.256 197.6 113.619 195.14C113.219 193.491 112.895 191.82 112.538 190.159C112.538 190.062 112.49 189.965 112.473 189.863C112.425 189.631 112.344 189.545 112.063 189.61C110.939 189.927 109.735 189.801 108.702 189.255C107.669 188.71 106.886 187.789 106.516 186.683C105.817 184.846 105.661 182.848 106.068 180.926C106.242 180.014 106.625 179.154 107.186 178.414C107.28 178.3 107.343 178.163 107.368 178.018C107.394 177.872 107.381 177.723 107.332 177.584C106.684 174.829 106.711 172.026 106.792 169.218C106.904 166.638 107.452 164.096 108.412 161.698C109.371 158.995 110.961 156.558 113.051 154.59C115.14 152.622 117.67 151.178 120.429 150.379C123.502 149.339 126.723 148.802 129.968 148.789C133.308 148.787 136.608 149.523 139.63 150.945C140.603 151.349 141.522 151.874 142.363 152.508C142.628 152.734 142.8 152.648 142.952 152.379C143.459 151.462 143.999 150.557 144.464 149.619C145.868 146.778 146.716 143.743 147.64 140.725C148.666 137.377 149.741 134.041 150.945 130.753C152.129 127.418 153.871 124.309 156.098 121.557C157.161 120.186 158.462 119.016 159.938 118.102C161.271 117.285 162.809 116.864 164.372 116.889C164.999 116.889 165.625 116.889 166.252 116.97C167.158 117.068 168.068 116.828 168.807 116.296C169.707 115.656 170.489 114.864 171.118 113.956C172.312 112.285 173.473 110.587 174.742 108.976C176.085 107.11 177.891 105.624 179.981 104.663C180.624 104.39 181.302 104.208 181.996 104.124C184.021 103.909 185.512 104.906 186.716 106.41C187.718 107.736 188.373 109.29 188.623 110.932C188.844 112.134 188.98 113.353 189.163 114.565C189.309 115.471 189.509 115.644 190.4 115.573C191.879 115.45 193.368 115.647 194.764 116.15C196.08 116.573 197.219 117.419 198.005 118.554C198.756 119.651 199.342 120.851 199.744 122.117C200.202 123.563 200.137 125.124 199.56 126.527C199.185 127.534 198.669 128.483 198.026 129.346C197.443 130.127 196.946 130.963 196.406 131.766C195.603 133.013 195.099 134.428 194.932 135.9C194.71 137.561 194.505 139.226 194.321 140.886C194.095 143.332 193.477 145.725 192.49 147.975C191.587 149.987 190.375 151.848 188.899 153.489C187.484 154.982 185.927 156.332 184.248 157.521C183.51 158.038 182.731 158.496 181.92 158.89C180.392 159.688 178.799 160.372 177.416 161.445C176.228 162.327 175.216 163.424 174.434 164.679C173.565 166.14 172.744 167.628 171.869 169.089C170.191 171.908 167.65 174.115 164.621 175.384C161.352 176.783 157.707 177.043 154.272 176.123C153.473 175.924 152.684 175.676 151.89 175.444C151.302 175.271 151.307 175.266 151.188 175.891C151.117 176.334 151.023 176.773 150.907 177.206C150.67 177.972 150.367 178.721 150.135 179.476C150.065 179.686 149.924 179.869 150.076 180.112C150.349 180.677 150.48 181.301 150.459 181.928C150.621 183.917 150.128 185.904 149.055 187.588C148.607 188.38 147.986 189.06 147.238 189.578C146.49 190.096 145.634 190.439 144.734 190.58C144.625 190.586 144.521 190.628 144.44 190.701C144.358 190.773 144.304 190.871 144.286 190.979C143.913 192.305 143.573 193.641 143.135 194.941C142.775 196.006 142.349 197.048 141.861 198.062C141.288 199.253 140.651 200.417 139.992 201.565C139.44 202.524 138.742 203.392 137.923 204.136C137.787 204.242 137.692 204.393 137.658 204.562C137.623 204.731 137.65 204.907 137.734 205.058C138.274 206.519 140.575 209.624 141.85 210.54C143.393 211.754 145.207 212.577 147.137 212.939C148.979 213.189 150.85 213.12 152.668 212.734C155.451 212.134 158.045 210.869 160.23 209.047C162.687 207.061 164.927 204.82 166.911 202.363C170.429 198.117 173.662 193.644 176.589 188.973C179.387 184.553 182.054 180.051 184.588 175.465C187.732 169.795 190.729 164.043 193.77 158.324C194.899 156.206 195.871 154.012 196.914 151.856C198.221 149.123 199.555 146.406 200.813 143.652C201.623 141.878 202.293 140.04 203.065 138.261C204.319 135.367 205.626 132.494 206.846 129.594C207.808 127.341 208.672 125.044 209.644 122.796C210.352 121.179 211.135 119.562 211.939 117.983C212.658 116.565 213.117 116.404 214.64 116.846C215.515 117.093 215.515 117.093 215.812 116.269C216.439 114.338 216.692 112.305 216.557 110.28C216.492 108.075 216.152 105.898 215.871 103.715C215.699 102.421 215.569 101.127 215.429 99.8337C215.402 99.655 215.402 99.4734 215.429 99.2946C215.444 99.1248 215.502 98.9616 215.597 98.8203C215.693 98.6789 215.823 98.5641 215.975 98.4866C216.127 98.409 216.297 98.3713 216.468 98.3768C216.638 98.3824 216.805 98.4311 216.952 98.5184C217.192 98.652 217.412 98.819 217.605 99.0143C218.491 99.9038 219.221 100.935 219.766 102.065C219.982 102.491 220.187 102.922 220.403 103.343C220.505 103.531 220.614 103.655 220.738 103.343C220.948 102.804 221.191 102.265 221.397 101.753C221.829 100.675 222.282 99.5696 222.666 98.4592C223.59 95.764 224.648 93.1659 225.718 90.5516C225.863 90.1761 226.044 89.8151 226.258 89.4735C226.386 89.2255 226.59 89.0254 226.841 88.903C227.093 88.7806 227.377 88.7425 227.651 88.7943C227.922 88.8629 228.163 89.0201 228.334 89.2409C228.505 89.4617 228.598 89.7333 228.596 90.0125C228.65 90.6809 228.596 91.3547 228.596 92.0285V92.325C228.663 92.257 228.721 92.1809 228.769 92.0986C229.093 91.3978 229.385 90.6755 229.736 89.9855C230.163 89.1393 230.616 88.2984 231.102 87.4899C231.304 87.1719 231.569 86.8986 231.88 86.6867C232.023 86.5562 232.198 86.4665 232.388 86.4269C232.577 86.3873 232.774 86.3992 232.957 86.4615C233.141 86.5238 233.304 86.6341 233.43 86.7808C233.556 86.9276 233.64 87.1054 233.673 87.2958C233.888 87.995 233.918 88.7378 233.76 89.4519C233.609 90.282 233.382 91.1068 233.187 91.9315C233.182 92.023 233.182 92.1148 233.187 92.2064L233.382 91.98C233.814 91.4409 234.246 90.945 234.689 90.4384C234.807 90.3083 234.941 90.1941 235.088 90.0988C235.958 89.5112 236.903 89.8131 237.146 90.8264C237.288 91.4085 237.317 92.0123 237.233 92.6053C237.038 93.8127 236.736 94.9986 236.471 96.1952C236.428 96.3893 236.347 96.5779 236.309 96.772C236.293 96.8629 236.293 96.9559 236.309 97.0469C236.374 97.0145 236.444 96.9876 236.503 96.9499C236.768 96.7612 237.044 96.5564 237.297 96.3785C237.529 96.2281 237.773 96.0982 238.027 95.9904C239.107 95.543 239.939 96.0497 239.998 97.2355C240.021 98.1411 239.852 99.0413 239.501 99.8768C238.828 101.602 238.118 103.31 237.373 105.003C236.352 107.315 235.299 109.612 234.235 111.903C233.22 114.059 232.177 116.247 231.151 118.42C230.87 119.007 230.611 119.605 230.335 120.193C230.211 120.441 230.298 120.559 230.535 120.635C231.075 120.802 231.648 120.942 232.156 121.174C233.889 121.853 234.316 122.635 233.852 124.446C233.387 126.257 232.771 127.982 232.166 129.728C230.876 133.502 229.585 137.275 228.24 140.994C227.311 143.587 226.268 146.137 225.323 148.719C222.223 157.149 219.139 165.583 216.071 174.021C214.213 179.147 212.452 184.311 210.622 189.448C208.461 195.453 206.344 201.468 204.14 207.451C203.06 210.378 201.791 213.241 200.657 216.157C199.576 218.884 198.593 221.633 197.594 224.383C196.374 227.746 195.148 231.104 193.997 234.489C192.377 239.227 190.757 243.944 189.336 248.747C188.472 251.722 187.678 254.719 186.841 257.706C186.668 258.331 186.473 258.951 186.301 259.576C185.372 262.713 184.367 265.834 183.53 268.998C182.412 273.224 181.369 277.477 180.392 281.741C179.733 284.587 179.16 287.455 178.631 290.328C178.41 291.53 178.285 292.748 177.978 293.939C177.92 294.296 177.752 294.626 177.497 294.883C177.243 295.14 176.914 295.311 176.557 295.373C175.278 295.624 173.978 295.757 172.674 295.772C171.277 295.837 169.874 295.894 168.466 295.944C167.591 295.977 166.711 295.944 165.836 295.993C164.48 296.047 163.135 296.139 161.78 296.214L159.225 296.349C157.675 296.419 156.119 296.478 154.569 296.564C153.192 296.634 151.815 296.764 150.438 296.807C147.656 296.888 144.869 297.012 142.093 296.952C140.683 296.952 139.284 296.996 137.885 297.066C137.383 297.066 136.886 297.141 136.384 297.152C133.278 297.222 130.167 297.292 127.056 297.346C123.945 297.4 120.737 297.438 117.577 297.47C116.071 297.47 114.564 297.529 113.062 297.47C109.751 297.319 106.441 297.578 103.135 297.47C101.877 297.438 100.624 297.47 99.3543 297.47C96.8428 297.508 94.3367 297.567 91.8307 297.626C89.8971 297.669 87.9689 297.729 86.0407 297.766C83.5076 297.82 80.9691 297.766 78.4414 297.928C75.9137 298.09 73.278 297.928 70.6963 297.928C69.4649 297.928 68.2388 297.928 67.0074 297.928C66.235 297.928 65.4573 297.831 64.6849 297.766C64.4295 297.76 64.1854 297.66 63.9984 297.486C63.8114 297.313 63.6945 297.077 63.6695 296.823C63.5237 295.858 63.4481 294.888 63.3617 293.918C63.3617 293.594 63.4103 293.26 63.3617 292.942C63.1933 290.743 63.2168 288.534 63.4319 286.339C63.4643 285.768 63.3832 285.191 63.3832 284.619C63.3832 282.916 63.3833 281.213 63.4211 279.509C63.4211 278.884 63.4211 278.259 63.4211 277.634C63.4211 276.281 63.3563 274.938 63.3347 273.58C63.2698 269.519 63.2086 265.462 63.151 261.409C63.0916 257.096 63.07 252.746 62.9728 248.418C62.8918 244.99 62.7243 241.561 62.5947 238.133C62.5947 237.707 62.5947 237.282 62.5569 236.856C62.5029 234.581 62.4705 232.301 62.3787 230.026C62.2544 226.824 62.1194 223.622 61.925 220.421C61.7305 217.219 61.4713 214.13 61.2282 210.988C61.0284 208.47 60.834 205.948 60.5801 203.441C60.2777 200.401 59.9536 197.366 59.5755 194.342C59.1434 190.817 58.6627 187.297 58.1658 183.783C57.8688 181.675 57.5015 179.584 57.1828 177.481C56.9074 175.676 56.6805 173.864 56.3835 172.064C55.8434 168.954 55.3033 165.854 54.7632 162.75C54.4499 160.949 54.1636 159.149 53.7964 157.359C53.2833 154.864 52.7162 152.373 52.176 149.888C51.4847 146.864 50.7718 143.846 50.0697 140.827C49.4701 138.245 48.9246 135.652 48.2657 133.087C47.0126 128.235 46.0675 123.276 44.9495 118.376C44.5336 116.549 44.0799 114.727 43.6802 112.894C43.2427 110.868 42.843 108.83 42.4488 106.793C42.3775 106.348 42.3359 105.9 42.3245 105.45C42.3008 105.274 42.3296 105.095 42.4074 104.935C42.4852 104.774 42.6085 104.641 42.762 104.55C43.0935 104.325 43.4579 104.152 43.8422 104.038C44.9926 103.796 46.1593 103.623 47.3151 103.429C47.9848 103.316 48.6546 103.219 49.3189 103.089C49.7348 103.014 49.7672 102.976 49.6646 102.55C49.1245 100.281 48.6168 98.0172 48.0443 95.7586C47.1824 92.4416 46.4919 89.0826 45.9756 85.6949C45.9694 85.3921 45.8994 85.0939 45.77 84.82C45.6406 84.546 45.4549 84.3023 45.2249 84.1047C44.1249 83.2736 43.0685 82.3867 42.0599 81.4473C40.5476 80.0566 39.0515 78.6443 37.6256 77.1674C35.6411 75.0767 33.8005 72.8544 32.1165 70.5157C29.2593 66.5181 26.7958 62.2543 24.7603 57.7838C23.4197 55.0337 22.335 52.1666 21.5197 49.2186C21.3556 48.5075 21.2329 47.7876 21.1524 47.0624C21.0875 46.7511 21.1382 46.4268 21.2953 46.15C21.4523 45.8733 21.7048 45.6631 22.0057 45.5585C23.5504 44.9009 25.0735 44.1894 26.6453 43.5964C30.0209 42.3135 33.4128 41.0791 36.8101 39.8609C39.3377 38.9607 41.887 38.1199 44.4255 37.2574L44.566 37.2089C45.2303 36.9771 45.2249 36.9771 45.025 36.3411C44.8252 35.705 44.6092 35.0528 44.4309 34.4005C44.0961 33.1985 43.7828 31.9857 43.4479 30.7782C43.3021 30.2392 43.1023 29.7325 42.9565 29.2043C42.7512 28.482 42.5568 27.7597 42.4164 27.0481C42.371 26.8357 42.406 26.6141 42.5147 26.4259C42.6234 26.2378 42.7981 26.0965 43.0051 26.0294C43.5452 25.7599 44.1393 25.4903 44.7226 25.2693C50.2425 23.1132 55.7462 20.9571 61.2823 18.8818C64.5229 17.6636 67.8121 16.5909 71.0906 15.4859C74.2286 14.4078 77.3666 13.3783 80.5208 12.3703C84.0747 11.2275 87.6502 10.1333 91.2149 9.01751C94.4556 8.00412 97.6962 6.97456 100.98 5.97196C104.264 4.96936 107.548 3.97214 110.842 3.00189C113.05 2.35145 115.268 1.72081 117.496 1.10991C118.847 0.743367 120.197 0.430698 121.58 0.101888C121.799 0.0477276 122.024 0.0152334 122.249 0.00486639C122.477 -0.0161345 122.705 0.0311499 122.905 0.140644C123.105 0.250139 123.268 0.416853 123.373 0.619371C123.511 0.885823 123.636 1.15932 123.745 1.43871C124.826 4.08536 125.593 6.82904 126.446 9.56193C126.732 10.4783 126.581 10.4136 127.494 10.1333C130.275 9.28164 133.035 8.37066 135.822 7.52977C138.609 6.68888 141.402 5.91268 144.205 5.11492C145.674 4.69986 147.159 4.34407 148.644 3.97753C149.033 3.88051 149.433 3.83202 149.827 3.76734C150.136 3.70351 150.458 3.74539 150.74 3.8862C151.022 4.02702 151.249 4.25858 151.383 4.54354C151.885 5.41239 152.298 6.32983 152.614 7.2818C153.623 10.0853 154.386 12.971 154.893 15.9063C155.32 18.3212 155.741 20.7576 156.017 23.1725C156.271 25.4742 156.341 27.7812 156.487 30.0775ZM132.549 57.6328C132.468 54.4741 132.339 51.3208 132.009 48.1836C131.636 44.75 131.318 41.3109 130.88 37.8881C130.394 34.1149 129.665 30.3416 128.85 26.5684C128.099 23.1455 127.272 19.7442 126.446 16.3268C125.944 14.2623 125.366 12.2086 124.826 10.1549C124.534 9.07679 124.199 7.99873 123.881 6.92066C123.805 6.67271 123.756 6.42475 123.384 6.54333C122.039 6.953 120.683 7.31956 119.349 7.74C116.551 8.62401 113.759 9.5224 110.972 10.4352C107.256 11.6588 103.551 12.9039 99.8404 14.1383C97.0102 15.0816 94.1693 15.9872 91.35 16.9628C87.1101 18.4236 82.8865 19.9383 78.6521 21.426C75.7193 22.4556 72.7811 23.4636 69.8483 24.5039C67.5583 25.3124 65.2754 26.1444 62.9998 26.9996C60.3695 27.9968 57.7338 28.9509 55.071 29.8457C52.1761 30.8214 49.3351 31.9641 46.4725 33.0368C45.981 33.2255 45.9594 33.274 46.0891 33.7537C46.2187 34.2335 46.3807 34.8318 46.5644 35.3385C47.4825 37.9312 48.3845 40.5347 49.3405 43.1167C50.3451 45.8119 51.3173 48.5825 52.4569 51.2507C53.98 54.8137 55.6489 58.3228 57.4799 61.7511C58.6681 63.9827 59.8239 66.2358 61.0554 68.4404C62.0708 70.257 63.1726 72.0196 64.242 73.8308C65.6543 76.2536 67.2315 78.5769 68.9626 80.7843C69.943 82.1241 71.0265 83.3857 72.2032 84.5575C73.1322 85.3984 74.0233 86.277 74.9631 87.1125C75.5705 87.6718 76.2127 88.1921 76.8859 88.6703C78.3928 89.7106 79.9375 90.6917 81.4606 91.7051C83.4151 92.9824 85.5286 93.9991 87.7475 94.7291C89.691 95.3997 91.6979 95.8711 93.7372 96.1359C95.888 96.3876 98.0571 96.4471 100.218 96.3138C102.921 96.1009 105.588 95.5578 108.158 94.6967C112.036 93.4839 115.72 91.8614 118.879 89.2363C120.321 88.0343 121.823 86.8807 123.135 85.5439C125.214 83.4336 126.989 81.0464 128.412 78.4503C129.441 76.7298 130.266 74.8955 130.869 72.9845C131.503 70.6134 131.924 68.1908 132.128 65.7453C132.339 63.0339 132.403 60.3334 132.549 57.6328ZM127.1 225.396C128.315 225.256 129.541 225.169 130.751 224.965C133.982 224.381 136.953 222.814 139.257 220.48C141.099 218.696 142.363 216.502 143.578 214.265C143.611 214.2 143.638 214.13 143.675 214.06C143.794 213.855 143.783 213.688 143.54 213.575C143.297 213.462 143.184 213.386 143 213.289C141.767 212.667 140.648 211.841 139.689 210.847C138.543 209.553 137.546 208.134 136.719 206.616C136.382 205.892 136.116 205.138 135.925 204.363C135.856 204.183 135.855 203.984 135.923 203.803C135.991 203.623 136.122 203.473 136.292 203.382C137.002 202.906 137.604 202.288 138.058 201.565C139.38 199.673 140.427 197.605 141.169 195.42C141.839 193.694 142.345 191.91 142.682 190.089C142.718 189.774 142.866 189.483 143.099 189.266C143.331 189.05 143.633 188.923 143.951 188.909C145.641 188.909 146.77 187.944 147.602 186.623C148.509 185.194 148.935 183.513 148.817 181.826C148.742 180.565 148.385 180.354 147.1 180.581C146.905 180.628 146.722 180.712 146.56 180.829C146.23 181.05 145.901 181.281 145.582 181.519C145.479 181.632 145.344 181.711 145.196 181.747C145.047 181.783 144.89 181.774 144.747 181.721C144.603 181.668 144.479 181.573 144.39 181.448C144.301 181.324 144.252 181.176 144.248 181.023C144.223 180.875 144.207 180.725 144.199 180.575C144.097 179.406 144.021 178.231 143.875 177.066C143.736 175.949 143.43 174.859 142.968 173.832C142.887 173.643 142.725 173.401 142.557 173.352C141.97 173.203 141.373 173.101 140.77 173.045C139.446 172.916 138.123 172.835 136.8 172.727C136.425 172.708 136.052 172.667 135.682 172.603C135.545 172.59 135.413 172.547 135.294 172.479C135.174 172.411 135.071 172.318 134.991 172.207C134.91 172.096 134.854 171.969 134.826 171.835C134.798 171.701 134.799 171.562 134.828 171.428C134.828 171.255 134.899 171.083 134.931 170.889C135.093 170.113 135.298 169.935 136.103 169.935C137.255 169.854 138.414 169.946 139.538 170.21C139.586 170.218 139.636 170.218 139.684 170.21C139.733 170.21 139.781 170.21 139.835 170.21C139.818 170.148 139.792 170.088 139.76 170.032C139.663 169.95 139.562 169.875 139.457 169.805C137.109 168.084 134.482 166.778 131.69 165.946C130.437 165.59 129.157 165.348 127.91 165.04C125.355 164.426 122.784 163.833 120.532 162.345L120.467 162.313C120.213 162.157 120.138 162.237 120.111 162.518C120.003 163.714 119.9 164.911 119.743 166.102C119.528 167.714 119.143 169.299 118.593 170.83C118.512 171.056 118.539 171.164 118.804 171.105C119.295 170.997 119.781 170.867 120.273 170.776C120.712 170.686 121.158 170.628 121.607 170.603C121.859 170.558 122.119 170.607 122.337 170.742C122.556 170.876 122.717 171.086 122.79 171.331C122.989 172.409 122.854 172.948 121.812 173.282L121.38 173.406C120.03 173.794 118.679 174.193 117.34 174.565C117.161 174.614 116.994 174.7 116.849 174.816C116.705 174.933 116.587 175.079 116.503 175.244C115.871 176.322 115.223 177.4 114.531 178.441C114.14 179.013 113.703 179.552 113.224 180.052C113.017 180.269 112.764 180.436 112.484 180.543C112.376 180.594 112.258 180.621 112.138 180.624C112.018 180.627 111.899 180.604 111.789 180.559C111.678 180.513 111.578 180.445 111.495 180.359C111.412 180.273 111.348 180.17 111.307 180.058C111.231 179.902 111.188 179.724 111.102 179.573C110.599 178.694 109.422 178.171 108.52 179.341C108.334 179.576 108.181 179.835 108.066 180.112C107.675 181.144 107.499 182.245 107.551 183.347C107.602 184.449 107.878 185.529 108.363 186.521C108.5 186.833 108.702 187.113 108.955 187.342C109.208 187.57 109.507 187.742 109.832 187.847C110.263 188.023 110.735 188.074 111.193 187.993C111.651 187.912 112.076 187.702 112.419 187.389C112.524 187.268 112.66 187.18 112.812 187.133C112.964 187.086 113.126 187.083 113.28 187.124C113.434 187.165 113.573 187.249 113.682 187.365C113.79 187.482 113.864 187.626 113.894 187.782C113.985 188.042 114.051 188.309 114.094 188.58C114.353 190.057 114.569 191.545 114.877 193.011C115.307 195.25 116.199 197.376 117.496 199.253C118.731 200.893 120.386 202.172 122.287 202.954C124.187 203.737 126.264 203.994 128.299 203.7C128.57 203.658 128.845 203.633 129.12 203.624C129.259 203.615 129.399 203.652 129.515 203.73C129.631 203.808 129.718 203.923 129.762 204.056C129.83 204.192 129.851 204.347 129.821 204.497C129.79 204.646 129.711 204.781 129.595 204.88C129.426 205.026 129.224 205.128 129.006 205.177C127.383 205.513 125.709 205.526 124.08 205.215C122.653 204.931 121.279 204.427 120.008 203.721C119.614 203.5 119.614 203.517 119.468 203.959C119.203 204.767 118.971 205.576 118.652 206.373C118.274 207.298 117.724 208.143 117.032 208.864C115.636 210.318 113.858 211.349 111.901 211.839C111.361 211.979 111.361 212.017 111.469 212.567C111.993 215.335 113.231 217.919 115.061 220.065C115.74 220.902 116.528 221.646 117.405 222.275C120.242 224.277 123.625 225.366 127.1 225.396ZM147.083 29.2474C147.024 27.9214 146.954 26.5953 146.911 25.2693C146.849 22.9944 146.627 20.7268 146.246 18.4829C146.025 17.2 145.814 15.9171 145.566 14.645C145.458 14.106 145.355 14.0574 144.853 14.1868C143.589 14.4994 142.329 14.8247 141.072 15.1625C139.819 15.5074 138.566 15.874 137.291 16.2405C134.623 17.0167 131.955 17.8019 129.287 18.5961C128.833 18.7308 128.823 18.7632 128.931 19.2322C129.265 20.6983 129.627 22.1537 129.941 23.6199C130.481 26.1911 131.064 28.7569 131.528 31.3388C131.993 33.9208 132.414 36.6699 132.771 39.3435C133.116 41.9254 133.37 44.5128 133.629 47.1001C133.781 48.6418 133.867 50.1942 133.975 51.7412C134.197 54.5349 134.25 57.3394 134.132 60.1393C134.089 60.991 134.089 61.8427 134.083 62.6944C134.1 62.8306 134.133 62.9644 134.18 63.0932C134.297 63.0613 134.408 63.0122 134.51 62.9477C135.406 62.1877 136.362 61.4815 137.178 60.6406C139.792 57.9455 141.499 54.6843 142.86 51.2507C144.135 48.0383 145.101 44.7117 145.744 41.3163C146.546 37.3402 147 33.302 147.1 29.2474H147.083ZM68.0282 84.2287H69.0058C69.292 84.2287 69.2812 84.0886 69.1354 83.9053C68.9896 83.722 68.9788 83.7058 68.9031 83.6088C68.0984 82.5847 67.2396 81.5982 66.4997 80.5309C65.2844 78.7845 64.1178 77.0003 62.9836 75.2053C60.9366 71.9711 59.0408 68.6345 57.2639 65.2386C55.9532 62.7231 54.6767 60.2076 53.4345 57.6921C52.4299 55.6222 51.4685 53.5254 50.5665 51.407C49.751 49.4988 49.038 47.5476 48.2819 45.6124C48.1847 45.3483 48.1145 45.1758 47.7418 45.3052C45.4842 46.1299 43.1995 46.9222 40.9473 47.7416C38.0415 48.8196 35.1519 49.9786 32.2516 51.0944C31.625 51.3423 31.5872 51.4232 31.8303 52.0323C31.8735 52.1455 31.9275 52.2641 31.9815 52.3719C32.8457 54.0375 33.645 55.7462 34.5956 57.3579C35.7352 59.2984 36.9775 61.1851 38.2359 63.0501C39.2567 64.5648 40.3964 65.9771 41.4388 67.4971C43.6204 70.6879 46.381 73.4431 49.5781 75.6204C49.6664 75.683 49.7665 75.7272 49.8723 75.7504C49.9781 75.7736 50.0874 75.7752 50.1939 75.7551C50.5191 75.6594 50.8604 75.6301 51.1973 75.669C51.5341 75.7079 51.8597 75.8142 52.1545 75.9815C52.3442 76.0921 52.5613 76.1472 52.781 76.1405C53.0006 76.1338 53.214 76.0656 53.3967 75.9438C53.8285 75.6306 54.3572 75.4795 54.8897 75.517C55.4221 75.5544 55.9243 75.7781 56.3079 76.1486C56.3916 76.2191 56.4948 76.2625 56.6038 76.2731C56.7128 76.2836 56.8224 76.2609 56.9182 76.2079C57.3065 76.0592 57.7275 76.0168 58.1377 76.085C58.548 76.1532 58.9325 76.3297 59.2515 76.596C59.8342 77.0749 60.3106 77.6696 60.6503 78.3425C61.2339 79.4214 61.6785 80.5697 61.9736 81.7599C62.0475 82.1011 62.1413 82.4377 62.2544 82.7679C62.2812 82.8462 62.3237 82.9182 62.3794 82.9794C62.4352 83.0406 62.5029 83.0897 62.5785 83.1237C64.3441 83.7258 66.1822 84.0902 68.0444 84.2071L68.0282 84.2287ZM145.042 126.424C144.999 126.279 144.972 126.182 144.939 126.085C144.087 123.359 143.086 120.681 141.942 118.064C141.682 117.476 141.661 117.455 141.056 117.697C139.079 118.495 137.108 119.314 135.142 120.123C132.9 121.066 130.68 122.058 128.434 122.98C125.836 124.058 123.205 125.028 120.607 126.095C118.01 127.163 115.444 128.305 112.846 129.383C110.734 130.251 108.601 131.06 106.484 131.901C105.53 132.285 104.577 132.673 103.627 133.065C103.189 133.248 103.173 133.286 103.297 133.739C103.335 133.884 103.384 134.03 103.432 134.17C104.318 136.617 105.193 139.07 106.084 141.517C106.527 142.725 106.549 142.735 107.758 142.288C109.919 141.479 112.133 140.671 114.294 139.808C117.081 138.676 119.846 137.496 122.6 136.288C126.554 134.558 130.47 132.758 134.423 131.033C137.318 129.772 140.24 128.575 143.152 127.351C143.692 127.13 144.232 126.915 144.772 126.677C144.88 126.6 144.976 126.507 145.058 126.403L145.042 126.424ZM217.632 117.072C217.632 117.611 217.632 117.611 218.205 117.751C219.825 118.085 221.483 118.446 223.12 118.829C224.756 119.212 226.43 119.616 228.083 120.037C228.152 120.076 228.23 120.098 228.31 120.101C228.389 120.103 228.469 120.086 228.54 120.051C228.611 120.016 228.673 119.964 228.72 119.899C228.766 119.835 228.796 119.76 228.807 119.681C229.05 119.083 229.347 118.49 229.601 117.902C230.546 115.913 231.513 113.935 232.442 111.94C233.641 109.353 234.835 106.766 235.985 104.157C236.73 102.464 237.405 100.739 238.086 99.0197C238.174 98.6671 238.22 98.3051 238.221 97.9417C237.94 98.1441 237.674 98.3675 237.427 98.6101C236.437 99.6757 235.633 100.9 235.051 102.232C234.911 102.55 234.715 102.841 234.473 103.089C234.357 103.185 234.216 103.247 234.067 103.267C233.918 103.287 233.766 103.265 233.628 103.203C233.491 103.141 233.374 103.042 233.29 102.918C233.207 102.793 233.16 102.647 233.155 102.497C233.154 102.273 233.183 102.05 233.241 101.834C233.781 99.7582 234.381 97.6883 234.937 95.613C235.142 94.8638 235.321 94.1092 235.477 93.3491C235.523 92.9755 235.54 92.5988 235.526 92.2225C235.276 92.4963 235.047 92.7882 234.84 93.0958C233.243 95.8992 231.914 98.8463 230.87 101.898C230.84 102.019 230.799 102.136 230.746 102.249C230.664 102.405 230.535 102.533 230.378 102.614C230.22 102.695 230.041 102.726 229.866 102.701C229.7 102.693 229.542 102.628 229.419 102.517C229.296 102.406 229.215 102.256 229.19 102.092C229.142 101.775 229.153 101.451 229.223 101.138C229.86 98.4861 230.508 95.8395 231.167 93.1982C231.453 92.0555 231.783 90.9289 232.091 89.7969C232.104 89.6985 232.104 89.5988 232.091 89.5004C232.019 89.5642 231.956 89.6366 231.902 89.716C231.297 91.0906 230.649 92.4489 230.109 93.845C229.201 96.2006 228.364 98.5831 227.5 100.955C227.444 101.121 227.377 101.283 227.3 101.44C227.223 101.597 227.127 101.743 227.014 101.877C226.907 102.018 226.757 102.122 226.587 102.171C226.417 102.221 226.235 102.214 226.069 102.152C225.903 102.094 225.761 101.985 225.664 101.84C225.566 101.695 225.519 101.523 225.529 101.348C225.526 101.168 225.54 100.987 225.572 100.809C225.953 98.5202 226.34 96.2276 226.733 93.9313C226.782 93.6402 226.836 93.3438 226.879 93.0473C226.889 92.9758 226.889 92.9031 226.879 92.8316C226.835 92.8905 226.797 92.9537 226.765 93.0203C226.711 93.1335 226.663 93.2467 226.614 93.3653C225.993 94.9824 225.361 96.6319 224.751 98.2705C223.833 100.702 222.936 103.122 222.05 105.58C221.997 105.745 221.93 105.905 221.85 106.06C221.776 106.221 221.66 106.359 221.514 106.46C221.368 106.562 221.198 106.622 221.02 106.636C220.843 106.65 220.666 106.616 220.506 106.538C220.346 106.461 220.21 106.342 220.111 106.194C219.902 105.909 219.721 105.604 219.571 105.283C219.09 104.324 218.621 103.354 218.145 102.389C218.091 102.312 218.03 102.242 217.962 102.178C217.954 102.277 217.954 102.376 217.962 102.475C218.07 103.871 218.188 105.267 218.291 106.663C218.378 107.86 218.455 109.058 218.523 110.259C218.62 111.758 218.535 113.264 218.269 114.743C218.005 115.541 217.81 116.29 217.648 117.05L217.632 117.072ZM47.9308 86.2231C48.2279 87.754 48.4709 89.3064 48.8328 90.8426C49.562 94.1577 50.3343 97.4673 51.0851 100.777C51.1877 101.241 51.2579 101.71 51.3659 102.173C51.4739 102.637 51.5279 102.631 51.906 102.561C52.6189 102.432 53.3427 102.373 54.0664 102.27C56.3169 101.936 58.5673 101.598 60.8177 101.257C61.3578 101.17 61.9466 101.036 62.5083 100.928C62.7513 100.879 62.8594 100.755 62.7676 100.502C62.7452 100.404 62.729 100.305 62.7189 100.206C62.276 97.7261 61.8169 95.2465 61.4011 92.7562C61.3898 92.561 61.3143 92.375 61.1864 92.2269C61.0585 92.0788 60.8853 91.9768 60.6935 91.9369C56.2703 90.6136 52.0796 88.6134 48.2711 86.0075C48.1891 85.9576 48.1022 85.9161 48.0118 85.8835L47.9308 86.2231ZM54.7956 77.0596C54.5039 77.1835 54.2555 77.2752 54.007 77.3938C53.6775 77.5555 53.3589 77.7441 53.0294 77.9328C52.7972 78.046 52.997 78.1268 53.0618 78.17L55.125 79.5337C56.4821 80.4607 57.9298 81.2482 59.4459 81.8839L60.3425 82.2666C60.2723 81.9378 60.2345 81.5982 60.1372 81.2802C59.8365 80.1951 59.3365 79.1752 58.6627 78.2724C58.1226 77.5932 57.8364 77.5662 57.0856 78.0244C56.981 78.1048 56.8616 78.1639 56.7341 78.1982C56.6066 78.2325 56.4736 78.2414 56.3427 78.2244C56.2118 78.2074 56.0855 78.1648 55.9711 78.099C55.8567 78.0333 55.7564 77.9456 55.676 77.8412C55.5355 77.6956 55.4329 77.5177 55.2817 77.3884C55.1273 77.2791 54.9648 77.1818 54.7956 77.0973V77.0596Z" fill="#191919"/>
<path d="M17.2633 80.7787C17.2309 80.9135 17.1823 81.1614 17.1121 81.3986C16.68 82.8108 16.2641 84.2231 15.805 85.6246C15.7397 85.7824 15.7275 85.9571 15.7704 86.1224C15.8132 86.2877 15.9088 86.4346 16.0427 86.541C17.2093 87.7484 18.3543 88.972 19.4616 90.2279C20.3797 91.2737 20.0881 92.1415 18.7162 92.3302C17.1337 92.5512 15.5296 92.6644 13.9308 92.7722C13.7388 92.7577 13.5469 92.8013 13.3802 92.8975C13.2134 92.9937 13.0797 93.1379 12.9965 93.3112C12.4186 94.4755 11.8028 95.6237 11.1871 96.7718C10.9791 97.1715 10.7389 97.5537 10.4688 97.9145C9.82065 98.7285 8.91328 98.5991 8.55141 97.6289C8.0113 96.2004 7.5306 94.7558 7.0283 93.3166C6.98247 93.2012 6.94633 93.0822 6.92028 92.9608C6.83926 92.4919 6.56382 92.3464 6.09393 92.2709C4.47361 92.0175 2.89109 91.7049 1.29238 91.403C1.04678 91.3566 0.808711 91.2768 0.584842 91.1658C0.44596 91.1056 0.323079 91.0139 0.226013 90.8979C0.128948 90.7819 0.0603709 90.6449 0.0257481 90.4978C-0.00887469 90.3507 -0.00857161 90.1975 0.0266052 90.0505C0.0617821 89.9036 0.130852 89.7668 0.228354 89.6512C0.364733 89.4712 0.520521 89.3067 0.69287 89.1607L4.21434 86.1097C4.34937 85.9965 4.47899 85.8833 4.61942 85.7755C4.72419 85.7062 4.8015 85.6027 4.83798 85.4826C4.87446 85.3626 4.86782 85.2336 4.81926 85.1179C4.50599 83.6248 4.21436 82.1263 3.9281 80.6278C3.85897 80.311 3.82992 79.9869 3.84166 79.6629C3.84024 79.5317 3.86983 79.402 3.928 79.2843C3.98617 79.1666 4.0713 79.0642 4.17649 78.9855C4.28169 78.9067 4.40401 78.8538 4.53351 78.831C4.66301 78.8083 4.79605 78.8163 4.92188 78.8544C5.30692 78.9537 5.6722 79.1178 6.00209 79.3395C7.27674 80.1858 8.54599 81.0374 9.78283 81.9376C9.92997 82.0669 10.1162 82.1434 10.3118 82.1551C10.5075 82.1669 10.7015 82.1131 10.863 82.0023C12.2943 81.2854 13.7418 80.6008 15.1839 79.9216C15.4783 79.7838 15.7913 79.6893 16.1129 79.6413C16.8042 79.5766 17.2525 79.9971 17.2633 80.7787ZM13.5474 91.112C14.768 91.0149 15.9671 90.9341 17.1607 90.8263C17.609 90.7885 17.6522 90.6861 17.3389 90.3411C16.4639 89.3817 15.5674 88.4384 14.687 87.4843C14.4656 87.2471 14.2549 86.9938 14.0605 86.7404C13.9507 86.6027 13.879 86.4386 13.8525 86.2646C13.8259 86.0906 13.8455 85.9127 13.9092 85.7486C14.2387 84.7514 14.5628 83.7488 14.8707 82.7516C14.9571 82.4767 15.0057 82.1856 15.0705 81.9053C14.7854 81.9774 14.5056 82.0692 14.2333 82.1802C13.0235 82.7731 11.8136 83.3876 10.6092 83.9967C9.93948 84.3309 9.69103 84.2878 9.16173 83.7434C8.96588 83.5492 8.7565 83.3691 8.53519 83.2044C7.82765 82.6653 7.11471 82.1802 6.37476 81.6735C6.20143 81.5709 6.02093 81.4808 5.83466 81.404C5.79557 81.5936 5.78285 81.7877 5.79685 81.9807C6.01289 83.1127 6.24154 84.2393 6.48279 85.3605C6.65022 86.1151 6.56921 86.2876 5.97509 86.7674C4.92728 87.619 3.9065 88.503 2.8857 89.387C2.74047 89.5525 2.6137 89.7333 2.50762 89.9261C2.68234 90.0004 2.86301 90.0599 3.04772 90.104C4.25756 90.298 5.47279 90.4759 6.68263 90.643C6.95419 90.6839 7.22295 90.7415 7.48738 90.8155C7.66412 90.8772 7.82178 90.9836 7.94488 91.1244C8.06797 91.2652 8.15229 91.4355 8.18954 91.6186C8.58382 92.9069 9.02129 94.179 9.45337 95.4566C9.51182 95.5579 9.58875 95.6475 9.68021 95.7207C9.76907 95.6438 9.84881 95.557 9.91786 95.462C10.458 94.3839 11.0575 93.3436 11.5382 92.2278C11.9973 91.333 12.5374 90.8263 13.5474 91.112Z" fill="#191919"/>
<path d="M161.293 96.1174C161.109 96.1206 160.927 96.0808 160.761 96.0012C160.595 95.9217 160.45 95.8046 160.337 95.6593C159.306 94.5003 158.263 93.3522 157.237 92.1879C156.767 91.6489 156.778 91.6488 156.103 91.8752L152.393 93.0989C152.177 93.1689 151.96 93.2228 151.739 93.2767C151.296 93.3899 150.815 93.5139 150.491 93.0773C150.32 92.8572 150.22 92.5906 150.204 92.3126C150.187 92.0345 150.256 91.7581 150.4 91.5195C151.091 90.242 151.793 88.9752 152.49 87.7031C152.544 87.5906 152.607 87.4825 152.679 87.3797C152.782 87.2562 152.835 87.0989 152.828 86.9385C152.821 86.7781 152.754 86.626 152.641 86.5119C151.636 84.9864 150.659 83.4448 149.676 81.9031C149.569 81.7316 149.477 81.5513 149.4 81.3641C149.044 80.4801 149.552 79.747 150.481 79.8656C151.896 80.0381 153.305 80.2591 154.72 80.4693C155.212 80.5448 155.709 80.6202 156.2 80.7173C156.355 80.7582 156.519 80.7459 156.666 80.6823C156.813 80.6188 156.934 80.5077 157.01 80.3669C157.864 79.2296 158.755 78.1138 159.641 76.998C159.862 76.7266 160.104 76.4725 160.365 76.2379C160.502 76.0725 160.683 75.9493 160.888 75.8825C161.092 75.8157 161.312 75.8082 161.52 75.8606C161.736 75.9359 161.923 76.0755 162.057 76.2607C162.19 76.4459 162.263 76.6675 162.266 76.8955C162.395 77.731 162.498 78.5773 162.574 79.4236C162.649 80.2699 162.709 81.2186 162.741 82.1188C162.741 82.4745 162.979 82.5608 163.227 82.6955C164.442 83.3478 165.647 84.0108 166.851 84.6792C167.182 84.858 167.499 85.0635 167.796 85.2937C167.952 85.3802 168.081 85.5065 168.171 85.6595C168.261 85.8125 168.308 85.9868 168.308 86.1642C168.308 86.3416 168.261 86.5158 168.171 86.6689C168.081 86.8219 167.952 86.9482 167.796 87.0347C167.594 87.1819 167.379 87.31 167.154 87.4175C165.965 88.0104 164.783 88.6087 163.589 89.1909C163.478 89.233 163.381 89.3062 163.31 89.4018C163.239 89.4974 163.197 89.6113 163.189 89.7299C163.006 91.347 162.8 92.9641 162.606 94.5812C162.587 94.7627 162.557 94.9428 162.514 95.1202C162.309 95.8587 161.974 96.1228 161.293 96.1174ZM152.452 81.736V81.7953L151.852 81.7253C151.631 81.6929 151.561 81.7845 151.674 81.9678C151.901 82.3559 152.139 82.7386 152.393 83.1106C153.008 84.0215 153.624 84.9379 154.272 85.8057C154.458 86.0441 154.569 86.3325 154.59 86.634C154.611 86.9354 154.542 87.2363 154.391 87.4983C154.283 87.7193 154.159 87.9349 154.045 88.1613C153.629 88.9591 153.208 89.7514 152.798 90.5546C152.679 90.7918 152.592 91.0451 152.495 91.2877C152.754 91.2284 153.035 91.1907 153.278 91.1098C154.305 90.781 155.331 90.4576 156.346 90.0964C156.595 89.9729 156.879 89.9403 157.15 90.0044C157.42 90.0684 157.659 90.2249 157.826 90.4468C158.01 90.6786 158.215 90.8996 158.42 91.1206C159.198 91.9723 159.97 92.8185 160.753 93.6648C160.829 93.7246 160.913 93.7736 161.002 93.8104C161.027 93.7436 161.046 93.6752 161.061 93.6055C161.261 92.0963 161.483 90.5869 161.639 89.0723C161.651 88.7737 161.75 88.4851 161.925 88.2426C162.1 88 162.342 87.8143 162.622 87.7085C163.632 87.2665 164.61 86.7598 165.598 86.2693C165.949 86.0968 165.955 86.0213 165.641 85.8435C164.394 85.1535 163.146 84.4581 161.861 83.8167C161.615 83.7285 161.404 83.5655 161.257 83.3507C161.109 83.1359 161.033 82.8803 161.04 82.6201C161.04 81.4719 160.942 80.3238 160.872 79.1756C160.838 78.9057 160.782 78.6389 160.705 78.3779C160.491 78.5391 160.292 78.7195 160.111 78.9169C159.392 79.844 158.663 80.7658 157.993 81.7306C157.854 81.984 157.633 82.183 157.367 82.2955C157.1 82.408 156.803 82.4274 156.524 82.3505C156.427 82.3505 156.325 82.3182 156.227 82.302L152.452 81.736Z" fill="#191919"/>
<path d="M194.077 37.7488C193.148 37.7057 192.219 37.6787 191.295 37.614C191.122 37.5887 190.946 37.6158 190.789 37.6917C190.632 37.7676 190.502 37.8889 190.415 38.0399C189.734 39.0586 189.032 40.0666 188.324 41.0692C188.006 41.5166 187.665 41.9479 187.32 42.3791C187.198 42.537 187.052 42.6752 186.888 42.7887C186.781 42.8679 186.659 42.9231 186.529 42.9505C186.4 42.978 186.266 42.9771 186.136 42.9479C186.007 42.9187 185.886 42.8619 185.78 42.7814C185.675 42.7009 185.589 42.5986 185.527 42.4815C185.369 42.1989 185.246 41.8985 185.159 41.5867C184.738 40.223 184.311 38.8646 183.939 37.4847C183.896 37.2799 183.795 37.0919 183.647 36.9435C183.5 36.7952 183.312 36.6929 183.107 36.6492C181.708 36.2503 180.32 35.8299 178.932 35.404C178.618 35.3173 178.317 35.1905 178.035 35.0267C177.913 34.9609 177.808 34.8668 177.729 34.7522C177.651 34.6375 177.601 34.5058 177.584 34.3679C177.567 34.2301 177.584 34.0902 177.632 33.96C177.681 33.8298 177.76 33.7132 177.863 33.6198C177.963 33.5069 178.077 33.4072 178.203 33.3233C179.38 32.5202 180.552 31.7062 181.757 30.9354C181.941 30.8432 182.092 30.6962 182.189 30.5146C182.285 30.3331 182.323 30.126 182.297 29.922C182.227 28.1486 182.259 26.3752 182.221 24.5964C182.199 24.414 182.229 24.229 182.307 24.0629C182.386 23.8968 182.511 23.7564 182.666 23.6582C182.822 23.5599 183.002 23.5078 183.186 23.5078C183.371 23.5079 183.551 23.5601 183.707 23.6585C183.957 23.7734 184.199 23.9067 184.43 24.0574C185.51 24.7689 186.618 25.4696 187.671 26.2135C187.842 26.367 188.056 26.466 188.284 26.4977C188.512 26.5294 188.744 26.4924 188.951 26.3914C190.371 25.8524 191.824 25.3619 193.272 24.8606C194.476 24.4401 195.286 24.9468 194.892 26.4399C194.555 27.9038 194.062 29.3277 193.423 30.6875C193.311 30.8739 193.264 31.0923 193.291 31.3082C193.317 31.524 193.415 31.7248 193.569 31.8787C194.568 33.1562 195.508 34.4877 196.442 35.8191C197.036 36.6707 196.664 37.4362 195.621 37.6087C195.081 37.6895 194.573 37.7165 194.05 37.7704L194.077 37.7488ZM193.866 36.0455H194.244C194.492 36.0455 194.568 35.9862 194.422 35.7598C194.276 35.5334 194.19 35.3717 194.06 35.1884C193.299 34.1642 192.543 33.1347 191.76 32.1267C191.219 31.4314 191.219 31.302 191.603 30.5096C192.1 29.4315 192.505 28.3535 192.937 27.2754C192.98 27.0987 193.006 26.9181 193.013 26.7364C192.845 26.7741 192.672 26.7957 192.51 26.8496C191.333 27.2646 190.145 27.6635 188.978 28.1163C188.651 28.2725 188.285 28.3301 187.925 28.2823C187.565 28.2344 187.227 28.0831 186.953 27.8468C186.083 27.173 185.165 26.5585 184.252 25.9386C183.885 25.6853 183.809 25.723 183.815 26.1219C183.815 27.4964 183.815 28.8763 183.928 30.2455C183.992 30.59 183.943 30.946 183.787 31.26C183.631 31.574 183.377 31.829 183.064 31.9866C182.475 32.3208 181.903 32.6819 181.346 33.0646C180.952 33.3341 180.601 33.6522 180.228 33.9432C180.617 34.3152 181.146 34.2775 181.611 34.4284C182.47 34.7033 183.339 34.9351 184.198 35.2153C184.449 35.2857 184.676 35.4234 184.854 35.6135C185.032 35.8036 185.155 36.0387 185.208 36.2934C185.478 37.3337 185.856 38.3417 186.191 39.3659C186.315 39.7432 186.439 40.1259 186.569 40.5033C186.823 40.1744 187.109 39.8564 187.331 39.5168C188.081 38.4873 188.821 37.447 189.561 36.412C189.715 36.1997 189.926 36.036 190.171 35.9404C190.415 35.8448 190.681 35.8214 190.939 35.873C191.911 35.9538 192.894 35.9808 193.866 36.0347V36.0455Z" fill="#191919"/>
<path d="M208.705 65.5583C208.381 65.5745 208.056 65.5745 207.733 65.5583C207.56 65.5257 207.381 65.5527 207.226 65.635C207.071 65.7173 206.949 65.85 206.879 66.0111C206.528 66.6418 206.128 67.2509 205.729 67.8546C205.51 68.1918 205.264 68.5109 204.994 68.8087C204.886 68.9668 204.733 69.0893 204.555 69.1605C204.377 69.2317 204.182 69.2485 203.994 69.2086C203.807 69.1687 203.635 69.074 203.502 68.9366C203.368 68.7992 203.278 68.6251 203.244 68.4368C202.924 67.5685 202.673 66.6763 202.494 65.7685C202.491 65.572 202.448 65.378 202.368 65.1983C202.288 65.0187 202.173 64.8572 202.028 64.7236C201.884 64.59 201.714 64.4871 201.528 64.4212C201.342 64.3553 201.145 64.3277 200.949 64.3401C200.129 64.2382 199.316 64.0907 198.513 63.8981C198.016 63.7957 197.492 63.6825 197.368 63.0842C197.244 62.4858 197.649 62.1139 198.108 61.8175C198.967 61.2784 199.825 60.6909 200.695 60.1464C200.861 60.0669 200.996 59.9338 201.077 59.7686C201.159 59.6033 201.182 59.4155 201.143 59.2355C201.014 58.1197 200.987 56.9877 200.943 55.8665C200.935 55.5925 200.973 55.3191 201.057 55.058C201.086 54.9222 201.148 54.7956 201.237 54.6889C201.326 54.5823 201.44 54.4989 201.569 54.4458C201.697 54.3928 201.837 54.3717 201.975 54.3845C202.114 54.3972 202.247 54.4433 202.364 54.5189C202.645 54.6758 202.912 54.8562 203.163 55.058C203.844 55.597 204.53 56.0767 205.194 56.6104C205.312 56.7201 205.463 56.7888 205.624 56.8062C205.784 56.8237 205.946 56.789 206.085 56.7074C207.025 56.2923 207.981 55.915 208.932 55.5323C209.184 55.4199 209.448 55.3385 209.72 55.2897C209.856 55.2616 209.996 55.2664 210.13 55.3039C210.263 55.3413 210.386 55.4102 210.487 55.5048C210.588 55.5995 210.665 55.717 210.711 55.8475C210.757 55.978 210.771 56.1176 210.752 56.2546C210.718 56.5282 210.649 56.7963 210.546 57.0524C210.217 57.9957 209.888 58.939 209.531 59.8715C209.464 60.0174 209.441 60.1793 209.464 60.3379C209.487 60.4966 209.555 60.6453 209.661 60.7663C210.201 61.4832 210.741 62.2271 211.243 62.9602C211.362 63.1219 211.481 63.2836 211.589 63.4507C212.275 64.491 211.956 65.2403 210.73 65.4182C210.06 65.5152 209.385 65.5529 208.71 65.6122L208.705 65.5583ZM208.111 63.8604V63.8927C208.559 63.8927 209.013 63.8927 209.461 63.8927C209.823 63.8927 209.85 63.828 209.628 63.5046C209.137 62.7769 208.64 62.06 208.127 61.3485C207.948 61.1386 207.831 60.884 207.787 60.6122C207.744 60.3405 207.775 60.062 207.878 59.8068C208.138 59.16 208.343 58.4862 208.564 57.8232C208.58 57.7323 208.58 57.6392 208.564 57.5483C208.493 57.5587 208.422 57.575 208.354 57.5968C207.689 57.8825 207.009 58.1359 206.366 58.4754C206.12 58.6287 205.83 58.695 205.542 58.6637C205.254 58.6324 204.985 58.5054 204.778 58.303C204.238 57.8502 203.666 57.4513 203.104 57.0362C202.98 56.954 202.85 56.8818 202.715 56.8206C202.681 56.9583 202.663 57.0993 202.661 57.241C202.682 57.8658 202.742 58.4886 202.839 59.1061C202.939 59.5101 202.903 59.9354 202.737 60.317C202.571 60.6986 202.284 61.0155 201.921 61.2191C201.381 61.5856 200.841 61.963 200.301 62.3349C200.264 62.367 200.232 62.4031 200.203 62.4427C200.252 62.4751 200.295 62.529 200.349 62.5397C200.938 62.6529 201.527 62.7769 202.121 62.8524C202.525 62.8723 202.91 63.0341 203.206 63.3092C203.502 63.5844 203.692 63.9552 203.741 64.3563C203.774 64.5288 203.828 64.6959 203.871 64.8684C204.006 65.3481 204.135 65.8278 204.281 66.3076C204.327 66.4212 204.385 66.5297 204.454 66.631C204.535 66.5531 204.609 66.4683 204.676 66.3776C205.043 65.7793 205.415 65.1864 205.756 64.5773C205.864 64.3493 206.038 64.1591 206.255 64.0312C206.473 63.9033 206.724 63.8438 206.976 63.8604C207.354 63.8658 207.743 63.8604 208.111 63.8604Z" fill="#191919"/>
<path d="M27.8393 121.637C26.6079 121.255 25.9328 121.923 25.3333 122.872C24.9499 123.429 24.5101 123.946 24.0208 124.413C23.9144 124.557 23.7704 124.668 23.6048 124.735C23.4391 124.802 23.2581 124.822 23.0817 124.793C22.9053 124.764 22.7403 124.687 22.6048 124.571C22.4694 124.454 22.3688 124.303 22.3141 124.133C22.0517 123.457 21.8245 122.768 21.6335 122.069C21.5395 121.757 21.4637 121.44 21.4067 121.12C21.3846 120.958 21.3097 120.807 21.1936 120.691C21.0775 120.575 20.9266 120.501 20.764 120.479C20.0834 120.322 19.4029 120.155 18.7224 119.983C18.4298 119.917 18.1426 119.828 17.8636 119.718C17.6902 119.675 17.5329 119.583 17.4103 119.453C17.2877 119.323 17.205 119.161 17.172 118.986C17.1391 118.811 17.1572 118.629 17.2242 118.464C17.2913 118.299 17.4045 118.156 17.5503 118.053C17.7478 117.852 17.965 117.671 18.1985 117.514C18.7818 117.126 19.3759 116.748 19.97 116.376C20.1048 116.313 20.2133 116.204 20.2772 116.07C20.3412 115.935 20.3567 115.783 20.3211 115.638C20.1914 114.824 20.1212 114.021 20.0186 113.18C19.943 112.609 19.9484 112.059 20.4885 111.703C21.0286 111.347 21.6065 111.568 22.1088 111.924C22.8596 112.463 23.5833 113.045 24.3125 113.622C24.7661 113.989 24.7824 114.01 25.3009 113.735C25.8194 113.46 26.2676 113.212 26.8077 112.916C27.0904 112.757 27.3869 112.623 27.6935 112.517C28.5361 112.258 29.1302 112.76 28.9466 113.595C28.7728 114.402 28.5491 115.198 28.2768 115.978C28.1994 116.159 28.1731 116.357 28.2007 116.552C28.2283 116.747 28.3088 116.93 28.4335 117.083C28.9358 117.767 29.4057 118.479 29.881 119.185C30.0328 119.384 30.1683 119.595 30.286 119.816C30.3969 119.978 30.4627 120.167 30.4768 120.364C30.4908 120.56 30.4525 120.757 30.3659 120.933C30.2792 121.11 30.1473 121.261 29.9834 121.37C29.8195 121.48 29.6295 121.544 29.4327 121.557C29.1338 121.598 28.8324 121.618 28.5307 121.616C28.293 121.643 28.0662 121.637 27.8393 121.637ZM26.8942 119.972H27.8177C28.2768 119.972 28.3579 119.864 28.0878 119.492C27.6557 118.818 27.2236 118.139 26.7375 117.503C26.5933 117.331 26.4961 117.124 26.4554 116.903C26.4147 116.682 26.4319 116.454 26.5053 116.242C26.6133 115.881 26.7429 115.53 26.851 115.164C26.851 115.083 26.8185 114.98 26.8023 114.889C26.7287 114.897 26.6562 114.913 26.5863 114.937C26.2136 115.142 25.8464 115.358 25.4683 115.557C24.5177 116.064 24.3017 116.015 23.4969 115.25C23.0432 114.819 22.5571 114.42 22.0818 114.016C22.0028 113.973 21.9168 113.946 21.828 113.935C21.8022 114.002 21.7858 114.073 21.7794 114.145C21.8442 114.743 21.8766 115.347 21.9954 115.934C22.0501 116.18 22.0317 116.437 21.9424 116.672C21.8532 116.908 21.697 117.112 21.4931 117.26C21.1852 117.514 20.8342 117.713 20.5101 117.95C20.2995 118.107 20.105 118.29 19.9052 118.489C20.1463 118.601 20.4003 118.682 20.6613 118.732C21.2567 118.749 21.8251 118.984 22.259 119.391C22.6929 119.798 22.9623 120.35 23.0162 120.942C23.1109 121.383 23.23 121.819 23.3727 122.247C23.4321 122.441 23.5617 122.484 23.6967 122.306C23.983 121.929 24.2746 121.551 24.5393 121.152C25.1226 120.247 25.8409 119.681 26.8942 119.972Z" fill="#191919"/>
<path d="M111.983 65.0622C110.746 64.8573 109.515 64.6364 108.283 64.4423C106.08 64.1045 103.874 63.7775 101.667 63.4613C101.176 63.3912 100.587 63.2025 100.209 63.375C99.8308 63.5475 99.5607 64.1081 99.2366 64.4854C97.8144 66.1744 96.3903 67.8562 94.9644 69.5308C94.2137 70.4094 93.4683 71.2826 92.696 72.1397C92.466 72.4033 92.1896 72.6225 91.8804 72.7865C91.7415 72.8889 91.5785 72.9537 91.4071 72.9744C91.2357 72.9952 91.0619 72.9714 90.9025 72.9051C90.7431 72.8389 90.6036 72.7326 90.4977 72.5966C90.3917 72.4605 90.3229 72.2994 90.2979 72.1289C90.0992 71.4307 89.9511 70.7192 89.855 69.9997C89.4877 67.1267 89.1475 64.2483 88.7748 61.3752C88.7669 61.327 88.7669 61.2779 88.7748 61.2297C88.9692 60.378 88.4291 60.1516 87.7594 59.9036C83.9697 58.5985 80.2553 57.0851 76.6332 55.3704C76.3348 55.2408 76.0491 55.0838 75.7798 54.9014C75.6431 54.8216 75.527 54.7109 75.4408 54.5783C75.3546 54.4457 75.3007 54.2947 75.2834 54.1376C75.2661 53.9805 75.2858 53.8214 75.3411 53.6733C75.3963 53.5251 75.4856 53.3919 75.6016 53.2843C75.9276 52.936 76.3068 52.6413 76.725 52.4111C79.2419 51.0689 81.775 49.7483 84.2865 48.4276C85.3667 47.8742 86.4469 47.3352 87.5271 46.8105C87.6329 46.7676 87.7223 46.6922 87.7824 46.5954C87.8426 46.4985 87.8704 46.3852 87.862 46.2715C87.862 45.7325 87.862 45.2204 87.862 44.6976C87.862 41.4634 87.862 38.186 87.889 34.9357C87.8959 34.5878 87.9788 34.2456 88.1321 33.9331C88.1812 33.8238 88.2555 33.7277 88.349 33.6526C88.4424 33.5775 88.5523 33.5254 88.6697 33.5007C88.7871 33.476 88.9088 33.4793 89.0246 33.5105C89.1405 33.5416 89.2474 33.5996 89.3365 33.6797C89.4331 33.7589 89.5234 33.8454 89.6066 33.9385L95.3155 39.7061C96.0878 40.4931 96.8602 41.2801 97.6001 42.094C97.7477 42.2777 97.9465 42.4136 98.1715 42.4846C98.3964 42.5556 98.6374 42.5585 98.864 42.4929C100.603 42.1264 102.342 41.7652 104.092 41.4148C106.35 40.9782 108.618 40.5686 110.881 40.1481C111.006 40.1481 111.13 40.1481 111.254 40.1104C111.464 40.0526 111.686 40.0566 111.894 40.1219C112.101 40.1873 112.286 40.3111 112.424 40.4786C112.563 40.6461 112.65 40.8501 112.676 41.0659C112.701 41.2818 112.663 41.5003 112.566 41.6951C112.268 42.6491 111.885 43.5745 111.421 44.4604C110.228 46.692 109.002 48.902 107.706 51.0689C107.481 51.354 107.359 51.7061 107.359 52.0688C107.359 52.4315 107.481 52.7837 107.706 53.0687C109.034 55.1278 110.293 57.2408 111.524 59.3592C112.205 60.5236 112.777 61.7525 113.409 62.9438C114.041 64.135 113.625 65.1592 112.048 64.9813H111.972L111.983 65.0622ZM111.011 63.154C111.108 63.1827 111.208 63.2043 111.308 63.2187C111.397 63.2122 111.486 63.1978 111.573 63.1756C111.557 63.1039 111.535 63.0336 111.508 62.9654C111.438 62.809 111.357 62.6473 111.276 62.4964C109.958 60.1624 108.651 57.8284 107.327 55.489C106.841 54.6373 106.328 53.8072 105.831 52.9663C105.615 52.6707 105.498 52.3139 105.498 51.9475C105.498 51.5812 105.615 51.2244 105.831 50.9288C106.242 50.3358 106.587 49.689 106.912 49.0583C107.967 47.1501 109.014 45.2402 110.055 43.3284C110.218 43.0191 110.362 42.7005 110.487 42.3743C110.622 42.0401 110.568 41.9808 110.195 42.0509L103.239 43.2745L98.1024 44.2178C97.9098 44.2648 97.7081 44.2597 97.5182 44.2028C97.3283 44.1459 97.1571 44.0395 97.0222 43.8944C96.7143 43.5602 96.3687 43.2691 96.0554 42.9457L90.1953 36.7953C90.0764 36.666 89.9576 36.5366 89.828 36.418C89.7737 36.3699 89.7058 36.3397 89.6336 36.3318C89.6012 36.3318 89.5579 36.4396 89.5525 36.5043C89.5444 36.6029 89.5444 36.7021 89.5525 36.8007C89.5525 39.857 89.5958 42.9133 89.6012 45.9643C89.6012 46.3847 89.504 46.8052 89.4769 47.2256C89.4668 47.4268 89.398 47.6207 89.2791 47.7835C89.1601 47.9463 88.9961 48.0709 88.8072 48.142C87.5703 48.7457 86.3281 49.344 85.1021 49.9747C82.7634 51.1767 80.4356 52.4003 78.0807 53.6185C77.9557 53.6975 77.8382 53.7877 77.7296 53.888C77.8411 53.9733 77.9584 54.0508 78.0807 54.1198C80.468 55.1656 82.8444 56.2274 85.2479 57.2408C86.5604 57.7798 87.9052 58.3189 89.2555 58.7501C89.5715 58.8287 89.8554 59.0031 90.0682 59.2492C90.2809 59.4953 90.4121 59.8011 90.4437 60.1247C90.4923 60.4481 90.4815 60.7769 90.5193 61.1003C90.8038 63.5583 91.0955 66.0181 91.3943 68.4797C91.4645 69.0726 91.5726 69.6655 91.6644 70.2585C91.682 70.3532 91.7055 70.4468 91.7346 70.5388C91.8376 70.4804 91.9368 70.4156 92.0316 70.3447C92.1613 70.2207 92.2747 70.086 92.3881 69.9566C93.4251 68.7653 94.4675 67.5795 95.4991 66.3828C96.6225 65.073 97.7891 63.7901 98.8316 62.4155C99.036 62.1029 99.3291 61.858 99.6734 61.7121C100.018 61.5662 100.398 61.5259 100.765 61.5962C102.234 61.7849 103.703 61.9466 105.162 62.173C107.111 62.4694 109.061 62.8252 111.011 63.154Z" fill="#191919"/>
<path d="M128.169 194.983C126.439 195.06 124.747 194.465 123.448 193.322C122.271 192.33 121.438 190.993 121.066 189.501C120.991 189.159 120.963 188.809 120.985 188.46C120.979 188.366 120.992 188.271 121.023 188.181C121.055 188.092 121.103 188.009 121.167 187.938C121.23 187.868 121.307 187.81 121.392 187.769C121.478 187.729 121.571 187.705 121.666 187.7C122.06 187.7 122.325 187.894 122.411 188.374C122.488 189.021 122.67 189.651 122.951 190.239C124.28 192.702 126.359 193.565 128.952 193.36C129.844 193.298 130.71 193.026 131.476 192.565C132.242 192.103 132.888 191.467 133.359 190.708C133.661 190.25 133.926 189.765 134.207 189.29C134.283 189.161 134.331 189.015 134.418 188.891C134.508 188.74 134.649 188.625 134.815 188.565C134.982 188.505 135.164 188.504 135.33 188.563C135.509 188.625 135.66 188.748 135.758 188.909C135.856 189.07 135.896 189.26 135.87 189.447C135.854 189.596 135.812 189.742 135.746 189.878C134.779 191.829 133.537 193.516 131.425 194.417C130.402 194.867 129.284 195.062 128.169 194.983Z" fill="#191919"/>
<path d="M128.227 185.945C127.927 185.962 127.625 185.962 127.325 185.945C127.148 185.943 126.973 185.901 126.814 185.822C126.655 185.743 126.516 185.63 126.407 185.49C126.298 185.35 126.222 185.188 126.185 185.014C126.147 184.841 126.149 184.662 126.191 184.49C126.756 181.137 127.336 177.788 127.93 174.442C127.961 174.269 128.013 174.101 128.087 173.941C128.154 173.778 128.276 173.643 128.431 173.559C128.586 173.474 128.766 173.446 128.94 173.478C129.1 173.515 129.243 173.604 129.347 173.731C129.452 173.857 129.512 174.014 129.518 174.178C129.525 174.403 129.505 174.627 129.458 174.847C129.242 176.076 129.01 177.305 128.81 178.539C128.529 180.318 128.27 182.097 127.995 183.876C127.946 184.204 128.087 184.274 128.362 184.253C128.637 184.231 128.961 184.188 129.259 184.167C129.556 184.127 129.855 184.109 130.155 184.113C130.345 184.118 130.526 184.189 130.668 184.314C130.81 184.44 130.904 184.61 130.933 184.797C130.96 184.973 130.926 185.153 130.836 185.307C130.747 185.46 130.608 185.579 130.441 185.644C130.014 185.779 129.574 185.875 129.129 185.929C128.829 185.951 128.527 185.951 128.227 185.929V185.945Z" fill="#191919"/>
<path d="M119.738 179.433C119.133 179.303 118.42 179.196 117.734 178.991C117.411 178.866 117.127 178.66 116.908 178.392C116.794 178.256 116.735 178.083 116.741 177.907C116.747 177.73 116.818 177.561 116.94 177.433C117.046 177.305 117.194 177.22 117.358 177.192C117.521 177.164 117.689 177.196 117.831 177.282C118.313 177.548 118.843 177.714 119.39 177.773C119.937 177.831 120.491 177.78 121.018 177.622C121.391 177.5 121.753 177.345 122.098 177.158C122.255 177.083 122.384 176.953 122.536 176.872C122.7 176.751 122.905 176.699 123.107 176.727C123.309 176.755 123.492 176.862 123.616 177.023C123.725 177.188 123.774 177.384 123.755 177.58C123.737 177.777 123.651 177.96 123.513 178.101C123.001 178.62 122.347 178.978 121.634 179.131C121.056 179.282 120.456 179.33 119.738 179.433Z" fill="#191919"/>
<path d="M137.588 178.748C136.699 178.816 135.807 178.651 135.001 178.268C134.705 178.13 134.432 177.949 134.191 177.729C134.045 177.608 133.95 177.437 133.924 177.25C133.898 177.062 133.943 176.872 134.051 176.716C134.166 176.566 134.33 176.461 134.516 176.422C134.701 176.382 134.894 176.41 135.061 176.5C135.484 176.708 135.921 176.888 136.368 177.039C136.869 177.202 137.399 177.254 137.922 177.192C138.445 177.131 138.948 176.957 139.398 176.684C139.541 176.585 139.7 176.511 139.868 176.463C140.025 176.416 140.193 176.421 140.347 176.476C140.502 176.531 140.634 176.634 140.726 176.77C140.824 176.9 140.878 177.059 140.878 177.223C140.878 177.386 140.824 177.545 140.726 177.675C140.581 177.846 140.41 177.994 140.219 178.112C139.443 178.624 138.513 178.849 137.588 178.748Z" fill="#191919"/>
<path d="M109.028 182.971C109.028 182.745 109.028 182.621 109.06 182.497C109.073 182.346 109.136 182.204 109.239 182.093C109.341 181.982 109.478 181.908 109.627 181.882C109.788 181.849 109.954 181.871 110.101 181.943C110.248 182.015 110.366 182.134 110.437 182.281C110.485 182.369 110.52 182.464 110.54 182.562C110.675 183.192 110.832 183.823 110.929 184.459C111.026 185.095 110.848 185.386 110.448 185.489C110.332 185.518 110.211 185.522 110.093 185.501C109.975 185.479 109.863 185.433 109.765 185.365C109.666 185.298 109.583 185.21 109.521 185.107C109.459 185.005 109.42 184.89 109.406 184.772C109.233 184.152 109.136 183.51 109.028 182.971Z" fill="#191919"/>
<path d="M147.061 183.995C146.931 184.399 146.769 185.024 146.521 185.612C146.45 185.803 146.306 185.959 146.121 186.045C145.936 186.13 145.724 186.14 145.532 186.07C145.437 186.037 145.349 185.985 145.274 185.917C145.199 185.85 145.138 185.768 145.096 185.676C145.054 185.584 145.03 185.485 145.027 185.384C145.024 185.283 145.042 185.183 145.078 185.089C145.213 184.55 145.376 183.979 145.554 183.434C145.732 182.89 146.045 182.717 146.429 182.787C146.812 182.857 147.098 183.229 147.061 183.995Z" fill="#191919"/>
</svg>
