<svg width="52" height="52" viewBox="0 0 52 52" fill="none" xmlns="http://www.w3.org/2000/svg">
<g clip-path="url(#clip0_320_2534)">
<path d="M26.0056 16.7571C20.9011 16.7571 16.7686 20.8941 16.7686 25.9941C16.7686 31.0986 20.9056 35.2311 26.0056 35.2311C31.1101 35.2311 35.2426 31.0941 35.2426 25.9941C35.2426 20.8896 31.1056 16.7571 26.0056 16.7571ZM26.0056 31.9896C22.6921 31.9896 20.0101 29.3061 20.0101 25.9941C20.0101 22.6821 22.6936 19.9986 26.0056 19.9986C29.3176 19.9986 32.0011 22.6821 32.0011 25.9941C32.0026 29.3061 29.3191 31.9896 26.0056 31.9896Z" fill="white"/>
<path d="M33.4219 8.1143C30.1099 7.9598 21.9064 7.9673 18.5914 8.1143C15.6784 8.2508 13.1089 8.9543 11.0374 11.0258C7.57535 14.4878 8.01785 19.1528 8.01785 25.9943C8.01785 32.9963 7.62785 37.5533 11.0374 40.9628C14.5129 44.4368 19.2454 43.9823 26.0059 43.9823C32.9419 43.9823 35.3359 43.9868 37.7884 43.0373C41.1229 41.7428 43.6399 38.7623 43.8859 33.4088C44.0419 30.0953 44.0329 21.8933 43.8859 18.5783C43.5889 12.2588 40.1974 8.4263 33.4219 8.1143ZM38.6644 38.6723C36.3949 40.9418 33.2464 40.7393 25.9624 40.7393C18.4624 40.7393 15.4549 40.8503 13.2604 38.6498C10.7329 36.1343 11.1904 32.0948 11.1904 25.9703C11.1904 17.6828 10.3399 11.7143 18.6574 11.2883C20.5684 11.2208 21.1309 11.1983 25.9414 11.1983L26.0089 11.2433C34.0024 11.2433 40.2739 10.4063 40.6504 18.7223C40.7359 20.6198 40.7554 21.1898 40.7554 25.9928C40.7539 33.4058 40.8949 36.4313 38.6644 38.6723Z" fill="white"/>
<path d="M35.6087 18.5509C36.8008 18.5509 37.7672 17.5845 37.7672 16.3924C37.7672 15.2003 36.8008 14.2339 35.6087 14.2339C34.4166 14.2339 33.4502 15.2003 33.4502 16.3924C33.4502 17.5845 34.4166 18.5509 35.6087 18.5509Z" fill="white"/>
</g>
<defs>
<clipPath id="clip0_320_2534">
<rect width="36" height="36" fill="white" transform="translate(8 8)"/>
</clipPath>
</defs>
</svg>
