<svg width="36" height="36" viewBox="0 0 36 36" fill="none" xmlns="http://www.w3.org/2000/svg">
<g>
<path d="M18.0056 8.75708C12.9011 8.75708 8.76855 12.8941 8.76855 17.9941C8.76855 23.0986 12.9056 27.2311 18.0056 27.2311C23.1101 27.2311 27.2426 23.0941 27.2426 17.9941C27.2426 12.8896 23.1056 8.75708 18.0056 8.75708ZM18.0056 23.9896C14.6921 23.9896 12.0101 21.3061 12.0101 17.9941C12.0101 14.6821 14.6936 11.9986 18.0056 11.9986C21.3176 11.9986 24.0011 14.6821 24.0011 17.9941C24.0026 21.3061 21.3191 23.9896 18.0056 23.9896Z" fill="white"/>
<path d="M25.4223 0.114301C22.1103 -0.0401993 13.9068 -0.0326993 10.5918 0.114301C7.67884 0.250801 5.10934 0.9543 3.03784 3.0258C-0.424159 6.4878 0.0183409 11.1528 0.0183409 17.9943C0.0183409 24.9963 -0.371659 29.5533 3.03784 32.9628C6.51334 36.4368 11.2458 35.9823 18.0063 35.9823C24.9423 35.9823 27.3363 35.9868 29.7888 35.0373C33.1233 33.7428 35.6403 30.7623 35.8863 25.4088C36.0423 22.0953 36.0333 13.8933 35.8863 10.5783C35.5893 4.2588 32.1978 0.426301 25.4223 0.114301ZM30.6648 30.6723C28.3953 32.9418 25.2468 32.7393 17.9628 32.7393C10.4628 32.7393 7.45534 32.8503 5.26084 30.6498C2.73334 28.1343 3.19084 24.0948 3.19084 17.9703C3.19084 9.6828 2.34034 3.7143 10.6578 3.2883C12.5688 3.2208 13.1313 3.1983 17.9418 3.1983L18.0093 3.2433C26.0028 3.2433 32.2743 2.4063 32.6508 10.7223C32.7363 12.6198 32.7558 13.1898 32.7558 17.9928C32.7543 25.4058 32.8953 28.4313 30.6648 30.6723Z" fill="white"/>
<path d="M27.6087 10.5509C28.8008 10.5509 29.7672 9.58449 29.7672 8.39238C29.7672 7.20028 28.8008 6.23389 27.6087 6.23389C26.4166 6.23389 25.4502 7.20028 25.4502 8.39238C25.4502 9.58449 26.4166 10.5509 27.6087 10.5509Z" fill="white"/>
</g>
<defs>
<clipPath id="clip0">
<rect width="36" height="36" fill="white"/>
</clipPath>
</defs>
</svg>
