<svg width="44" height="44" viewBox="0 0 44 44" fill="none" xmlns="http://www.w3.org/2000/svg">
<path fill-rule="evenodd" clip-rule="evenodd" d="M11.2857 7C8.91878 7 7 8.91878 7 11.2857V32.7143C7 35.0812 8.91878 37 11.2857 37H32.7143C35.0812 37 37 35.0812 37 32.7143V11.2857C37 8.91878 35.0812 7 32.7143 7H11.2857ZM14.5754 18.086C15.3104 18.086 15.9063 17.4762 15.9063 16.7241C15.9063 15.9719 15.3104 15.3622 14.5754 15.3622C13.8403 15.3622 13.2444 15.9719 13.2444 16.7241C13.2444 17.4762 13.8403 18.086 14.5754 18.086ZM17.9422 16.7238C17.9422 15.9759 18.5484 15.3696 19.2963 15.3696H29.3843C30.1322 15.3696 30.7385 15.9759 30.7385 16.7238C30.7385 17.4717 30.1322 18.0779 29.3843 18.0779H19.2963C18.5484 18.0779 17.9422 17.4717 17.9422 16.7238ZM19.2963 20.6486C18.5484 20.6486 17.9422 21.2549 17.9422 22.0028C17.9422 22.7507 18.5484 23.357 19.2963 23.357H29.3843C30.1322 23.357 30.7385 22.7507 30.7385 22.0028C30.7385 21.2549 30.1322 20.6486 29.3843 20.6486H19.2963ZM14.5754 23.365C15.3104 23.365 15.9063 22.7552 15.9063 22.0031C15.9063 21.2509 15.3104 20.6412 14.5754 20.6412C13.8403 20.6412 13.2444 21.2509 13.2444 22.0031C13.2444 22.7552 13.8403 23.365 14.5754 23.365ZM19.2963 25.9249C18.5484 25.9249 17.9422 26.5311 17.9422 27.279C17.9422 28.0269 18.5484 28.6332 19.2963 28.6332H29.3843C30.1322 28.6332 30.7385 28.0269 30.7385 27.279C30.7385 26.5311 30.1322 25.9249 29.3843 25.9249H19.2963ZM14.5754 28.6412C15.3104 28.6412 15.9063 28.0315 15.9063 27.2793C15.9063 26.5272 15.3104 25.9174 14.5754 25.9174C13.8403 25.9174 13.2444 26.5272 13.2444 27.2793C13.2444 28.0315 13.8403 28.6412 14.5754 28.6412Z" fill="#7270DF"/>
</svg>
